<svg xmlns="http://www.w3.org/2000/svg" xmlns:xlink="http://www.w3.org/1999/xlink" width="500" zoomAndPan="magnify" viewBox="0 0 375 374.999991" height="500" preserveAspectRatio="xMidYMid meet" version="1.0"><defs><clipPath id="e7fac1b9ba"><path d="M 110 2 L 151 2 L 151 19 L 110 19 Z M 110 2 " clip-rule="nonzero"/></clipPath><clipPath id="b39441d838"><path d="M -77.683594 145.890625 L 237.886719 -80.707031 L 453.109375 219.027344 L 137.539062 445.625 Z M -77.683594 145.890625 " clip-rule="nonzero"/></clipPath><clipPath id="c7dc712c84"><path d="M -77.683594 145.890625 L 237.886719 -80.707031 L 453.109375 219.027344 L 137.539062 445.625 Z M -77.683594 145.890625 " clip-rule="nonzero"/></clipPath><clipPath id="7dba74c7e0"><path d="M 129 1 L 163 1 L 163 18 L 129 18 Z M 129 1 " clip-rule="nonzero"/></clipPath><clipPath id="b6321a01cc"><path d="M -77.683594 145.890625 L 237.886719 -80.707031 L 453.109375 219.027344 L 137.539062 445.625 Z M -77.683594 145.890625 " clip-rule="nonzero"/></clipPath><clipPath id="f0bd4f223c"><path d="M -77.683594 145.890625 L 237.886719 -80.707031 L 453.109375 219.027344 L 137.539062 445.625 Z M -77.683594 145.890625 " clip-rule="nonzero"/></clipPath><clipPath id="6bbc4bbeca"><path d="M 157 1 L 182 1 L 182 17 L 157 17 Z M 157 1 " clip-rule="nonzero"/></clipPath><clipPath id="93f0513bb9"><path d="M -77.683594 145.890625 L 237.886719 -80.707031 L 453.109375 219.027344 L 137.539062 445.625 Z M -77.683594 145.890625 " clip-rule="nonzero"/></clipPath><clipPath id="dad84d09c5"><path d="M -77.683594 145.890625 L 237.886719 -80.707031 L 453.109375 219.027344 L 137.539062 445.625 Z M -77.683594 145.890625 " clip-rule="nonzero"/></clipPath><clipPath id="fe1143504f"><path d="M 187 1 L 208 1 L 208 17 L 187 17 Z M 187 1 " clip-rule="nonzero"/></clipPath><clipPath id="dda02784ff"><path d="M -77.683594 145.890625 L 237.886719 -80.707031 L 453.109375 219.027344 L 137.539062 445.625 Z M -77.683594 145.890625 " clip-rule="nonzero"/></clipPath><clipPath id="7ace41b732"><path d="M -77.683594 145.890625 L 237.886719 -80.707031 L 453.109375 219.027344 L 137.539062 445.625 Z M -77.683594 145.890625 " clip-rule="nonzero"/></clipPath><clipPath id="b1a1136c3c"><path d="M 213 1 L 237 1 L 237 18 L 213 18 Z M 213 1 " clip-rule="nonzero"/></clipPath><clipPath id="185c810532"><path d="M -77.683594 145.890625 L 237.886719 -80.707031 L 453.109375 219.027344 L 137.539062 445.625 Z M -77.683594 145.890625 " clip-rule="nonzero"/></clipPath><clipPath id="995bc436af"><path d="M -77.683594 145.890625 L 237.886719 -80.707031 L 453.109375 219.027344 L 137.539062 445.625 Z M -77.683594 145.890625 " clip-rule="nonzero"/></clipPath><clipPath id="1d96cdd4f6"><path d="M 231 2 L 264 2 L 264 20 L 231 20 Z M 231 2 " clip-rule="nonzero"/></clipPath><clipPath id="d9126f39bb"><path d="M -77.683594 145.890625 L 237.886719 -80.707031 L 453.109375 219.027344 L 137.539062 445.625 Z M -77.683594 145.890625 " clip-rule="nonzero"/></clipPath><clipPath id="808e71520f"><path d="M -77.683594 145.890625 L 237.886719 -80.707031 L 453.109375 219.027344 L 137.539062 445.625 Z M -77.683594 145.890625 " clip-rule="nonzero"/></clipPath><clipPath id="9d70b9c357"><path d="M 244 3 L 284 3 L 284 22 L 244 22 Z M 244 3 " clip-rule="nonzero"/></clipPath><clipPath id="8eca2e7705"><path d="M -77.683594 145.890625 L 237.886719 -80.707031 L 453.109375 219.027344 L 137.539062 445.625 Z M -77.683594 145.890625 " clip-rule="nonzero"/></clipPath><clipPath id="b07c22528c"><path d="M -77.683594 145.890625 L 237.886719 -80.707031 L 453.109375 219.027344 L 137.539062 445.625 Z M -77.683594 145.890625 " clip-rule="nonzero"/></clipPath><clipPath id="19f708b868"><path d="M 58 25 L 95 25 L 95 55 L 58 55 Z M 58 25 " clip-rule="nonzero"/></clipPath><clipPath id="5d1e76e97c"><path d="M -77.683594 145.890625 L 237.886719 -80.707031 L 453.109375 219.027344 L 137.539062 445.625 Z M -77.683594 145.890625 " clip-rule="nonzero"/></clipPath><clipPath id="a6bf813beb"><path d="M -77.683594 145.890625 L 237.886719 -80.707031 L 453.109375 219.027344 L 137.539062 445.625 Z M -77.683594 145.890625 " clip-rule="nonzero"/></clipPath><clipPath id="e18a75ac87"><path d="M 79 24 L 114 24 L 114 53 L 79 53 Z M 79 24 " clip-rule="nonzero"/></clipPath><clipPath id="8d8974b3a5"><path d="M -77.683594 145.890625 L 237.886719 -80.707031 L 453.109375 219.027344 L 137.539062 445.625 Z M -77.683594 145.890625 " clip-rule="nonzero"/></clipPath><clipPath id="376bde1db1"><path d="M -77.683594 145.890625 L 237.886719 -80.707031 L 453.109375 219.027344 L 137.539062 445.625 Z M -77.683594 145.890625 " clip-rule="nonzero"/></clipPath><clipPath id="a93f0a267a"><path d="M 113 22 L 148 22 L 148 51 L 113 51 Z M 113 22 " clip-rule="nonzero"/></clipPath><clipPath id="93085c5fbe"><path d="M -77.683594 145.890625 L 237.886719 -80.707031 L 453.109375 219.027344 L 137.539062 445.625 Z M -77.683594 145.890625 " clip-rule="nonzero"/></clipPath><clipPath id="f956e51b11"><path d="M -77.683594 145.890625 L 237.886719 -80.707031 L 453.109375 219.027344 L 137.539062 445.625 Z M -77.683594 145.890625 " clip-rule="nonzero"/></clipPath><clipPath id="90f57fad98"><path d="M 158 22 L 191 22 L 191 51 L 158 51 Z M 158 22 " clip-rule="nonzero"/></clipPath><clipPath id="5130f20a68"><path d="M -77.683594 145.890625 L 237.886719 -80.707031 L 453.109375 219.027344 L 137.539062 445.625 Z M -77.683594 145.890625 " clip-rule="nonzero"/></clipPath><clipPath id="bd7edd347a"><path d="M -77.683594 145.890625 L 237.886719 -80.707031 L 453.109375 219.027344 L 137.539062 445.625 Z M -77.683594 145.890625 " clip-rule="nonzero"/></clipPath><clipPath id="d8e2d3a73a"><path d="M 204 23 L 236 23 L 236 52 L 204 52 Z M 204 23 " clip-rule="nonzero"/></clipPath><clipPath id="fd8aab8db5"><path d="M -77.683594 145.890625 L 237.886719 -80.707031 L 453.109375 219.027344 L 137.539062 445.625 Z M -77.683594 145.890625 " clip-rule="nonzero"/></clipPath><clipPath id="a9c015ba7a"><path d="M -77.683594 145.890625 L 237.886719 -80.707031 L 453.109375 219.027344 L 137.539062 445.625 Z M -77.683594 145.890625 " clip-rule="nonzero"/></clipPath><clipPath id="a054142ad7"><path d="M 245 24 L 279 24 L 279 54 L 245 54 Z M 245 24 " clip-rule="nonzero"/></clipPath><clipPath id="c7abc09cac"><path d="M -77.683594 145.890625 L 237.886719 -80.707031 L 453.109375 219.027344 L 137.539062 445.625 Z M -77.683594 145.890625 " clip-rule="nonzero"/></clipPath><clipPath id="70392382a9"><path d="M -77.683594 145.890625 L 237.886719 -80.707031 L 453.109375 219.027344 L 137.539062 445.625 Z M -77.683594 145.890625 " clip-rule="nonzero"/></clipPath><clipPath id="afccee4043"><path d="M 279 26 L 314 26 L 314 57 L 279 57 Z M 279 26 " clip-rule="nonzero"/></clipPath><clipPath id="e66dadfd44"><path d="M -77.683594 145.890625 L 237.886719 -80.707031 L 453.109375 219.027344 L 137.539062 445.625 Z M -77.683594 145.890625 " clip-rule="nonzero"/></clipPath><clipPath id="a30bba46f9"><path d="M -77.683594 145.890625 L 237.886719 -80.707031 L 453.109375 219.027344 L 137.539062 445.625 Z M -77.683594 145.890625 " clip-rule="nonzero"/></clipPath><clipPath id="f4bc5f8c4e"><path d="M 299 29 L 335 29 L 335 60 L 299 60 Z M 299 29 " clip-rule="nonzero"/></clipPath><clipPath id="2d21274b5a"><path d="M -77.683594 145.890625 L 237.886719 -80.707031 L 453.109375 219.027344 L 137.539062 445.625 Z M -77.683594 145.890625 " clip-rule="nonzero"/></clipPath><clipPath id="63838acff4"><path d="M -77.683594 145.890625 L 237.886719 -80.707031 L 453.109375 219.027344 L 137.539062 445.625 Z M -77.683594 145.890625 " clip-rule="nonzero"/></clipPath><clipPath id="6316ec3d1d"><path d="M 22 63 L 49 63 L 49 102 L 22 102 Z M 22 63 " clip-rule="nonzero"/></clipPath><clipPath id="70d65f9348"><path d="M -77.683594 145.890625 L 237.886719 -80.707031 L 453.109375 219.027344 L 137.539062 445.625 Z M -77.683594 145.890625 " clip-rule="nonzero"/></clipPath><clipPath id="3395de887a"><path d="M -77.683594 145.890625 L 237.886719 -80.707031 L 453.109375 219.027344 L 137.539062 445.625 Z M -77.683594 145.890625 " clip-rule="nonzero"/></clipPath><clipPath id="db0cf1be82"><path d="M 36 60 L 67 60 L 67 98 L 36 98 Z M 36 60 " clip-rule="nonzero"/></clipPath><clipPath id="2df6869840"><path d="M -77.683594 145.890625 L 237.886719 -80.707031 L 453.109375 219.027344 L 137.539062 445.625 Z M -77.683594 145.890625 " clip-rule="nonzero"/></clipPath><clipPath id="8a9279fbc0"><path d="M -77.683594 145.890625 L 237.886719 -80.707031 L 453.109375 219.027344 L 137.539062 445.625 Z M -77.683594 145.890625 " clip-rule="nonzero"/></clipPath><clipPath id="874c3f0798"><path d="M 69 57 L 105 57 L 105 96 L 69 96 Z M 69 57 " clip-rule="nonzero"/></clipPath><clipPath id="b1c33892f2"><path d="M -77.683594 145.890625 L 237.886719 -80.707031 L 453.109375 219.027344 L 137.539062 445.625 Z M -77.683594 145.890625 " clip-rule="nonzero"/></clipPath><clipPath id="2e654c2c73"><path d="M -77.683594 145.890625 L 237.886719 -80.707031 L 453.109375 219.027344 L 137.539062 445.625 Z M -77.683594 145.890625 " clip-rule="nonzero"/></clipPath><clipPath id="e0f5602b71"><path d="M 118 56 L 159 56 L 159 95 L 118 95 Z M 118 56 " clip-rule="nonzero"/></clipPath><clipPath id="f13ff1e7c5"><path d="M -77.683594 145.890625 L 237.886719 -80.707031 L 453.109375 219.027344 L 137.539062 445.625 Z M -77.683594 145.890625 " clip-rule="nonzero"/></clipPath><clipPath id="8897a03821"><path d="M -77.683594 145.890625 L 237.886719 -80.707031 L 453.109375 219.027344 L 137.539062 445.625 Z M -77.683594 145.890625 " clip-rule="nonzero"/></clipPath><clipPath id="76e64620c0"><path d="M 176 57 L 217 57 L 217 95 L 176 95 Z M 176 57 " clip-rule="nonzero"/></clipPath><clipPath id="e4aacbf2c2"><path d="M -77.683594 145.890625 L 237.886719 -80.707031 L 453.109375 219.027344 L 137.539062 445.625 Z M -77.683594 145.890625 " clip-rule="nonzero"/></clipPath><clipPath id="083da7f667"><path d="M -77.683594 145.890625 L 237.886719 -80.707031 L 453.109375 219.027344 L 137.539062 445.625 Z M -77.683594 145.890625 " clip-rule="nonzero"/></clipPath><clipPath id="431f4cbabc"><path d="M 234 58 L 273 58 L 273 97 L 234 97 Z M 234 58 " clip-rule="nonzero"/></clipPath><clipPath id="38eb75d351"><path d="M -77.683594 145.890625 L 237.886719 -80.707031 L 453.109375 219.027344 L 137.539062 445.625 Z M -77.683594 145.890625 " clip-rule="nonzero"/></clipPath><clipPath id="36373e0d78"><path d="M -77.683594 145.890625 L 237.886719 -80.707031 L 453.109375 219.027344 L 137.539062 445.625 Z M -77.683594 145.890625 " clip-rule="nonzero"/></clipPath><clipPath id="2bc004f463"><path d="M 286 61 L 321 61 L 321 100 L 286 100 Z M 286 61 " clip-rule="nonzero"/></clipPath><clipPath id="261fee1b5e"><path d="M -77.683594 145.890625 L 237.886719 -80.707031 L 453.109375 219.027344 L 137.539062 445.625 Z M -77.683594 145.890625 " clip-rule="nonzero"/></clipPath><clipPath id="133a703ad7"><path d="M -77.683594 145.890625 L 237.886719 -80.707031 L 453.109375 219.027344 L 137.539062 445.625 Z M -77.683594 145.890625 " clip-rule="nonzero"/></clipPath><clipPath id="8ee7eee247"><path d="M 325 64 L 355 64 L 355 104 L 325 104 Z M 325 64 " clip-rule="nonzero"/></clipPath><clipPath id="42da6769f0"><path d="M -77.683594 145.890625 L 237.886719 -80.707031 L 453.109375 219.027344 L 137.539062 445.625 Z M -77.683594 145.890625 " clip-rule="nonzero"/></clipPath><clipPath id="7f4b39a881"><path d="M -77.683594 145.890625 L 237.886719 -80.707031 L 453.109375 219.027344 L 137.539062 445.625 Z M -77.683594 145.890625 " clip-rule="nonzero"/></clipPath><clipPath id="0187b6502d"><path d="M 344 68 L 369 68 L 369 108 L 344 108 Z M 344 68 " clip-rule="nonzero"/></clipPath><clipPath id="f5b39ca8ec"><path d="M -77.683594 145.890625 L 237.886719 -80.707031 L 453.109375 219.027344 L 137.539062 445.625 Z M -77.683594 145.890625 " clip-rule="nonzero"/></clipPath><clipPath id="32204d21fe"><path d="M -77.683594 145.890625 L 237.886719 -80.707031 L 453.109375 219.027344 L 137.539062 445.625 Z M -77.683594 145.890625 " clip-rule="nonzero"/></clipPath><clipPath id="07287c0df2"><path d="M 9 105 L 29 105 L 29 150 L 9 150 Z M 9 105 " clip-rule="nonzero"/></clipPath><clipPath id="8d4cf164af"><path d="M -77.683594 145.890625 L 237.886719 -80.707031 L 453.109375 219.027344 L 137.539062 445.625 Z M -77.683594 145.890625 " clip-rule="nonzero"/></clipPath><clipPath id="a984f40517"><path d="M -77.683594 145.890625 L 237.886719 -80.707031 L 453.109375 219.027344 L 137.539062 445.625 Z M -77.683594 145.890625 " clip-rule="nonzero"/></clipPath><clipPath id="e358ac3bcc"><path d="M 33 101 L 64 101 L 64 147 L 33 147 Z M 33 101 " clip-rule="nonzero"/></clipPath><clipPath id="0fb7c47548"><path d="M -77.683594 145.890625 L 237.886719 -80.707031 L 453.109375 219.027344 L 137.539062 445.625 Z M -77.683594 145.890625 " clip-rule="nonzero"/></clipPath><clipPath id="ccd6916011"><path d="M -77.683594 145.890625 L 237.886719 -80.707031 L 453.109375 219.027344 L 137.539062 445.625 Z M -77.683594 145.890625 " clip-rule="nonzero"/></clipPath><clipPath id="728f836388"><path d="M 77 99 L 120 99 L 120 145 L 77 145 Z M 77 99 " clip-rule="nonzero"/></clipPath><clipPath id="d50ce796b4"><path d="M -77.683594 145.890625 L 237.886719 -80.707031 L 453.109375 219.027344 L 137.539062 445.625 Z M -77.683594 145.890625 " clip-rule="nonzero"/></clipPath><clipPath id="0ad81118c6"><path d="M -77.683594 145.890625 L 237.886719 -80.707031 L 453.109375 219.027344 L 137.539062 445.625 Z M -77.683594 145.890625 " clip-rule="nonzero"/></clipPath><clipPath id="185bf5bf89"><path d="M 139 99 L 186 99 L 186 145 L 139 145 Z M 139 99 " clip-rule="nonzero"/></clipPath><clipPath id="8363ab7094"><path d="M -77.683594 145.890625 L 237.886719 -80.707031 L 453.109375 219.027344 L 137.539062 445.625 Z M -77.683594 145.890625 " clip-rule="nonzero"/></clipPath><clipPath id="a2bf67d43c"><path d="M -77.683594 145.890625 L 237.886719 -80.707031 L 453.109375 219.027344 L 137.539062 445.625 Z M -77.683594 145.890625 " clip-rule="nonzero"/></clipPath><clipPath id="54aa00ee4a"><path d="M 269 103 L 310 103 L 310 148 L 269 148 Z M 269 103 " clip-rule="nonzero"/></clipPath><clipPath id="8fe0b6ab35"><path d="M -77.683594 145.890625 L 237.886719 -80.707031 L 453.109375 219.027344 L 137.539062 445.625 Z M -77.683594 145.890625 " clip-rule="nonzero"/></clipPath><clipPath id="0284502793"><path d="M -77.683594 145.890625 L 237.886719 -80.707031 L 453.109375 219.027344 L 137.539062 445.625 Z M -77.683594 145.890625 " clip-rule="nonzero"/></clipPath><clipPath id="6710f2fb3d"><path d="M 0 161 L 6 161 L 6 211 L 0 211 Z M 0 161 " clip-rule="nonzero"/></clipPath><clipPath id="bf6e1c9521"><path d="M -77.683594 145.890625 L 237.886719 -80.707031 L 453.109375 219.027344 L 137.539062 445.625 Z M -77.683594 145.890625 " clip-rule="nonzero"/></clipPath><clipPath id="f998a2193c"><path d="M -77.683594 145.890625 L 237.886719 -80.707031 L 453.109375 219.027344 L 137.539062 445.625 Z M -77.683594 145.890625 " clip-rule="nonzero"/></clipPath><clipPath id="399ff0dc9d"><path d="M 11 157 L 34 157 L 34 207 L 11 207 Z M 11 157 " clip-rule="nonzero"/></clipPath><clipPath id="1de8034818"><path d="M -77.683594 145.890625 L 237.886719 -80.707031 L 453.109375 219.027344 L 137.539062 445.625 Z M -77.683594 145.890625 " clip-rule="nonzero"/></clipPath><clipPath id="09e332d3c3"><path d="M -77.683594 145.890625 L 237.886719 -80.707031 L 453.109375 219.027344 L 137.539062 445.625 Z M -77.683594 145.890625 " clip-rule="nonzero"/></clipPath><clipPath id="22f312205a"><path d="M 46 154 L 84 154 L 84 204 L 46 204 Z M 46 154 " clip-rule="nonzero"/></clipPath><clipPath id="f3caf1a814"><path d="M -77.683594 145.890625 L 237.886719 -80.707031 L 453.109375 219.027344 L 137.539062 445.625 Z M -77.683594 145.890625 " clip-rule="nonzero"/></clipPath><clipPath id="81a240df02"><path d="M -77.683594 145.890625 L 237.886719 -80.707031 L 453.109375 219.027344 L 137.539062 445.625 Z M -77.683594 145.890625 " clip-rule="nonzero"/></clipPath><clipPath id="2748a51ac6"><path d="M 102 153 L 150 153 L 150 203 L 102 203 Z M 102 153 " clip-rule="nonzero"/></clipPath><clipPath id="192c47db42"><path d="M -77.683594 145.890625 L 237.886719 -80.707031 L 453.109375 219.027344 L 137.539062 445.625 Z M -77.683594 145.890625 " clip-rule="nonzero"/></clipPath><clipPath id="387b1ae128"><path d="M -77.683594 145.890625 L 237.886719 -80.707031 L 453.109375 219.027344 L 137.539062 445.625 Z M -77.683594 145.890625 " clip-rule="nonzero"/></clipPath><clipPath id="1908791c55"><path d="M 170 153 L 219 153 L 219 203 L 170 203 Z M 170 153 " clip-rule="nonzero"/></clipPath><clipPath id="ddbef180e4"><path d="M -77.683594 145.890625 L 237.886719 -80.707031 L 453.109375 219.027344 L 137.539062 445.625 Z M -77.683594 145.890625 " clip-rule="nonzero"/></clipPath><clipPath id="b86a2981a9"><path d="M -77.683594 145.890625 L 237.886719 -80.707031 L 453.109375 219.027344 L 137.539062 445.625 Z M -77.683594 145.890625 " clip-rule="nonzero"/></clipPath><clipPath id="6b6e2afb56"><path d="M 8 221 L 28 221 L 28 268 L 8 268 Z M 8 221 " clip-rule="nonzero"/></clipPath><clipPath id="6def439209"><path d="M -77.683594 145.890625 L 237.886719 -80.707031 L 453.109375 219.027344 L 137.539062 445.625 Z M -77.683594 145.890625 " clip-rule="nonzero"/></clipPath><clipPath id="f463259be2"><path d="M -77.683594 145.890625 L 237.886719 -80.707031 L 453.109375 219.027344 L 137.539062 445.625 Z M -77.683594 145.890625 " clip-rule="nonzero"/></clipPath><clipPath id="206a15e3dc"><path d="M 32 218 L 63 218 L 63 265 L 32 265 Z M 32 218 " clip-rule="nonzero"/></clipPath><clipPath id="8b684de0b5"><path d="M -77.683594 145.890625 L 237.886719 -80.707031 L 453.109375 219.027344 L 137.539062 445.625 Z M -77.683594 145.890625 " clip-rule="nonzero"/></clipPath><clipPath id="89461d8428"><path d="M -77.683594 145.890625 L 237.886719 -80.707031 L 453.109375 219.027344 L 137.539062 445.625 Z M -77.683594 145.890625 " clip-rule="nonzero"/></clipPath><clipPath id="aeecf08d07"><path d="M 76 216 L 119 216 L 119 263 L 76 263 Z M 76 216 " clip-rule="nonzero"/></clipPath><clipPath id="f8d2b5350e"><path d="M -77.683594 145.890625 L 237.886719 -80.707031 L 453.109375 219.027344 L 137.539062 445.625 Z M -77.683594 145.890625 " clip-rule="nonzero"/></clipPath><clipPath id="46d41f2dc6"><path d="M -77.683594 145.890625 L 237.886719 -80.707031 L 453.109375 219.027344 L 137.539062 445.625 Z M -77.683594 145.890625 " clip-rule="nonzero"/></clipPath><clipPath id="2eb92be32a"><path d="M 137 215 L 184 215 L 184 262 L 137 262 Z M 137 215 " clip-rule="nonzero"/></clipPath><clipPath id="4afee25c95"><path d="M -77.683594 145.890625 L 237.886719 -80.707031 L 453.109375 219.027344 L 137.539062 445.625 Z M -77.683594 145.890625 " clip-rule="nonzero"/></clipPath><clipPath id="3665c8f286"><path d="M -77.683594 145.890625 L 237.886719 -80.707031 L 453.109375 219.027344 L 137.539062 445.625 Z M -77.683594 145.890625 " clip-rule="nonzero"/></clipPath><clipPath id="eb8f175a29"><path d="M 22 277 L 49 277 L 49 316 L 22 316 Z M 22 277 " clip-rule="nonzero"/></clipPath><clipPath id="0ad924626e"><path d="M -77.683594 145.890625 L 237.886719 -80.707031 L 453.109375 219.027344 L 137.539062 445.625 Z M -77.683594 145.890625 " clip-rule="nonzero"/></clipPath><clipPath id="13b3fbd4fc"><path d="M -77.683594 145.890625 L 237.886719 -80.707031 L 453.109375 219.027344 L 137.539062 445.625 Z M -77.683594 145.890625 " clip-rule="nonzero"/></clipPath><clipPath id="23d233c4eb"><path d="M 36 273 L 66 273 L 66 313 L 36 313 Z M 36 273 " clip-rule="nonzero"/></clipPath><clipPath id="3195cc97e4"><path d="M -77.683594 145.890625 L 237.886719 -80.707031 L 453.109375 219.027344 L 137.539062 445.625 Z M -77.683594 145.890625 " clip-rule="nonzero"/></clipPath><clipPath id="01cea5db66"><path d="M -77.683594 145.890625 L 237.886719 -80.707031 L 453.109375 219.027344 L 137.539062 445.625 Z M -77.683594 145.890625 " clip-rule="nonzero"/></clipPath><clipPath id="bf83a61359"><path d="M 68 271 L 103 271 L 103 311 L 68 311 Z M 68 271 " clip-rule="nonzero"/></clipPath><clipPath id="c7b6568050"><path d="M -77.683594 145.890625 L 237.886719 -80.707031 L 453.109375 219.027344 L 137.539062 445.625 Z M -77.683594 145.890625 " clip-rule="nonzero"/></clipPath><clipPath id="9af927acd6"><path d="M -77.683594 145.890625 L 237.886719 -80.707031 L 453.109375 219.027344 L 137.539062 445.625 Z M -77.683594 145.890625 " clip-rule="nonzero"/></clipPath><clipPath id="be39858b99"><path d="M 57 319 L 93 319 L 93 351 L 57 351 Z M 57 319 " clip-rule="nonzero"/></clipPath><clipPath id="38790c2213"><path d="M -77.683594 145.890625 L 237.886719 -80.707031 L 453.109375 219.027344 L 137.539062 445.625 Z M -77.683594 145.890625 " clip-rule="nonzero"/></clipPath><clipPath id="9793346cfe"><path d="M -77.683594 145.890625 L 237.886719 -80.707031 L 453.109375 219.027344 L 137.539062 445.625 Z M -77.683594 145.890625 " clip-rule="nonzero"/></clipPath><clipPath id="59b393e5f6"><path d="M 77 317 L 111 317 L 111 349 L 77 349 Z M 77 317 " clip-rule="nonzero"/></clipPath><clipPath id="322301f9d5"><path d="M -77.683594 145.890625 L 237.886719 -80.707031 L 453.109375 219.027344 L 137.539062 445.625 Z M -77.683594 145.890625 " clip-rule="nonzero"/></clipPath><clipPath id="0d814286b0"><path d="M -77.683594 145.890625 L 237.886719 -80.707031 L 453.109375 219.027344 L 137.539062 445.625 Z M -77.683594 145.890625 " clip-rule="nonzero"/></clipPath><clipPath id="fb38661ab7"><path d="M 110 315 L 144 315 L 144 348 L 110 348 Z M 110 315 " clip-rule="nonzero"/></clipPath><clipPath id="29a77a61ca"><path d="M -77.683594 145.890625 L 237.886719 -80.707031 L 453.109375 219.027344 L 137.539062 445.625 Z M -77.683594 145.890625 " clip-rule="nonzero"/></clipPath><clipPath id="458c1b8604"><path d="M -77.683594 145.890625 L 237.886719 -80.707031 L 453.109375 219.027344 L 137.539062 445.625 Z M -77.683594 145.890625 " clip-rule="nonzero"/></clipPath><clipPath id="54d0b3eea5"><path d="M 154 315 L 185 315 L 185 347 L 154 347 Z M 154 315 " clip-rule="nonzero"/></clipPath><clipPath id="a7f656a567"><path d="M -77.683594 145.890625 L 237.886719 -80.707031 L 453.109375 219.027344 L 137.539062 445.625 Z M -77.683594 145.890625 " clip-rule="nonzero"/></clipPath><clipPath id="16a1f9ccb6"><path d="M -77.683594 145.890625 L 237.886719 -80.707031 L 453.109375 219.027344 L 137.539062 445.625 Z M -77.683594 145.890625 " clip-rule="nonzero"/></clipPath><clipPath id="28c8caaed7"><path d="M 105 354 L 145 354 L 145 375 L 105 375 Z M 105 354 " clip-rule="nonzero"/></clipPath><clipPath id="90654ac87c"><path d="M -77.683594 145.890625 L 237.886719 -80.707031 L 453.109375 219.027344 L 137.539062 445.625 Z M -77.683594 145.890625 " clip-rule="nonzero"/></clipPath><clipPath id="c7e79930ca"><path d="M -77.683594 145.890625 L 237.886719 -80.707031 L 453.109375 219.027344 L 137.539062 445.625 Z M -77.683594 145.890625 " clip-rule="nonzero"/></clipPath><clipPath id="2821b72b33"><path d="M 124 352 L 157 352 L 157 374 L 124 374 Z M 124 352 " clip-rule="nonzero"/></clipPath><clipPath id="9147c4e2b6"><path d="M -77.683594 145.890625 L 237.886719 -80.707031 L 453.109375 219.027344 L 137.539062 445.625 Z M -77.683594 145.890625 " clip-rule="nonzero"/></clipPath><clipPath id="fa290dff1a"><path d="M -77.683594 145.890625 L 237.886719 -80.707031 L 453.109375 219.027344 L 137.539062 445.625 Z M -77.683594 145.890625 " clip-rule="nonzero"/></clipPath><clipPath id="9672a5e0ce"><path d="M 151 352 L 176 352 L 176 374 L 151 374 Z M 151 352 " clip-rule="nonzero"/></clipPath><clipPath id="cdae97f9ee"><path d="M -77.683594 145.890625 L 237.886719 -80.707031 L 453.109375 219.027344 L 137.539062 445.625 Z M -77.683594 145.890625 " clip-rule="nonzero"/></clipPath><clipPath id="bdfe3a9dee"><path d="M -77.683594 145.890625 L 237.886719 -80.707031 L 453.109375 219.027344 L 137.539062 445.625 Z M -77.683594 145.890625 " clip-rule="nonzero"/></clipPath><clipPath id="b259972075"><path d="M 181 352 L 201 352 L 201 374 L 181 374 Z M 181 352 " clip-rule="nonzero"/></clipPath><clipPath id="3c1f0527ba"><path d="M -77.683594 145.890625 L 237.886719 -80.707031 L 453.109375 219.027344 L 137.539062 445.625 Z M -77.683594 145.890625 " clip-rule="nonzero"/></clipPath><clipPath id="85acdf8450"><path d="M -77.683594 145.890625 L 237.886719 -80.707031 L 453.109375 219.027344 L 137.539062 445.625 Z M -77.683594 145.890625 " clip-rule="nonzero"/></clipPath><clipPath id="9dda282c31"><path d="M 206 353 L 230 353 L 230 374 L 206 374 Z M 206 353 " clip-rule="nonzero"/></clipPath><clipPath id="b81bf9d3c1"><path d="M -77.683594 145.890625 L 237.886719 -80.707031 L 453.109375 219.027344 L 137.539062 445.625 Z M -77.683594 145.890625 " clip-rule="nonzero"/></clipPath><clipPath id="110e3cd937"><path d="M -77.683594 145.890625 L 237.886719 -80.707031 L 453.109375 219.027344 L 137.539062 445.625 Z M -77.683594 145.890625 " clip-rule="nonzero"/></clipPath><clipPath id="323c996606"><path d="M 224 355 L 257 355 L 257 375 L 224 375 Z M 224 355 " clip-rule="nonzero"/></clipPath><clipPath id="5079dbe83e"><path d="M -77.683594 145.890625 L 237.886719 -80.707031 L 453.109375 219.027344 L 137.539062 445.625 Z M -77.683594 145.890625 " clip-rule="nonzero"/></clipPath><clipPath id="709a3b25b8"><path d="M -77.683594 145.890625 L 237.886719 -80.707031 L 453.109375 219.027344 L 137.539062 445.625 Z M -77.683594 145.890625 " clip-rule="nonzero"/></clipPath></defs><g clip-path="url(#e7fac1b9ba)"><g clip-path="url(#b39441d838)"><g clip-path="url(#c7dc712c84)"><path fill="#0558ee" d="M 132.671875 9.527344 C 112.648438 18.535156 111.449219 19.078125 110.214844 18.511719 C 111.636719 14.351562 139.8125 3.785156 150.007812 2.230469 C 149.601562 2.566406 149.601562 2.566406 147.527344 3.34375 C 143.429688 4.886719 139.335938 6.527344 132.671875 9.527344 " fill-opacity="1" fill-rule="nonzero"/></g></g></g><g clip-path="url(#7dba74c7e0)"><g clip-path="url(#b6321a01cc)"><g clip-path="url(#f0bd4f223c)"><path fill="#0558ee" d="M 152.734375 8.578125 C 137.089844 18.050781 128.789062 18.566406 129.667969 15.671875 C 131.222656 10.550781 152.742188 2.175781 161.636719 1.460938 C 161.859375 1.460938 162.148438 1.480469 162.363281 1.523438 C 162.402344 1.605469 162.457031 1.714844 162.496094 1.796875 C 161.691406 3.144531 153.097656 8.355469 152.734375 8.578125 " fill-opacity="1" fill-rule="nonzero"/></g></g></g><g clip-path="url(#6bbc4bbeca)"><g clip-path="url(#93f0513bb9)"><g clip-path="url(#dad84d09c5)"><path fill="#0558ee" d="M 179.15625 8.285156 C 172.410156 17.039062 158.300781 18.585938 157.621094 13.707031 C 156.878906 8.363281 170.984375 1.433594 178.671875 1.09375 C 184.460938 1.300781 179.371094 8 179.15625 8.285156 " fill-opacity="1" fill-rule="nonzero"/></g></g></g><g clip-path="url(#fe1143504f)"><g clip-path="url(#dda02784ff)"><g clip-path="url(#7ace41b732)"><path fill="#0558ee" d="M 207.007812 8.671875 C 208.378906 15.816406 197.246094 19.039062 190.964844 14.917969 C 184.359375 10.582031 189.15625 2.789062 195.59375 1.402344 C 196.390625 1.230469 197.054688 1.21875 197.585938 1.207031 C 202.574219 1.492188 206.363281 5.300781 207.007812 8.671875 " fill-opacity="1" fill-rule="nonzero"/></g></g></g><g clip-path="url(#b1a1136c3c)"><g clip-path="url(#185c810532)"><g clip-path="url(#995bc436af)"><path fill="#0558ee" d="M 233.460938 9.660156 C 238.292969 14.148438 236.773438 17.453125 232.316406 17.722656 C 221.585938 18.375 210.542969 5.628906 214.066406 2.285156 C 214.628906 1.75 215.539062 1.746094 216.207031 1.746094 C 220.734375 2.109375 228.929688 5.445312 233.460938 9.660156 " fill-opacity="1" fill-rule="nonzero"/></g></g></g><g clip-path="url(#1d96cdd4f6)"><g clip-path="url(#d9126f39bb)"><g clip-path="url(#808e71520f)"><path fill="#0558ee" d="M 255.695312 11.152344 C 263.074219 15.359375 265.011719 18.652344 262.574219 19.300781 C 260.921875 19.738281 256.472656 18.90625 249.390625 15.117188 C 243.410156 11.917969 231.667969 3.894531 231.734375 2.804688 C 231.933594 2.652344 232.042969 2.644531 232.605469 2.65625 C 236.867188 3.144531 247.71875 6.609375 255.695312 11.152344 " fill-opacity="1" fill-rule="nonzero"/></g></g></g><g clip-path="url(#9d70b9c357)"><g clip-path="url(#8eca2e7705)"><g clip-path="url(#b07c22528c)"><path fill="#0558ee" d="M 270.476562 13.007812 C 277.1875 16.144531 284.230469 20.289062 283.90625 21.515625 C 283.535156 21.648438 282.761719 21.917969 276.796875 19.246094 C 276.515625 19.121094 244.929688 4.15625 244.546875 3.902344 L 244.785156 3.867188 C 247.015625 4.277344 258.640625 7.476562 270.476562 13.007812 " fill-opacity="1" fill-rule="nonzero"/></g></g></g><g clip-path="url(#19f708b868)"><g clip-path="url(#5d1e76e97c)"><g clip-path="url(#a6bf813beb)"><path fill="#0558ee" d="M 79.417969 39.996094 C 67.101562 50.667969 60.207031 55.628906 58.925781 54.746094 C 58.40625 50.175781 86.179688 28.257812 93.917969 25.953125 L 94.207031 25.9375 C 94.269531 26.46875 94.347656 27.0625 79.417969 39.996094 " fill-opacity="1" fill-rule="nonzero"/></g></g></g><g clip-path="url(#e18a75ac87)"><g clip-path="url(#8d8974b3a5)"><g clip-path="url(#376bde1db1)"><path fill="#0558ee" d="M 105.085938 38.011719 C 92.957031 50.511719 79.226562 55.851562 79.070312 50.042969 C 78.855469 42.175781 101.035156 25.386719 111.160156 24.070312 C 118.460938 24.136719 105.21875 37.871094 105.085938 38.011719 " fill-opacity="1" fill-rule="nonzero"/></g></g></g><g clip-path="url(#a93f0a267a)"><g clip-path="url(#93085c5fbe)"><g clip-path="url(#f956e51b11)"><path fill="#0558ee" d="M 144.542969 36.953125 C 136.003906 50.542969 116.230469 55.046875 113.71875 46.449219 C 111.277344 38.089844 127.730469 23.773438 140.808594 22.886719 C 150.941406 23.179688 146.941406 33.140625 144.542969 36.953125 " fill-opacity="1" fill-rule="nonzero"/></g></g></g><g clip-path="url(#90f57fad98)"><g clip-path="url(#5130f20a68)"><g clip-path="url(#bd7edd347a)"><path fill="#0558ee" d="M 189.796875 37.050781 C 186.917969 51.515625 165.242188 54.707031 159.394531 44.726562 C 154.355469 36.125 165.289062 23.121094 177.960938 22.632812 C 188.003906 23.152344 190.929688 31.375 189.796875 37.050781 " fill-opacity="1" fill-rule="nonzero"/></g></g></g><g clip-path="url(#d8e2d3a73a)"><g clip-path="url(#fd8aab8db5)"><g clip-path="url(#a9c015ba7a)"><path fill="#0558ee" d="M 235.050781 38.199219 C 237.902344 50.082031 222.992188 54.894531 212.320312 48.386719 C 200.535156 41.199219 202.441406 26.492188 212.6875 23.730469 C 214.109375 23.347656 215.40625 23.328125 216.453125 23.3125 C 226.894531 24.085938 233.726562 32.652344 235.050781 38.199219 " fill-opacity="1" fill-rule="nonzero"/></g></g></g><g clip-path="url(#a054142ad7)"><g clip-path="url(#c7abc09cac)"><g clip-path="url(#70392382a9)"><path fill="#0558ee" d="M 275.695312 40.257812 C 281.277344 49.074219 276.863281 55.304688 266.78125 52.84375 C 251.578125 49.128906 240.832031 29.828125 248.566406 25.503906 C 249.847656 24.789062 251.082031 24.789062 252.386719 24.792969 C 261.324219 25.726562 271.445312 33.550781 275.695312 40.257812 " fill-opacity="1" fill-rule="nonzero"/></g></g></g><g clip-path="url(#afccee4043)"><g clip-path="url(#e66dadfd44)"><g clip-path="url(#a30bba46f9)"><path fill="#0558ee" d="M 307.042969 43.082031 C 314.234375 50.777344 315.214844 56.796875 309.195312 56.222656 C 296.976562 55.070312 275.296875 30.472656 279.929688 27.273438 C 280.4375 26.925781 281.238281 26.945312 281.878906 26.964844 C 288.984375 28.101562 300.625 36.214844 307.042969 43.082031 " fill-opacity="1" fill-rule="nonzero"/></g></g></g><g clip-path="url(#f4bc5f8c4e)"><g clip-path="url(#2d21274b5a)"><g clip-path="url(#63838acff4)"><path fill="#0558ee" d="M 322.90625 46.167969 C 328.558594 51.347656 334.496094 57.746094 334.164062 59.554688 C 330.574219 61.6875 299.835938 30.089844 299.753906 29.636719 C 299.882812 29.613281 300.054688 29.578125 300.183594 29.554688 C 303.203125 30.5625 313.3125 37.371094 322.90625 46.167969 " fill-opacity="1" fill-rule="nonzero"/></g></g></g><g clip-path="url(#6316ec3d1d)"><g clip-path="url(#70d65f9348)"><g clip-path="url(#3395de887a)"><path fill="#0558ee" d="M 36.519531 82.132812 C 24.8125 99.65625 23.273438 100.902344 22.691406 101.367188 L 22.511719 101.210938 C 22.671875 100.667969 22.847656 100.171875 23.835938 98.335938 L 23.886719 98.246094 C 34.058594 81.101562 34.058594 81.101562 40.152344 73.113281 L 46.601562 65.105469 C 47.886719 63.601562 48.21875 63.3125 48.605469 63.007812 L 48.730469 63.136719 C 48.449219 63.824219 47.984375 64.96875 36.519531 82.132812 " fill-opacity="1" fill-rule="nonzero"/></g></g></g><g clip-path="url(#db0cf1be82)"><g clip-path="url(#2df6869840)"><g clip-path="url(#8a9279fbc0)"><path fill="#0558ee" d="M 59.695312 79.132812 C 50.929688 93.253906 38.820312 102.210938 36.960938 95.941406 C 34.480469 87.578125 53.289062 62.085938 63.441406 60.046875 C 69.355469 60.023438 64.28125 71.738281 59.695312 79.132812 " fill-opacity="1" fill-rule="nonzero"/></g></g></g><g clip-path="url(#874c3f0798)"><g clip-path="url(#b1c33892f2)"><g clip-path="url(#2e654c2c73)"><path fill="#0558ee" d="M 102.003906 77.132812 C 94.136719 93.175781 73.1875 101.445312 69.515625 89.953125 C 66.210938 79.609375 80.996094 59.363281 96.027344 57.882812 C 106.554688 58.109375 105.859375 69.273438 102.003906 77.132812 " fill-opacity="1" fill-rule="nonzero"/></g></g></g><g clip-path="url(#e0f5602b71)"><g clip-path="url(#f13ff1e7c5)"><g clip-path="url(#8897a03821)"><path fill="#0558ee" d="M 157.726562 76.511719 C 152.980469 93.425781 127.671875 100.503906 120.113281 87.023438 C 114.042969 76.210938 125.871094 57.824219 143.738281 56.859375 C 157.773438 57.453125 159.765625 69.226562 157.726562 76.511719 " fill-opacity="1" fill-rule="nonzero"/></g></g></g><g clip-path="url(#76e64620c0)"><g clip-path="url(#e4aacbf2c2)"><g clip-path="url(#083da7f667)"><path fill="#0558ee" d="M 216.472656 77.332031 C 215.757812 93.6875 193.371094 100.730469 181.246094 88.414062 C 170.574219 77.574219 177.757812 57.722656 196.730469 57.171875 C 210.910156 58.085938 216.816406 69.511719 216.472656 77.332031 " fill-opacity="1" fill-rule="nonzero"/></g></g></g><g clip-path="url(#431f4cbabc)"><g clip-path="url(#38eb75d351)"><g clip-path="url(#36373e0d78)"><path fill="#0558ee" d="M 272.261719 79.410156 C 275.046875 94.011719 259.449219 101.539062 245.347656 92.398438 C 229.304688 82.003906 231.726562 61.246094 245.507812 58.890625 C 246.511719 58.722656 247.875 58.699219 248.890625 58.6875 C 262.519531 59.917969 270.757812 71.546875 272.261719 79.410156 " fill-opacity="1" fill-rule="nonzero"/></g></g></g><g clip-path="url(#2bc004f463)"><g clip-path="url(#261fee1b5e)"><g clip-path="url(#133a703ad7)"><path fill="#0558ee" d="M 319.152344 82.566406 C 324.011719 94.824219 317.214844 102.621094 305.683594 98.011719 C 288.078125 90.980469 280.28125 65.699219 290.976562 61.707031 C 292.320312 61.207031 293.710938 61.222656 294.828125 61.234375 C 306.25 62.738281 316.09375 74.851562 319.152344 82.566406 " fill-opacity="1" fill-rule="nonzero"/></g></g></g><g clip-path="url(#8ee7eee247)"><g clip-path="url(#42da6769f0)"><g clip-path="url(#7f4b39a881)"><path fill="#0558ee" d="M 350.328125 86.472656 C 356.3125 97.367188 356.0625 104.941406 349.785156 103.011719 C 338.113281 99.421875 319.484375 67.585938 327.394531 64.734375 C 327.832031 64.574219 328.480469 64.609375 328.945312 64.625 C 336.355469 66.328125 345.90625 78.429688 350.328125 86.472656 " fill-opacity="1" fill-rule="nonzero"/></g></g></g><g clip-path="url(#0187b6502d)"><g clip-path="url(#f5b39ca8ec)"><g clip-path="url(#32204d21fe)"><path fill="#0558ee" d="M 368.25 105.558594 C 368.746094 106.617188 368.839844 106.960938 368.933594 107.292969 L 368.757812 107.445312 C 366.070312 105.050781 345.210938 71.289062 344.089844 68.320312 L 344.207031 68.195312 C 344.621094 68.550781 344.792969 68.730469 345.828125 70.007812 L 352.238281 78.550781 C 363.125 95.238281 363.125 95.238281 367.605469 104.234375 L 367.898438 104.828125 C 368.003906 105.046875 368.148438 105.335938 368.25 105.558594 " fill-opacity="1" fill-rule="nonzero"/></g></g></g><g clip-path="url(#07287c0df2)"><g clip-path="url(#8d4cf164af)"><g clip-path="url(#a984f40517)"><path fill="#0558ee" d="M 24.625 127.898438 C 19.472656 143.398438 12.003906 153.824219 9.832031 148.558594 C 6.777344 141.152344 17.765625 107.980469 26.074219 105.035156 C 30.59375 104.917969 27.582031 118.996094 24.625 127.898438 " fill-opacity="1" fill-rule="nonzero"/></g></g></g><g clip-path="url(#e358ac3bcc)"><g clip-path="url(#0fb7c47548)"><g clip-path="url(#ccd6916011)"><path fill="#0558ee" d="M 61.929688 125.011719 C 56.324219 143.242188 40.324219 153.152344 34.757812 141.839844 C 29.039062 130.214844 40.019531 104.003906 54.425781 101.941406 C 64.453125 102.074219 64.855469 115.511719 61.929688 125.011719 " fill-opacity="1" fill-rule="nonzero"/></g></g></g><g clip-path="url(#728f836388)"><g clip-path="url(#d50ce796b4)"><g clip-path="url(#0ad81118c6)"><path fill="#0558ee" d="M 119.28125 123.476562 C 114.472656 143.539062 88.917969 151.976562 80.21875 136.378906 C 72.882812 123.222656 83.910156 101.417969 103.160156 99.988281 C 118.886719 100.496094 121.390625 114.660156 119.28125 123.476562 " fill-opacity="1" fill-rule="nonzero"/></g></g></g><g clip-path="url(#185bf5bf89)"><g clip-path="url(#8363ab7094)"><g clip-path="url(#a2bf67d43c)"><path fill="#0558ee" d="M 185.054688 123.613281 C 182.242188 143.898438 155.488281 151.546875 143.570312 135.472656 C 133.855469 122.378906 143.425781 100.460938 164.25 99.578125 C 180.773438 100.488281 186.363281 114.179688 185.054688 123.613281 " fill-opacity="1" fill-rule="nonzero"/></g></g></g><g clip-path="url(#54aa00ee4a)"><g clip-path="url(#8fe0b6ab35)"><g clip-path="url(#0284502793)"><path fill="#0558ee" d="M 309.902344 128.277344 C 311.453125 146.503906 293.527344 154.464844 279.464844 141.792969 C 264.535156 128.34375 267.816406 104.136719 284.703125 103.128906 C 285.277344 103.09375 286.042969 103.128906 286.617188 103.128906 C 301.34375 104.761719 309.101562 118.820312 309.902344 128.277344 " fill-opacity="1" fill-rule="nonzero"/></g></g></g><g clip-path="url(#6710f2fb3d)"><g clip-path="url(#bf6e1c9521)"><g clip-path="url(#f998a2193c)"><path fill="#0558ee" d="M 5.570312 186.898438 C 5.339844 195.550781 4.445312 210.242188 2.542969 210.414062 C 1.921875 209.84375 1.226562 208.058594 0.773438 199.132812 L 0.617188 186.984375 L 1.429688 172.222656 C 2.371094 162.546875 3.273438 161.585938 3.660156 161.171875 L 3.914062 161.152344 C 5.714844 162.847656 5.804688 178.132812 5.570312 186.898438 " fill-opacity="1" fill-rule="nonzero"/></g></g></g><g clip-path="url(#399ff0dc9d)"><g clip-path="url(#1de8034818)"><g clip-path="url(#09e332d3c3)"><path fill="#0558ee" d="M 32.972656 183.347656 C 31.90625 200.792969 23.519531 211.707031 16.941406 204.195312 C 8.15625 194.167969 10.484375 160.113281 22.835938 157.347656 C 30.917969 157.394531 33.628906 172.582031 32.972656 183.347656 " fill-opacity="1" fill-rule="nonzero"/></g></g></g><g clip-path="url(#22f312205a)"><g clip-path="url(#f3caf1a814)"><g clip-path="url(#81a240df02)"><path fill="#0558ee" d="M 83 180.984375 C 81.066406 201.351562 61.847656 211.1875 51.363281 197.175781 C 41.042969 183.378906 47.183594 156.457031 64.945312 154.554688 C 79.09375 154.929688 84.019531 170.238281 83 180.984375 " fill-opacity="1" fill-rule="nonzero"/></g></g></g><g clip-path="url(#2748a51ac6)"><g clip-path="url(#192c47db42)"><g clip-path="url(#387b1ae128)"><path fill="#0558ee" d="M 148.878906 180.25 C 146.484375 201.835938 120.890625 210.265625 108.003906 193.714844 C 96.699219 179.199219 104.859375 154.527344 126.605469 153.226562 C 144.914062 154.085938 149.988281 170.257812 148.878906 180.25 " fill-opacity="1" fill-rule="nonzero"/></g></g></g><g clip-path="url(#1908791c55)"><g clip-path="url(#ddbef180e4)"><g clip-path="url(#b86a2981a9)"><path fill="#0558ee" d="M 218.335938 181.214844 C 215.824219 202.90625 189.269531 210.703125 175.9375 193.671875 C 164.339844 178.867188 172.746094 154.390625 195.082031 153.636719 C 214.199219 154.957031 219.492188 171.253906 218.335938 181.214844 " fill-opacity="1" fill-rule="nonzero"/></g></g></g><g clip-path="url(#6b6e2afb56)"><g clip-path="url(#6def439209)"><g clip-path="url(#f463259be2)"><path fill="#0558ee" d="M 25.015625 246.113281 C 28.214844 258.617188 28.050781 270.09375 22.699219 266.558594 C 14.527344 261.15625 3.113281 225.019531 11.261719 221.710938 C 16.425781 221.636719 22.417969 235.933594 25.015625 246.113281 " fill-opacity="1" fill-rule="nonzero"/></g></g></g><g clip-path="url(#206a15e3dc)"><g clip-path="url(#8b684de0b5)"><g clip-path="url(#89461d8428)"><path fill="#0558ee" d="M 61.78125 243.269531 C 64.214844 259.066406 56.050781 268.648438 45.898438 261.90625 C 31.238281 252.167969 27.320312 221.820312 40.3125 218.609375 C 40.730469 218.503906 41.316406 218.453125 41.742188 218.386719 C 52.949219 218.582031 60.207031 233.054688 61.78125 243.269531 " fill-opacity="1" fill-rule="nonzero"/></g></g></g><g clip-path="url(#aeecf08d07)"><g clip-path="url(#f8d2b5350e)"><g clip-path="url(#46d41f2dc6)"><path fill="#0558ee" d="M 118.296875 241.753906 C 118.785156 260.484375 100.101562 268.777344 86.050781 256.070312 C 72.902344 244.171875 72.601562 217.992188 94.148438 216.289062 C 110.363281 216.863281 118.03125 231.523438 118.296875 241.753906 " fill-opacity="1" fill-rule="nonzero"/></g></g></g><g clip-path="url(#2eb92be32a)"><g clip-path="url(#4afee25c95)"><g clip-path="url(#3665c8f286)"><path fill="#0558ee" d="M 183.117188 241.890625 C 181.03125 262.871094 155.855469 269.175781 142.914062 251.957031 C 132.3125 237.851562 139.265625 216.792969 159.824219 215.84375 C 177.574219 216.875 184.128906 231.699219 183.117188 241.890625 " fill-opacity="1" fill-rule="nonzero"/></g></g></g><g clip-path="url(#eb8f175a29)"><g clip-path="url(#0ad924626e)"><g clip-path="url(#13b3fbd4fc)"><path fill="#0558ee" d="M 39.03125 298.171875 C 45.953125 308.929688 49.164062 314.878906 48.566406 315.847656 C 44.53125 316.167969 20.59375 280.417969 22.699219 277.210938 C 25.277344 277.003906 36.757812 294.636719 39.03125 298.171875 " fill-opacity="1" fill-rule="nonzero"/></g></g></g><g clip-path="url(#23d233c4eb)"><g clip-path="url(#3195cc97e4)"><g clip-path="url(#01cea5db66)"><path fill="#0558ee" d="M 61.289062 295.289062 C 66.296875 305.222656 67.601562 314.488281 61.113281 312.789062 C 48.902344 309.589844 31.050781 279.84375 38.097656 274.441406 C 38.519531 274.117188 39.234375 273.929688 39.757812 273.804688 C 46.722656 273.832031 56.050781 284.890625 61.289062 295.289062 " fill-opacity="1" fill-rule="nonzero"/></g></g></g><g clip-path="url(#bf83a61359)"><g clip-path="url(#c7b6568050)"><g clip-path="url(#9af927acd6)"><path fill="#0558ee" d="M 101.921875 293.367188 C 105.703125 306.359375 98.660156 315.894531 85.355469 308.089844 C 68.1875 298.011719 61.808594 274.070312 75.605469 271.496094 C 76.085938 271.410156 76.734375 271.371094 77.21875 271.316406 C 89.925781 271.640625 99.3125 284.40625 101.921875 293.367188 " fill-opacity="1" fill-rule="nonzero"/></g></g></g><g clip-path="url(#be39858b99)"><g clip-path="url(#38790c2213)"><g clip-path="url(#9793346cfe)"><path fill="#0558ee" d="M 81.078125 336.820312 C 89.992188 345.375 93.753906 349.898438 92.257812 350.269531 C 86.140625 351.777344 53.9375 323.484375 57.800781 320 C 57.898438 319.90625 58.082031 319.863281 58.203125 319.808594 C 62.78125 319.738281 75.726562 331.683594 81.078125 336.820312 " fill-opacity="1" fill-rule="nonzero"/></g></g></g><g clip-path="url(#59b393e5f6)"><g clip-path="url(#322301f9d5)"><g clip-path="url(#0d814286b0)"><path fill="#0558ee" d="M 105.238281 334.949219 C 109.21875 340.21875 114.277344 348.984375 107.949219 348.445312 C 96.636719 347.484375 71.851562 324.917969 78.089844 318.367188 C 78.761719 317.664062 79.75 317.503906 80.546875 317.371094 C 88.472656 317.503906 98.902344 326.574219 105.238281 334.949219 " fill-opacity="1" fill-rule="nonzero"/></g></g></g><g clip-path="url(#fb38661ab7)"><g clip-path="url(#29a77a61ca)"><g clip-path="url(#458c1b8604)"><path fill="#0558ee" d="M 142.371094 333.957031 C 146.105469 344.089844 141.539062 351.164062 129.019531 345.117188 C 112.882812 337.316406 104.847656 319.519531 115.996094 316.261719 C 116.855469 316.011719 118.066406 315.90625 118.960938 315.832031 C 131.402344 316.269531 139.777344 326.910156 142.371094 333.957031 " fill-opacity="1" fill-rule="nonzero"/></g></g></g><g clip-path="url(#54d0b3eea5)"><g clip-path="url(#a7f656a567)"><g clip-path="url(#16a1f9ccb6)"><path fill="#0558ee" d="M 184.964844 334.046875 C 184.316406 347.160156 170.089844 352.496094 159.121094 339.570312 C 150.675781 329.625 153.035156 316.167969 167.113281 315.507812 C 178.828125 316.1875 185.390625 325.46875 184.964844 334.046875 " fill-opacity="1" fill-rule="nonzero"/></g></g></g><g clip-path="url(#28c8caaed7)"><g clip-path="url(#90654ac87c)"><g clip-path="url(#c7e79930ca)"><path fill="#0558ee" d="M 131.007812 366.109375 C 144.257812 373.5625 144.257812 373.5625 144.664062 374 C 144.605469 374.066406 144.535156 374.148438 144.480469 374.210938 C 134.703125 374.074219 101.136719 357.042969 105.4375 354.410156 C 105.554688 354.339844 105.746094 354.324219 105.875 354.285156 C 110.066406 354.320312 119.769531 359.78125 131.007812 366.109375 " fill-opacity="1" fill-rule="nonzero"/></g></g></g><g clip-path="url(#2821b72b33)"><g clip-path="url(#9147c4e2b6)"><g clip-path="url(#fa290dff1a)"><path fill="#0558ee" d="M 149.632812 365.226562 C 158.890625 373.296875 156.605469 373.421875 155.855469 373.460938 C 148.101562 373.871094 120.273438 358.257812 124.789062 353.578125 C 125.265625 353.082031 126.148438 352.976562 126.792969 352.898438 C 135.136719 353.136719 146.386719 362.394531 149.632812 365.226562 " fill-opacity="1" fill-rule="nonzero"/></g></g></g><g clip-path="url(#9672a5e0ce)"><g clip-path="url(#cdae97f9ee)"><g clip-path="url(#bdfe3a9dee)"><path fill="#0558ee" d="M 174.15625 364.953125 C 175.25 367.6875 177.992188 376.257812 167.453125 371.75 C 155.175781 366.503906 147.855469 355.894531 154.394531 352.84375 C 155.398438 352.371094 156.566406 352.296875 157.421875 352.238281 C 165.589844 352.640625 171.824219 359.113281 174.15625 364.953125 " fill-opacity="1" fill-rule="nonzero"/></g></g></g><g clip-path="url(#b259972075)"><g clip-path="url(#3c1f0527ba)"><g clip-path="url(#85acdf8450)"><path fill="#0558ee" d="M 200.015625 365.3125 C 196.554688 374.542969 187.179688 376.609375 182.683594 366.003906 C 180.019531 359.710938 182.898438 352.761719 191.4375 352.441406 C 199.605469 353.035156 202.210938 359.453125 200.015625 365.3125 " fill-opacity="1" fill-rule="nonzero"/></g></g></g><g clip-path="url(#9dda282c31)"><g clip-path="url(#b81bf9d3c1)"><g clip-path="url(#110e3cd937)"><path fill="#0558ee" d="M 224.570312 366.230469 C 221.738281 368.710938 205.847656 379.371094 206.789062 369.90625 C 207.449219 363.292969 214.839844 353.578125 224.921875 353.414062 C 232.4375 354.191406 230.769531 360.789062 224.570312 366.230469 " fill-opacity="1" fill-rule="nonzero"/></g></g></g><g clip-path="url(#323c996606)"><g clip-path="url(#5079dbe83e)"><g clip-path="url(#709a3b25b8)"><path fill="#0558ee" d="M 245.210938 367.621094 C 237.082031 372.027344 223.945312 376.324219 224.441406 373.914062 C 224.890625 371.695312 243.34375 355 254.410156 355.046875 C 259.554688 355.84375 255.5 360.617188 251.511719 363.632812 C 249.75 364.964844 247.632812 366.304688 245.210938 367.621094 " fill-opacity="1" fill-rule="nonzero"/></g></g></g></svg>