<svg xmlns="http://www.w3.org/2000/svg" xmlns:xlink="http://www.w3.org/1999/xlink" width="500" zoomAndPan="magnify" viewBox="0 0 375 374.999991" height="500" preserveAspectRatio="xMidYMid meet" version="1.0"><defs><g/><clipPath id="94f2abd7e4"><path d="M 55 136 L 67 136 L 67 141 L 55 141 Z M 55 136 " clip-rule="nonzero"/></clipPath><clipPath id="d3440b3466"><path d="M 1.882812 177.042969 L 92.046875 112.300781 L 153.726562 198.199219 L 63.5625 262.941406 Z M 1.882812 177.042969 " clip-rule="nonzero"/></clipPath><clipPath id="89dfc089e7"><path d="M 1.882812 177.042969 L 92.046875 112.300781 L 153.726562 198.199219 L 63.5625 262.941406 Z M 1.882812 177.042969 " clip-rule="nonzero"/></clipPath><clipPath id="22343b9efa"><path d="M 61 135 L 71 135 L 71 141 L 61 141 Z M 61 135 " clip-rule="nonzero"/></clipPath><clipPath id="c17da80574"><path d="M 1.882812 177.042969 L 92.046875 112.300781 L 153.726562 198.199219 L 63.5625 262.941406 Z M 1.882812 177.042969 " clip-rule="nonzero"/></clipPath><clipPath id="7612d79376"><path d="M 1.882812 177.042969 L 92.046875 112.300781 L 153.726562 198.199219 L 63.5625 262.941406 Z M 1.882812 177.042969 " clip-rule="nonzero"/></clipPath><clipPath id="153c7c7575"><path d="M 69 135 L 76 135 L 76 141 L 69 141 Z M 69 135 " clip-rule="nonzero"/></clipPath><clipPath id="174c6ecfb0"><path d="M 1.882812 177.042969 L 92.046875 112.300781 L 153.726562 198.199219 L 63.5625 262.941406 Z M 1.882812 177.042969 " clip-rule="nonzero"/></clipPath><clipPath id="7203169618"><path d="M 1.882812 177.042969 L 92.046875 112.300781 L 153.726562 198.199219 L 63.5625 262.941406 Z M 1.882812 177.042969 " clip-rule="nonzero"/></clipPath><clipPath id="78dc077b55"><path d="M 77 135 L 84 135 L 84 141 L 77 141 Z M 77 135 " clip-rule="nonzero"/></clipPath><clipPath id="896c2087b2"><path d="M 1.882812 177.042969 L 92.046875 112.300781 L 153.726562 198.199219 L 63.5625 262.941406 Z M 1.882812 177.042969 " clip-rule="nonzero"/></clipPath><clipPath id="1cb545615d"><path d="M 1.882812 177.042969 L 92.046875 112.300781 L 153.726562 198.199219 L 63.5625 262.941406 Z M 1.882812 177.042969 " clip-rule="nonzero"/></clipPath><clipPath id="4d7de66a6b"><path d="M 85 135 L 92 135 L 92 141 L 85 141 Z M 85 135 " clip-rule="nonzero"/></clipPath><clipPath id="89f59b3835"><path d="M 1.882812 177.042969 L 92.046875 112.300781 L 153.726562 198.199219 L 63.5625 262.941406 Z M 1.882812 177.042969 " clip-rule="nonzero"/></clipPath><clipPath id="9a9e54cba3"><path d="M 1.882812 177.042969 L 92.046875 112.300781 L 153.726562 198.199219 L 63.5625 262.941406 Z M 1.882812 177.042969 " clip-rule="nonzero"/></clipPath><clipPath id="0e070f38cb"><path d="M 90 136 L 100 136 L 100 141 L 90 141 Z M 90 136 " clip-rule="nonzero"/></clipPath><clipPath id="b2eeb56f07"><path d="M 1.882812 177.042969 L 92.046875 112.300781 L 153.726562 198.199219 L 63.5625 262.941406 Z M 1.882812 177.042969 " clip-rule="nonzero"/></clipPath><clipPath id="8501737cc9"><path d="M 1.882812 177.042969 L 92.046875 112.300781 L 153.726562 198.199219 L 63.5625 262.941406 Z M 1.882812 177.042969 " clip-rule="nonzero"/></clipPath><clipPath id="0d7a064173"><path d="M 93 136 L 106 136 L 106 142 L 93 142 Z M 93 136 " clip-rule="nonzero"/></clipPath><clipPath id="d3dadf8148"><path d="M 1.882812 177.042969 L 92.046875 112.300781 L 153.726562 198.199219 L 63.5625 262.941406 Z M 1.882812 177.042969 " clip-rule="nonzero"/></clipPath><clipPath id="c13180330e"><path d="M 1.882812 177.042969 L 92.046875 112.300781 L 153.726562 198.199219 L 63.5625 262.941406 Z M 1.882812 177.042969 " clip-rule="nonzero"/></clipPath><clipPath id="89d42820d8"><path d="M 40 142 L 51 142 L 51 152 L 40 152 Z M 40 142 " clip-rule="nonzero"/></clipPath><clipPath id="7221fd7d31"><path d="M 1.882812 177.042969 L 92.046875 112.300781 L 153.726562 198.199219 L 63.5625 262.941406 Z M 1.882812 177.042969 " clip-rule="nonzero"/></clipPath><clipPath id="cac2d53d26"><path d="M 1.882812 177.042969 L 92.046875 112.300781 L 153.726562 198.199219 L 63.5625 262.941406 Z M 1.882812 177.042969 " clip-rule="nonzero"/></clipPath><clipPath id="f263f957a8"><path d="M 46 142 L 57 142 L 57 151 L 46 151 Z M 46 142 " clip-rule="nonzero"/></clipPath><clipPath id="be166db1a6"><path d="M 1.882812 177.042969 L 92.046875 112.300781 L 153.726562 198.199219 L 63.5625 262.941406 Z M 1.882812 177.042969 " clip-rule="nonzero"/></clipPath><clipPath id="ba8faab60b"><path d="M 1.882812 177.042969 L 92.046875 112.300781 L 153.726562 198.199219 L 63.5625 262.941406 Z M 1.882812 177.042969 " clip-rule="nonzero"/></clipPath><clipPath id="168cc4e014"><path d="M 56 141 L 67 141 L 67 150 L 56 150 Z M 56 141 " clip-rule="nonzero"/></clipPath><clipPath id="40be38c504"><path d="M 1.882812 177.042969 L 92.046875 112.300781 L 153.726562 198.199219 L 63.5625 262.941406 Z M 1.882812 177.042969 " clip-rule="nonzero"/></clipPath><clipPath id="ef706f3288"><path d="M 1.882812 177.042969 L 92.046875 112.300781 L 153.726562 198.199219 L 63.5625 262.941406 Z M 1.882812 177.042969 " clip-rule="nonzero"/></clipPath><clipPath id="841e4c457e"><path d="M 69 141 L 79 141 L 79 150 L 69 150 Z M 69 141 " clip-rule="nonzero"/></clipPath><clipPath id="d9d8e96617"><path d="M 1.882812 177.042969 L 92.046875 112.300781 L 153.726562 198.199219 L 63.5625 262.941406 Z M 1.882812 177.042969 " clip-rule="nonzero"/></clipPath><clipPath id="19239057ff"><path d="M 1.882812 177.042969 L 92.046875 112.300781 L 153.726562 198.199219 L 63.5625 262.941406 Z M 1.882812 177.042969 " clip-rule="nonzero"/></clipPath><clipPath id="c9b2e72fc5"><path d="M 82 142 L 92 142 L 92 151 L 82 151 Z M 82 142 " clip-rule="nonzero"/></clipPath><clipPath id="6ce77fe2d3"><path d="M 1.882812 177.042969 L 92.046875 112.300781 L 153.726562 198.199219 L 63.5625 262.941406 Z M 1.882812 177.042969 " clip-rule="nonzero"/></clipPath><clipPath id="af616c4d29"><path d="M 1.882812 177.042969 L 92.046875 112.300781 L 153.726562 198.199219 L 63.5625 262.941406 Z M 1.882812 177.042969 " clip-rule="nonzero"/></clipPath><clipPath id="c2564634a8"><path d="M 94 142 L 104 142 L 104 151 L 94 151 Z M 94 142 " clip-rule="nonzero"/></clipPath><clipPath id="3a2dc34937"><path d="M 1.882812 177.042969 L 92.046875 112.300781 L 153.726562 198.199219 L 63.5625 262.941406 Z M 1.882812 177.042969 " clip-rule="nonzero"/></clipPath><clipPath id="f116e3dc33"><path d="M 1.882812 177.042969 L 92.046875 112.300781 L 153.726562 198.199219 L 63.5625 262.941406 Z M 1.882812 177.042969 " clip-rule="nonzero"/></clipPath><clipPath id="283ef019b7"><path d="M 103 143 L 114 143 L 114 152 L 103 152 Z M 103 143 " clip-rule="nonzero"/></clipPath><clipPath id="a2367f95ab"><path d="M 1.882812 177.042969 L 92.046875 112.300781 L 153.726562 198.199219 L 63.5625 262.941406 Z M 1.882812 177.042969 " clip-rule="nonzero"/></clipPath><clipPath id="f96d3b26a5"><path d="M 1.882812 177.042969 L 92.046875 112.300781 L 153.726562 198.199219 L 63.5625 262.941406 Z M 1.882812 177.042969 " clip-rule="nonzero"/></clipPath><clipPath id="3200937c13"><path d="M 109 143 L 120 143 L 120 153 L 109 153 Z M 109 143 " clip-rule="nonzero"/></clipPath><clipPath id="2c49d086a6"><path d="M 1.882812 177.042969 L 92.046875 112.300781 L 153.726562 198.199219 L 63.5625 262.941406 Z M 1.882812 177.042969 " clip-rule="nonzero"/></clipPath><clipPath id="38166664f3"><path d="M 1.882812 177.042969 L 92.046875 112.300781 L 153.726562 198.199219 L 63.5625 262.941406 Z M 1.882812 177.042969 " clip-rule="nonzero"/></clipPath><clipPath id="44d312d58d"><path d="M 30 153 L 39 153 L 39 165 L 30 165 Z M 30 153 " clip-rule="nonzero"/></clipPath><clipPath id="022512290d"><path d="M 1.882812 177.042969 L 92.046875 112.300781 L 153.726562 198.199219 L 63.5625 262.941406 Z M 1.882812 177.042969 " clip-rule="nonzero"/></clipPath><clipPath id="7ac727cdb6"><path d="M 1.882812 177.042969 L 92.046875 112.300781 L 153.726562 198.199219 L 63.5625 262.941406 Z M 1.882812 177.042969 " clip-rule="nonzero"/></clipPath><clipPath id="2449cfbd46"><path d="M 34 152 L 43 152 L 43 164 L 34 164 Z M 34 152 " clip-rule="nonzero"/></clipPath><clipPath id="89cf763fdf"><path d="M 1.882812 177.042969 L 92.046875 112.300781 L 153.726562 198.199219 L 63.5625 262.941406 Z M 1.882812 177.042969 " clip-rule="nonzero"/></clipPath><clipPath id="7e7623be6c"><path d="M 1.882812 177.042969 L 92.046875 112.300781 L 153.726562 198.199219 L 63.5625 262.941406 Z M 1.882812 177.042969 " clip-rule="nonzero"/></clipPath><clipPath id="a237abd5fd"><path d="M 43 151 L 54 151 L 54 163 L 43 163 Z M 43 151 " clip-rule="nonzero"/></clipPath><clipPath id="727e922021"><path d="M 1.882812 177.042969 L 92.046875 112.300781 L 153.726562 198.199219 L 63.5625 262.941406 Z M 1.882812 177.042969 " clip-rule="nonzero"/></clipPath><clipPath id="8cc035ab47"><path d="M 1.882812 177.042969 L 92.046875 112.300781 L 153.726562 198.199219 L 63.5625 262.941406 Z M 1.882812 177.042969 " clip-rule="nonzero"/></clipPath><clipPath id="f8be56ae9d"><path d="M 57 151 L 70 151 L 70 163 L 57 163 Z M 57 151 " clip-rule="nonzero"/></clipPath><clipPath id="21f37b5fc0"><path d="M 1.882812 177.042969 L 92.046875 112.300781 L 153.726562 198.199219 L 63.5625 262.941406 Z M 1.882812 177.042969 " clip-rule="nonzero"/></clipPath><clipPath id="acfb9f94e1"><path d="M 1.882812 177.042969 L 92.046875 112.300781 L 153.726562 198.199219 L 63.5625 262.941406 Z M 1.882812 177.042969 " clip-rule="nonzero"/></clipPath><clipPath id="d6a88b3a67"><path d="M 74 151 L 86 151 L 86 163 L 74 163 Z M 74 151 " clip-rule="nonzero"/></clipPath><clipPath id="1b2a4634cd"><path d="M 1.882812 177.042969 L 92.046875 112.300781 L 153.726562 198.199219 L 63.5625 262.941406 Z M 1.882812 177.042969 " clip-rule="nonzero"/></clipPath><clipPath id="7ac84ef9c3"><path d="M 1.882812 177.042969 L 92.046875 112.300781 L 153.726562 198.199219 L 63.5625 262.941406 Z M 1.882812 177.042969 " clip-rule="nonzero"/></clipPath><clipPath id="1997a50eb2"><path d="M 91 152 L 103 152 L 103 164 L 91 164 Z M 91 152 " clip-rule="nonzero"/></clipPath><clipPath id="948510b09a"><path d="M 1.882812 177.042969 L 92.046875 112.300781 L 153.726562 198.199219 L 63.5625 262.941406 Z M 1.882812 177.042969 " clip-rule="nonzero"/></clipPath><clipPath id="3a92fd8f0e"><path d="M 1.882812 177.042969 L 92.046875 112.300781 L 153.726562 198.199219 L 63.5625 262.941406 Z M 1.882812 177.042969 " clip-rule="nonzero"/></clipPath><clipPath id="a607eedd99"><path d="M 105 152 L 116 152 L 116 164 L 105 164 Z M 105 152 " clip-rule="nonzero"/></clipPath><clipPath id="c709a6b8e9"><path d="M 1.882812 177.042969 L 92.046875 112.300781 L 153.726562 198.199219 L 63.5625 262.941406 Z M 1.882812 177.042969 " clip-rule="nonzero"/></clipPath><clipPath id="fd02d775c4"><path d="M 1.882812 177.042969 L 92.046875 112.300781 L 153.726562 198.199219 L 63.5625 262.941406 Z M 1.882812 177.042969 " clip-rule="nonzero"/></clipPath><clipPath id="62572edb5a"><path d="M 117 153 L 126 153 L 126 166 L 117 166 Z M 117 153 " clip-rule="nonzero"/></clipPath><clipPath id="67251b7efe"><path d="M 1.882812 177.042969 L 92.046875 112.300781 L 153.726562 198.199219 L 63.5625 262.941406 Z M 1.882812 177.042969 " clip-rule="nonzero"/></clipPath><clipPath id="cabdbfd55e"><path d="M 1.882812 177.042969 L 92.046875 112.300781 L 153.726562 198.199219 L 63.5625 262.941406 Z M 1.882812 177.042969 " clip-rule="nonzero"/></clipPath><clipPath id="fbe4f880b2"><path d="M 122 154 L 130 154 L 130 167 L 122 167 Z M 122 154 " clip-rule="nonzero"/></clipPath><clipPath id="8a8802082f"><path d="M 1.882812 177.042969 L 92.046875 112.300781 L 153.726562 198.199219 L 63.5625 262.941406 Z M 1.882812 177.042969 " clip-rule="nonzero"/></clipPath><clipPath id="89f2bf8fdc"><path d="M 1.882812 177.042969 L 92.046875 112.300781 L 153.726562 198.199219 L 63.5625 262.941406 Z M 1.882812 177.042969 " clip-rule="nonzero"/></clipPath><clipPath id="e38da97ee8"><path d="M 26 165 L 33 165 L 33 179 L 26 179 Z M 26 165 " clip-rule="nonzero"/></clipPath><clipPath id="6a65a8f6d2"><path d="M 1.882812 177.042969 L 92.046875 112.300781 L 153.726562 198.199219 L 63.5625 262.941406 Z M 1.882812 177.042969 " clip-rule="nonzero"/></clipPath><clipPath id="ac8092e519"><path d="M 1.882812 177.042969 L 92.046875 112.300781 L 153.726562 198.199219 L 63.5625 262.941406 Z M 1.882812 177.042969 " clip-rule="nonzero"/></clipPath><clipPath id="9652757331"><path d="M 33 164 L 43 164 L 43 178 L 33 178 Z M 33 164 " clip-rule="nonzero"/></clipPath><clipPath id="033a5ab71c"><path d="M 1.882812 177.042969 L 92.046875 112.300781 L 153.726562 198.199219 L 63.5625 262.941406 Z M 1.882812 177.042969 " clip-rule="nonzero"/></clipPath><clipPath id="2011eeab74"><path d="M 1.882812 177.042969 L 92.046875 112.300781 L 153.726562 198.199219 L 63.5625 262.941406 Z M 1.882812 177.042969 " clip-rule="nonzero"/></clipPath><clipPath id="930838579c"><path d="M 46 163 L 59 163 L 59 177 L 46 177 Z M 46 163 " clip-rule="nonzero"/></clipPath><clipPath id="959491cd5a"><path d="M 1.882812 177.042969 L 92.046875 112.300781 L 153.726562 198.199219 L 63.5625 262.941406 Z M 1.882812 177.042969 " clip-rule="nonzero"/></clipPath><clipPath id="2d0c0a3619"><path d="M 1.882812 177.042969 L 92.046875 112.300781 L 153.726562 198.199219 L 63.5625 262.941406 Z M 1.882812 177.042969 " clip-rule="nonzero"/></clipPath><clipPath id="c8146a41ca"><path d="M 64 163 L 78 163 L 78 177 L 64 177 Z M 64 163 " clip-rule="nonzero"/></clipPath><clipPath id="6819473e45"><path d="M 1.882812 177.042969 L 92.046875 112.300781 L 153.726562 198.199219 L 63.5625 262.941406 Z M 1.882812 177.042969 " clip-rule="nonzero"/></clipPath><clipPath id="6d6ed1fd77"><path d="M 1.882812 177.042969 L 92.046875 112.300781 L 153.726562 198.199219 L 63.5625 262.941406 Z M 1.882812 177.042969 " clip-rule="nonzero"/></clipPath><clipPath id="eb5fac9465"><path d="M 101 164 L 113 164 L 113 178 L 101 178 Z M 101 164 " clip-rule="nonzero"/></clipPath><clipPath id="2840f99b91"><path d="M 1.882812 177.042969 L 92.046875 112.300781 L 153.726562 198.199219 L 63.5625 262.941406 Z M 1.882812 177.042969 " clip-rule="nonzero"/></clipPath><clipPath id="da85ddfa99"><path d="M 1.882812 177.042969 L 92.046875 112.300781 L 153.726562 198.199219 L 63.5625 262.941406 Z M 1.882812 177.042969 " clip-rule="nonzero"/></clipPath><clipPath id="47587866b8"><path d="M 24 181 L 26 181 L 26 196 L 24 196 Z M 24 181 " clip-rule="nonzero"/></clipPath><clipPath id="cdaae5005d"><path d="M 1.882812 177.042969 L 92.046875 112.300781 L 153.726562 198.199219 L 63.5625 262.941406 Z M 1.882812 177.042969 " clip-rule="nonzero"/></clipPath><clipPath id="f04b2fafb4"><path d="M 1.882812 177.042969 L 92.046875 112.300781 L 153.726562 198.199219 L 63.5625 262.941406 Z M 1.882812 177.042969 " clip-rule="nonzero"/></clipPath><clipPath id="6ace43a480"><path d="M 27 180 L 34 180 L 34 195 L 27 195 Z M 27 180 " clip-rule="nonzero"/></clipPath><clipPath id="f62ef5548a"><path d="M 1.882812 177.042969 L 92.046875 112.300781 L 153.726562 198.199219 L 63.5625 262.941406 Z M 1.882812 177.042969 " clip-rule="nonzero"/></clipPath><clipPath id="5c05b8c9c8"><path d="M 1.882812 177.042969 L 92.046875 112.300781 L 153.726562 198.199219 L 63.5625 262.941406 Z M 1.882812 177.042969 " clip-rule="nonzero"/></clipPath><clipPath id="233b36b615"><path d="M 37 179 L 48 179 L 48 194 L 37 194 Z M 37 179 " clip-rule="nonzero"/></clipPath><clipPath id="ae7d5d833b"><path d="M 1.882812 177.042969 L 92.046875 112.300781 L 153.726562 198.199219 L 63.5625 262.941406 Z M 1.882812 177.042969 " clip-rule="nonzero"/></clipPath><clipPath id="30fbe864cc"><path d="M 1.882812 177.042969 L 92.046875 112.300781 L 153.726562 198.199219 L 63.5625 262.941406 Z M 1.882812 177.042969 " clip-rule="nonzero"/></clipPath><clipPath id="8b0cdc9ae6"><path d="M 53 179 L 67 179 L 67 194 L 53 194 Z M 53 179 " clip-rule="nonzero"/></clipPath><clipPath id="cad51e37a0"><path d="M 1.882812 177.042969 L 92.046875 112.300781 L 153.726562 198.199219 L 63.5625 262.941406 Z M 1.882812 177.042969 " clip-rule="nonzero"/></clipPath><clipPath id="a4a89a2b02"><path d="M 1.882812 177.042969 L 92.046875 112.300781 L 153.726562 198.199219 L 63.5625 262.941406 Z M 1.882812 177.042969 " clip-rule="nonzero"/></clipPath><clipPath id="f9fdf14d87"><path d="M 72 179 L 87 179 L 87 194 L 72 194 Z M 72 179 " clip-rule="nonzero"/></clipPath><clipPath id="06f8960530"><path d="M 1.882812 177.042969 L 92.046875 112.300781 L 153.726562 198.199219 L 63.5625 262.941406 Z M 1.882812 177.042969 " clip-rule="nonzero"/></clipPath><clipPath id="cadcbe15c6"><path d="M 1.882812 177.042969 L 92.046875 112.300781 L 153.726562 198.199219 L 63.5625 262.941406 Z M 1.882812 177.042969 " clip-rule="nonzero"/></clipPath><clipPath id="76b0f701f1"><path d="M 26 198 L 32 198 L 32 212 L 26 212 Z M 26 198 " clip-rule="nonzero"/></clipPath><clipPath id="c59eb9127e"><path d="M 1.882812 177.042969 L 92.046875 112.300781 L 153.726562 198.199219 L 63.5625 262.941406 Z M 1.882812 177.042969 " clip-rule="nonzero"/></clipPath><clipPath id="a2f58f3cd1"><path d="M 1.882812 177.042969 L 92.046875 112.300781 L 153.726562 198.199219 L 63.5625 262.941406 Z M 1.882812 177.042969 " clip-rule="nonzero"/></clipPath><clipPath id="ad086e9889"><path d="M 33 197 L 42 197 L 42 211 L 33 211 Z M 33 197 " clip-rule="nonzero"/></clipPath><clipPath id="507f736e4c"><path d="M 1.882812 177.042969 L 92.046875 112.300781 L 153.726562 198.199219 L 63.5625 262.941406 Z M 1.882812 177.042969 " clip-rule="nonzero"/></clipPath><clipPath id="0470324431"><path d="M 1.882812 177.042969 L 92.046875 112.300781 L 153.726562 198.199219 L 63.5625 262.941406 Z M 1.882812 177.042969 " clip-rule="nonzero"/></clipPath><clipPath id="4d430c66c5"><path d="M 46 197 L 58 197 L 58 211 L 46 211 Z M 46 197 " clip-rule="nonzero"/></clipPath><clipPath id="a91f27ab9e"><path d="M 1.882812 177.042969 L 92.046875 112.300781 L 153.726562 198.199219 L 63.5625 262.941406 Z M 1.882812 177.042969 " clip-rule="nonzero"/></clipPath><clipPath id="0072d8f798"><path d="M 1.882812 177.042969 L 92.046875 112.300781 L 153.726562 198.199219 L 63.5625 262.941406 Z M 1.882812 177.042969 " clip-rule="nonzero"/></clipPath><clipPath id="bc3d71d500"><path d="M 63 197 L 77 197 L 77 211 L 63 211 Z M 63 197 " clip-rule="nonzero"/></clipPath><clipPath id="7bb80058e0"><path d="M 1.882812 177.042969 L 92.046875 112.300781 L 153.726562 198.199219 L 63.5625 262.941406 Z M 1.882812 177.042969 " clip-rule="nonzero"/></clipPath><clipPath id="2f3251336f"><path d="M 1.882812 177.042969 L 92.046875 112.300781 L 153.726562 198.199219 L 63.5625 262.941406 Z M 1.882812 177.042969 " clip-rule="nonzero"/></clipPath><clipPath id="6d9c145810"><path d="M 30 214 L 39 214 L 39 226 L 30 226 Z M 30 214 " clip-rule="nonzero"/></clipPath><clipPath id="725da4ed2c"><path d="M 1.882812 177.042969 L 92.046875 112.300781 L 153.726562 198.199219 L 63.5625 262.941406 Z M 1.882812 177.042969 " clip-rule="nonzero"/></clipPath><clipPath id="4caa025d12"><path d="M 1.882812 177.042969 L 92.046875 112.300781 L 153.726562 198.199219 L 63.5625 262.941406 Z M 1.882812 177.042969 " clip-rule="nonzero"/></clipPath><clipPath id="df717f94b9"><path d="M 34 213 L 43 213 L 43 225 L 34 225 Z M 34 213 " clip-rule="nonzero"/></clipPath><clipPath id="3fa1939db5"><path d="M 1.882812 177.042969 L 92.046875 112.300781 L 153.726562 198.199219 L 63.5625 262.941406 Z M 1.882812 177.042969 " clip-rule="nonzero"/></clipPath><clipPath id="5a130a347b"><path d="M 1.882812 177.042969 L 92.046875 112.300781 L 153.726562 198.199219 L 63.5625 262.941406 Z M 1.882812 177.042969 " clip-rule="nonzero"/></clipPath><clipPath id="e1b3b5150c"><path d="M 43 213 L 54 213 L 54 225 L 43 225 Z M 43 213 " clip-rule="nonzero"/></clipPath><clipPath id="aa95979316"><path d="M 1.882812 177.042969 L 92.046875 112.300781 L 153.726562 198.199219 L 63.5625 262.941406 Z M 1.882812 177.042969 " clip-rule="nonzero"/></clipPath><clipPath id="37bd9acbb3"><path d="M 1.882812 177.042969 L 92.046875 112.300781 L 153.726562 198.199219 L 63.5625 262.941406 Z M 1.882812 177.042969 " clip-rule="nonzero"/></clipPath><clipPath id="f985129da1"><path d="M 40 226 L 51 226 L 51 236 L 40 236 Z M 40 226 " clip-rule="nonzero"/></clipPath><clipPath id="f611d6461f"><path d="M 1.882812 177.042969 L 92.046875 112.300781 L 153.726562 198.199219 L 63.5625 262.941406 Z M 1.882812 177.042969 " clip-rule="nonzero"/></clipPath><clipPath id="c52fb070f1"><path d="M 1.882812 177.042969 L 92.046875 112.300781 L 153.726562 198.199219 L 63.5625 262.941406 Z M 1.882812 177.042969 " clip-rule="nonzero"/></clipPath><clipPath id="37873aa7a1"><path d="M 46 226 L 56 226 L 56 236 L 46 236 Z M 46 226 " clip-rule="nonzero"/></clipPath><clipPath id="a4e8f9deda"><path d="M 1.882812 177.042969 L 92.046875 112.300781 L 153.726562 198.199219 L 63.5625 262.941406 Z M 1.882812 177.042969 " clip-rule="nonzero"/></clipPath><clipPath id="15dd184262"><path d="M 1.882812 177.042969 L 92.046875 112.300781 L 153.726562 198.199219 L 63.5625 262.941406 Z M 1.882812 177.042969 " clip-rule="nonzero"/></clipPath><clipPath id="f80c41fd14"><path d="M 55 225 L 66 225 L 66 235 L 55 235 Z M 55 225 " clip-rule="nonzero"/></clipPath><clipPath id="2f8ca1481d"><path d="M 1.882812 177.042969 L 92.046875 112.300781 L 153.726562 198.199219 L 63.5625 262.941406 Z M 1.882812 177.042969 " clip-rule="nonzero"/></clipPath><clipPath id="f2750357c3"><path d="M 1.882812 177.042969 L 92.046875 112.300781 L 153.726562 198.199219 L 63.5625 262.941406 Z M 1.882812 177.042969 " clip-rule="nonzero"/></clipPath><clipPath id="2f21e04a48"><path d="M 68 225 L 78 225 L 78 235 L 68 235 Z M 68 225 " clip-rule="nonzero"/></clipPath><clipPath id="b7833d5584"><path d="M 1.882812 177.042969 L 92.046875 112.300781 L 153.726562 198.199219 L 63.5625 262.941406 Z M 1.882812 177.042969 " clip-rule="nonzero"/></clipPath><clipPath id="2863cdc1f4"><path d="M 1.882812 177.042969 L 92.046875 112.300781 L 153.726562 198.199219 L 63.5625 262.941406 Z M 1.882812 177.042969 " clip-rule="nonzero"/></clipPath><clipPath id="7b0ca50cf5"><path d="M 54 236 L 66 236 L 66 243 L 54 243 Z M 54 236 " clip-rule="nonzero"/></clipPath><clipPath id="8f29775e20"><path d="M 1.882812 177.042969 L 92.046875 112.300781 L 153.726562 198.199219 L 63.5625 262.941406 Z M 1.882812 177.042969 " clip-rule="nonzero"/></clipPath><clipPath id="335d649869"><path d="M 1.882812 177.042969 L 92.046875 112.300781 L 153.726562 198.199219 L 63.5625 262.941406 Z M 1.882812 177.042969 " clip-rule="nonzero"/></clipPath><clipPath id="70b0b08206"><path d="M 59 236 L 70 236 L 70 243 L 59 243 Z M 59 236 " clip-rule="nonzero"/></clipPath><clipPath id="0a93b425d3"><path d="M 1.882812 177.042969 L 92.046875 112.300781 L 153.726562 198.199219 L 63.5625 262.941406 Z M 1.882812 177.042969 " clip-rule="nonzero"/></clipPath><clipPath id="1eee6e8312"><path d="M 1.882812 177.042969 L 92.046875 112.300781 L 153.726562 198.199219 L 63.5625 262.941406 Z M 1.882812 177.042969 " clip-rule="nonzero"/></clipPath><clipPath id="1a085bbeb0"><path d="M 67 236 L 75 236 L 75 243 L 67 243 Z M 67 236 " clip-rule="nonzero"/></clipPath><clipPath id="9ece2c1c02"><path d="M 1.882812 177.042969 L 92.046875 112.300781 L 153.726562 198.199219 L 63.5625 262.941406 Z M 1.882812 177.042969 " clip-rule="nonzero"/></clipPath><clipPath id="408791ba69"><path d="M 1.882812 177.042969 L 92.046875 112.300781 L 153.726562 198.199219 L 63.5625 262.941406 Z M 1.882812 177.042969 " clip-rule="nonzero"/></clipPath><clipPath id="19fe78bfc8"><path d="M 76 236 L 82 236 L 82 243 L 76 243 Z M 76 236 " clip-rule="nonzero"/></clipPath><clipPath id="78a021979c"><path d="M 1.882812 177.042969 L 92.046875 112.300781 L 153.726562 198.199219 L 63.5625 262.941406 Z M 1.882812 177.042969 " clip-rule="nonzero"/></clipPath><clipPath id="3dda6cf845"><path d="M 1.882812 177.042969 L 92.046875 112.300781 L 153.726562 198.199219 L 63.5625 262.941406 Z M 1.882812 177.042969 " clip-rule="nonzero"/></clipPath><clipPath id="f8d2256949"><path d="M 83 236 L 90 236 L 90 243 L 83 243 Z M 83 236 " clip-rule="nonzero"/></clipPath><clipPath id="cc228ac94e"><path d="M 1.882812 177.042969 L 92.046875 112.300781 L 153.726562 198.199219 L 63.5625 262.941406 Z M 1.882812 177.042969 " clip-rule="nonzero"/></clipPath><clipPath id="80efba4abf"><path d="M 1.882812 177.042969 L 92.046875 112.300781 L 153.726562 198.199219 L 63.5625 262.941406 Z M 1.882812 177.042969 " clip-rule="nonzero"/></clipPath><clipPath id="244e9108ee"><path d="M 88 237 L 98 237 L 98 243 L 88 243 Z M 88 237 " clip-rule="nonzero"/></clipPath><clipPath id="d9c4e4b41f"><path d="M 1.882812 177.042969 L 92.046875 112.300781 L 153.726562 198.199219 L 63.5625 262.941406 Z M 1.882812 177.042969 " clip-rule="nonzero"/></clipPath><clipPath id="bb8a6d1a9e"><path d="M 1.882812 177.042969 L 92.046875 112.300781 L 153.726562 198.199219 L 63.5625 262.941406 Z M 1.882812 177.042969 " clip-rule="nonzero"/></clipPath></defs><rect x="-37.5" width="450" fill="#ffffff" y="-37.499999" height="449.999989" fill-opacity="1"/><rect x="-37.5" width="450" fill="#ffffff" y="-37.499999" height="449.999989" fill-opacity="1"/><rect x="-37.5" width="450" fill="#f9fafb" y="-37.499999" height="449.999989" fill-opacity="1"/><rect x="-37.5" width="450" fill="#f9fafb" y="-37.499999" height="449.999989" fill-opacity="1"/><g clip-path="url(#94f2abd7e4)"><g clip-path="url(#d3440b3466)"><g clip-path="url(#89dfc089e7)"><path fill="#0558ee" d="M 61.992188 138.089844 C 56.265625 140.660156 55.925781 140.8125 55.570312 140.652344 C 55.976562 139.460938 64.03125 136.449219 66.945312 136.007812 C 66.828125 136.101562 66.828125 136.101562 66.238281 136.324219 C 65.066406 136.765625 63.894531 137.230469 61.992188 138.089844 " fill-opacity="1" fill-rule="nonzero"/></g></g></g><g clip-path="url(#22343b9efa)"><g clip-path="url(#c17da80574)"><g clip-path="url(#7612d79376)"><path fill="#0558ee" d="M 67.726562 137.824219 C 63.257812 140.53125 60.882812 140.675781 61.132812 139.847656 C 61.578125 138.378906 67.726562 135.992188 70.273438 135.789062 C 70.335938 135.792969 70.417969 135.796875 70.480469 135.808594 C 70.492188 135.832031 70.507812 135.863281 70.519531 135.886719 C 70.289062 136.273438 67.832031 137.761719 67.726562 137.824219 " fill-opacity="1" fill-rule="nonzero"/></g></g></g><g clip-path="url(#153c7c7575)"><g clip-path="url(#174c6ecfb0)"><g clip-path="url(#7203169618)"><path fill="#0558ee" d="M 75.285156 137.75 C 73.359375 140.257812 69.324219 140.691406 69.128906 139.296875 C 68.914062 137.765625 72.945312 135.789062 75.144531 135.691406 C 76.800781 135.753906 75.347656 137.671875 75.285156 137.75 " fill-opacity="1" fill-rule="nonzero"/></g></g></g><g clip-path="url(#78dc077b55)"><g clip-path="url(#896c2087b2)"><g clip-path="url(#1cb545615d)"><path fill="#0558ee" d="M 83.25 137.875 C 83.648438 139.921875 80.464844 140.839844 78.664062 139.65625 C 76.773438 138.410156 78.144531 136.183594 79.984375 135.789062 C 80.210938 135.738281 80.402344 135.738281 80.554688 135.734375 C 81.980469 135.816406 83.066406 136.910156 83.25 137.875 " fill-opacity="1" fill-rule="nonzero"/></g></g></g><g clip-path="url(#4d7de66a6b)"><g clip-path="url(#89f59b3835)"><g clip-path="url(#9a9e54cba3)"><path fill="#0558ee" d="M 90.816406 138.167969 C 92.203125 139.457031 91.769531 140.402344 90.496094 140.476562 C 87.425781 140.660156 84.261719 137.003906 85.269531 136.050781 C 85.429688 135.898438 85.6875 135.894531 85.878906 135.894531 C 87.175781 136 89.519531 136.960938 90.816406 138.167969 " fill-opacity="1" fill-rule="nonzero"/></g></g></g><g clip-path="url(#0e070f38cb)"><g clip-path="url(#b2eeb56f07)"><g clip-path="url(#8501737cc9)"><path fill="#0558ee" d="M 97.179688 138.605469 C 99.289062 139.8125 99.847656 140.757812 99.148438 140.941406 C 98.675781 141.066406 97.402344 140.824219 95.375 139.738281 C 93.664062 138.820312 90.300781 136.519531 90.320312 136.207031 C 90.378906 136.164062 90.410156 136.160156 90.570312 136.164062 C 91.789062 136.304688 94.894531 137.300781 97.179688 138.605469 " fill-opacity="1" fill-rule="nonzero"/></g></g></g><g clip-path="url(#0d7a064173)"><g clip-path="url(#d3dadf8148)"><g clip-path="url(#c13180330e)"><path fill="#0558ee" d="M 101.40625 139.144531 C 103.328125 140.042969 105.34375 141.234375 105.25 141.585938 C 105.144531 141.621094 104.925781 141.699219 103.214844 140.933594 C 103.136719 140.894531 94.097656 136.597656 93.984375 136.523438 L 94.054688 136.515625 C 94.691406 136.632812 98.019531 137.554688 101.40625 139.144531 " fill-opacity="1" fill-rule="nonzero"/></g></g></g><g clip-path="url(#89d42820d8)"><g clip-path="url(#7221fd7d31)"><g clip-path="url(#cac2d53d26)"><path fill="#0558ee" d="M 46.773438 146.789062 C 43.253906 149.839844 41.285156 151.257812 40.917969 151.003906 C 40.765625 149.695312 48.703125 143.429688 50.914062 142.773438 L 50.996094 142.769531 C 51.015625 142.921875 51.035156 143.09375 46.773438 146.789062 " fill-opacity="1" fill-rule="nonzero"/></g></g></g><g clip-path="url(#f263f957a8)"><g clip-path="url(#be166db1a6)"><g clip-path="url(#ba8faab60b)"><path fill="#0558ee" d="M 54.113281 146.230469 C 50.648438 149.804688 46.722656 151.328125 46.675781 149.664062 C 46.613281 147.414062 52.949219 142.617188 55.84375 142.242188 C 57.933594 142.265625 54.152344 146.191406 54.113281 146.230469 " fill-opacity="1" fill-rule="nonzero"/></g></g></g><g clip-path="url(#168cc4e014)"><g clip-path="url(#40be38c504)"><g clip-path="url(#ef706f3288)"><path fill="#0558ee" d="M 65.398438 145.945312 C 62.960938 149.832031 57.304688 151.113281 56.585938 148.652344 C 55.882812 146.257812 60.582031 142.164062 64.324219 141.917969 C 67.222656 142.003906 66.082031 144.855469 65.398438 145.945312 " fill-opacity="1" fill-rule="nonzero"/></g></g></g><g clip-path="url(#841e4c457e)"><g clip-path="url(#d9d8e96617)"><g clip-path="url(#19239057ff)"><path fill="#0558ee" d="M 78.339844 145.992188 C 77.523438 150.132812 71.324219 151.039062 69.648438 148.175781 C 68.203125 145.710938 71.324219 141.992188 74.949219 141.859375 C 77.824219 142.011719 78.660156 144.367188 78.339844 145.992188 " fill-opacity="1" fill-rule="nonzero"/></g></g></g><g clip-path="url(#c9b2e72fc5)"><g clip-path="url(#6ce77fe2d3)"><g clip-path="url(#af616c4d29)"><path fill="#0558ee" d="M 91.285156 146.339844 C 92.105469 149.742188 87.84375 151.113281 84.789062 149.246094 C 81.414062 147.183594 81.953125 142.972656 84.882812 142.1875 C 85.289062 142.078125 85.660156 142.074219 85.960938 142.070312 C 88.945312 142.296875 90.902344 144.75 91.285156 146.339844 " fill-opacity="1" fill-rule="nonzero"/></g></g></g><g clip-path="url(#c2564634a8)"><g clip-path="url(#3a2dc34937)"><g clip-path="url(#f116e3dc33)"><path fill="#0558ee" d="M 102.910156 146.945312 C 104.511719 149.472656 103.25 151.253906 100.367188 150.546875 C 96.015625 149.476562 92.933594 143.945312 95.144531 142.710938 C 95.511719 142.507812 95.863281 142.507812 96.238281 142.507812 C 98.792969 142.78125 101.691406 145.023438 102.910156 146.945312 " fill-opacity="1" fill-rule="nonzero"/></g></g></g><g clip-path="url(#283ef019b7)"><g clip-path="url(#a2367f95ab)"><g clip-path="url(#f96d3b26a5)"><path fill="#0558ee" d="M 111.878906 147.769531 C 113.9375 149.976562 114.222656 151.699219 112.5 151.53125 C 109.003906 151.195312 102.792969 144.144531 104.117188 143.230469 C 104.261719 143.132812 104.488281 143.136719 104.671875 143.144531 C 106.707031 143.472656 110.039062 145.800781 111.878906 147.769531 " fill-opacity="1" fill-rule="nonzero"/></g></g></g><g clip-path="url(#3200937c13)"><g clip-path="url(#2c49d086a6)"><g clip-path="url(#38166664f3)"><path fill="#0558ee" d="M 116.417969 148.660156 C 118.035156 150.144531 119.734375 151.980469 119.640625 152.496094 C 118.617188 153.105469 109.8125 144.046875 109.789062 143.914062 C 109.824219 143.910156 109.871094 143.898438 109.910156 143.890625 C 110.773438 144.183594 113.667969 146.136719 116.417969 148.660156 " fill-opacity="1" fill-rule="nonzero"/></g></g></g><g clip-path="url(#44d312d58d)"><g clip-path="url(#022512290d)"><g clip-path="url(#7ac727cdb6)"><path fill="#0558ee" d="M 34.519531 158.835938 C 31.179688 163.847656 30.738281 164.203125 30.574219 164.335938 L 30.523438 164.292969 C 30.566406 164.136719 30.617188 163.992188 30.898438 163.46875 L 30.914062 163.441406 C 33.816406 158.539062 33.816406 158.539062 35.554688 156.253906 L 37.398438 153.964844 C 37.765625 153.535156 37.859375 153.453125 37.96875 153.363281 L 38.003906 153.402344 C 37.925781 153.597656 37.792969 153.925781 34.519531 158.835938 " fill-opacity="1" fill-rule="nonzero"/></g></g></g><g clip-path="url(#2449cfbd46)"><g clip-path="url(#89cf763fdf)"><g clip-path="url(#7e7623be6c)"><path fill="#0558ee" d="M 41.148438 157.984375 C 38.644531 162.023438 35.1875 164.582031 34.652344 162.789062 C 33.9375 160.394531 39.308594 153.101562 42.210938 152.523438 C 43.902344 152.519531 42.457031 155.871094 41.148438 157.984375 " fill-opacity="1" fill-rule="nonzero"/></g></g></g><g clip-path="url(#a237abd5fd)"><g clip-path="url(#727e922021)"><g clip-path="url(#8cc035ab47)"><path fill="#0558ee" d="M 53.246094 157.429688 C 51.003906 162.019531 45.015625 164.378906 43.960938 161.089844 C 43.011719 158.125 47.230469 152.335938 51.53125 151.917969 C 54.542969 151.984375 54.347656 155.183594 53.246094 157.429688 " fill-opacity="1" fill-rule="nonzero"/></g></g></g><g clip-path="url(#f8be56ae9d)"><g clip-path="url(#21f37b5fc0)"><g clip-path="url(#acfb9f94e1)"><path fill="#0558ee" d="M 69.183594 157.277344 C 67.835938 162.117188 60.597656 164.132812 58.429688 160.269531 C 56.691406 157.171875 60.066406 151.914062 65.175781 151.644531 C 69.191406 151.820312 69.765625 155.191406 69.183594 157.277344 " fill-opacity="1" fill-rule="nonzero"/></g></g></g><g clip-path="url(#d6a88b3a67)"><g clip-path="url(#1b2a4634cd)"><g clip-path="url(#7ac84ef9c3)"><path fill="#0558ee" d="M 85.988281 157.535156 C 85.789062 162.21875 79.390625 164.226562 75.917969 160.695312 C 72.859375 157.585938 74.90625 151.90625 80.332031 151.757812 C 84.390625 152.023438 86.082031 155.296875 85.988281 157.535156 " fill-opacity="1" fill-rule="nonzero"/></g></g></g><g clip-path="url(#1997a50eb2)"><g clip-path="url(#948510b09a)"><g clip-path="url(#3a92fd8f0e)"><path fill="#0558ee" d="M 101.945312 158.15625 C 102.746094 162.335938 98.289062 164.484375 94.253906 161.863281 C 89.660156 158.878906 90.34375 152.9375 94.285156 152.269531 C 94.570312 152.21875 94.960938 152.214844 95.253906 152.210938 C 99.148438 152.570312 101.511719 155.902344 101.945312 158.15625 " fill-opacity="1" fill-rule="nonzero"/></g></g></g><g clip-path="url(#a607eedd99)"><g clip-path="url(#c709a6b8e9)"><g clip-path="url(#fd02d775c4)"><path fill="#0558ee" d="M 115.359375 159.078125 C 116.753906 162.589844 114.8125 164.820312 111.511719 163.496094 C 106.472656 161.472656 104.234375 154.234375 107.289062 153.09375 C 107.675781 152.953125 108.070312 152.957031 108.390625 152.960938 C 111.660156 153.394531 114.480469 156.867188 115.359375 159.078125 " fill-opacity="1" fill-rule="nonzero"/></g></g></g><g clip-path="url(#62572edb5a)"><g clip-path="url(#67251b7efe)"><g clip-path="url(#cabdbfd55e)"><path fill="#0558ee" d="M 124.277344 160.210938 C 125.992188 163.332031 125.925781 165.5 124.128906 164.945312 C 120.789062 163.910156 115.445312 154.789062 117.707031 153.976562 C 117.832031 153.929688 118.019531 153.941406 118.152344 153.945312 C 120.269531 154.4375 123.007812 157.902344 124.277344 160.210938 " fill-opacity="1" fill-rule="nonzero"/></g></g></g><g clip-path="url(#fbe4f880b2)"><g clip-path="url(#8a8802082f)"><g clip-path="url(#89f2bf8fdc)"><path fill="#0558ee" d="M 129.410156 165.679688 C 129.550781 165.984375 129.578125 166.082031 129.605469 166.179688 L 129.554688 166.222656 C 128.785156 165.535156 122.804688 155.859375 122.484375 155.007812 L 122.519531 154.972656 C 122.636719 155.074219 122.683594 155.128906 122.980469 155.492188 L 124.820312 157.941406 C 127.941406 162.722656 127.941406 162.722656 129.226562 165.300781 L 129.308594 165.472656 C 129.339844 165.535156 129.382812 165.617188 129.410156 165.679688 " fill-opacity="1" fill-rule="nonzero"/></g></g></g><g clip-path="url(#e38da97ee8)"><g clip-path="url(#6a65a8f6d2)"><g clip-path="url(#ac8092e519)"><path fill="#0558ee" d="M 31.136719 171.933594 C 29.667969 176.367188 27.539062 179.351562 26.914062 177.839844 C 26.039062 175.71875 29.167969 166.226562 31.542969 165.386719 C 32.835938 165.355469 31.980469 169.386719 31.136719 171.933594 " fill-opacity="1" fill-rule="nonzero"/></g></g></g><g clip-path="url(#9652757331)"><g clip-path="url(#033a5ab71c)"><g clip-path="url(#2011eeab74)"><path fill="#0558ee" d="M 41.804688 171.121094 C 40.210938 176.339844 35.636719 179.167969 34.042969 175.929688 C 32.402344 172.597656 35.53125 165.097656 39.648438 164.511719 C 42.519531 164.554688 42.636719 168.402344 41.804688 171.121094 " fill-opacity="1" fill-rule="nonzero"/></g></g></g><g clip-path="url(#930838579c)"><g clip-path="url(#959491cd5a)"><g clip-path="url(#2d0c0a3619)"><path fill="#0558ee" d="M 58.207031 170.707031 C 56.839844 176.449219 49.535156 178.851562 47.042969 174.382812 C 44.9375 170.613281 48.082031 164.375 53.589844 163.976562 C 58.085938 164.125 58.808594 168.183594 58.207031 170.707031 " fill-opacity="1" fill-rule="nonzero"/></g></g></g><g clip-path="url(#c8146a41ca)"><g clip-path="url(#6819473e45)"><g clip-path="url(#6d6ed1fd77)"><path fill="#0558ee" d="M 77.019531 170.773438 C 76.226562 176.578125 68.578125 178.757812 65.160156 174.152344 C 62.375 170.398438 65.105469 164.128906 71.058594 163.882812 C 75.785156 164.148438 77.390625 168.074219 77.019531 170.773438 " fill-opacity="1" fill-rule="nonzero"/></g></g></g><g clip-path="url(#eb5fac9465)"><g clip-path="url(#2840f99b91)"><g clip-path="url(#da85ddfa99)"><path fill="#0558ee" d="M 112.730469 172.160156 C 113.183594 177.378906 108.058594 179.652344 104.03125 176.015625 C 99.753906 172.160156 100.683594 165.230469 105.511719 164.949219 C 105.675781 164.941406 105.894531 164.953125 106.058594 164.953125 C 110.273438 165.425781 112.5 169.453125 112.730469 172.160156 " fill-opacity="1" fill-rule="nonzero"/></g></g></g><g clip-path="url(#47587866b8)"><g clip-path="url(#cdaae5005d)"><g clip-path="url(#f04b2fafb4)"><path fill="#0558ee" d="M 25.710938 188.816406 C 25.648438 191.292969 25.398438 195.5 24.855469 195.546875 C 24.679688 195.382812 24.480469 194.871094 24.34375 192.316406 L 24.296875 188.839844 L 24.519531 184.613281 C 24.785156 181.84375 25.042969 181.566406 25.15625 181.449219 L 25.226562 181.445312 C 25.742188 181.929688 25.773438 186.308594 25.710938 188.816406 " fill-opacity="1" fill-rule="nonzero"/></g></g></g><g clip-path="url(#6ace43a480)"><g clip-path="url(#f62ef5548a)"><g clip-path="url(#5c05b8c9c8)"><path fill="#0558ee" d="M 33.546875 187.8125 C 33.25 192.804688 30.855469 195.925781 28.972656 193.773438 C 26.453125 190.898438 27.105469 181.148438 30.636719 180.363281 C 32.949219 180.378906 33.730469 184.730469 33.546875 187.8125 " fill-opacity="1" fill-rule="nonzero"/></g></g></g><g clip-path="url(#233b36b615)"><g clip-path="url(#ae7d5d833b)"><g clip-path="url(#30fbe864cc)"><path fill="#0558ee" d="M 47.855469 187.15625 C 47.3125 192.984375 41.816406 195.792969 38.8125 191.777344 C 35.855469 187.824219 37.601562 180.117188 42.679688 179.582031 C 46.726562 179.695312 48.144531 184.078125 47.855469 187.15625 " fill-opacity="1" fill-rule="nonzero"/></g></g></g><g clip-path="url(#8b0cdc9ae6)"><g clip-path="url(#cad51e37a0)"><g clip-path="url(#a4a89a2b02)"><path fill="#0558ee" d="M 66.699219 186.972656 C 66.023438 193.152344 58.707031 195.554688 55.011719 190.8125 C 51.773438 186.648438 54.097656 179.589844 60.316406 179.226562 C 65.554688 179.480469 67.011719 184.113281 66.699219 186.972656 " fill-opacity="1" fill-rule="nonzero"/></g></g></g><g clip-path="url(#f9fdf14d87)"><g clip-path="url(#06f8960530)"><g clip-path="url(#cadcbe15c6)"><path fill="#0558ee" d="M 86.5625 187.277344 C 85.855469 193.488281 78.261719 195.710938 74.441406 190.828125 C 71.117188 186.582031 73.511719 179.578125 79.902344 179.371094 C 85.371094 179.757812 86.890625 184.425781 86.5625 187.277344 " fill-opacity="1" fill-rule="nonzero"/></g></g></g><g clip-path="url(#76b0f701f1)"><g clip-path="url(#c59eb9127e)"><g clip-path="url(#a2f58f3cd1)"><path fill="#0558ee" d="M 31.296875 205.777344 C 32.21875 209.359375 32.175781 212.644531 30.644531 211.628906 C 28.304688 210.082031 25.023438 199.730469 27.355469 198.785156 C 28.832031 198.765625 30.550781 202.863281 31.296875 205.777344 " fill-opacity="1" fill-rule="nonzero"/></g></g></g><g clip-path="url(#ad086e9889)"><g clip-path="url(#507f736e4c)"><g clip-path="url(#0470324431)"><path fill="#0558ee" d="M 41.8125 204.980469 C 42.515625 209.503906 40.183594 212.242188 37.277344 210.308594 C 33.082031 207.515625 31.945312 198.824219 35.660156 197.910156 C 35.78125 197.878906 35.949219 197.867188 36.070312 197.847656 C 39.277344 197.90625 41.359375 202.054688 41.8125 204.980469 " fill-opacity="1" fill-rule="nonzero"/></g></g></g><g clip-path="url(#4d430c66c5)"><g clip-path="url(#a91f27ab9e)"><g clip-path="url(#0072d8f798)"><path fill="#0558ee" d="M 57.976562 204.570312 C 58.125 209.933594 52.785156 212.296875 48.761719 208.65625 C 44.992188 205.242188 44.898438 197.746094 51.058594 197.269531 C 55.695312 197.4375 57.898438 201.640625 57.976562 204.570312 " fill-opacity="1" fill-rule="nonzero"/></g></g></g><g clip-path="url(#bc3d71d500)"><g clip-path="url(#7bb80058e0)"><g clip-path="url(#2f3251336f)"><path fill="#0558ee" d="M 76.515625 204.636719 C 75.929688 210.640625 68.730469 212.433594 65.023438 207.5 C 61.984375 203.457031 63.964844 197.429688 69.84375 197.167969 C 74.921875 197.472656 76.800781 201.71875 76.515625 204.636719 " fill-opacity="1" fill-rule="nonzero"/></g></g></g><g clip-path="url(#6d9c145810)"><g clip-path="url(#725da4ed2c)"><g clip-path="url(#4caa025d12)"><path fill="#0558ee" d="M 35.328125 220.6875 C 37.3125 223.769531 38.234375 225.476562 38.0625 225.753906 C 36.910156 225.84375 30.046875 215.597656 30.648438 214.679688 C 31.386719 214.621094 34.675781 219.675781 35.328125 220.6875 " fill-opacity="1" fill-rule="nonzero"/></g></g></g><g clip-path="url(#df717f94b9)"><g clip-path="url(#3fa1939db5)"><g clip-path="url(#5a130a347b)"><path fill="#0558ee" d="M 41.695312 219.871094 C 43.128906 222.71875 43.507812 225.371094 41.652344 224.882812 C 38.15625 223.960938 33.039062 215.4375 35.050781 213.894531 C 35.171875 213.800781 35.378906 213.746094 35.527344 213.710938 C 37.519531 213.722656 40.191406 216.894531 41.695312 219.871094 " fill-opacity="1" fill-rule="nonzero"/></g></g></g><g clip-path="url(#e1b3b5150c)"><g clip-path="url(#aa95979316)"><g clip-path="url(#37bd9acbb3)"><path fill="#0558ee" d="M 53.316406 219.339844 C 54.402344 223.058594 52.390625 225.789062 48.582031 223.546875 C 43.667969 220.652344 41.832031 213.796875 45.777344 213.066406 C 45.914062 213.042969 46.101562 213.03125 46.238281 213.015625 C 49.875 213.113281 52.566406 216.773438 53.316406 219.339844 " fill-opacity="1" fill-rule="nonzero"/></g></g></g><g clip-path="url(#f985129da1)"><g clip-path="url(#f611d6461f)"><g clip-path="url(#c52fb070f1)"><path fill="#0558ee" d="M 47.371094 231.769531 C 49.925781 234.222656 51.003906 235.519531 50.574219 235.625 C 48.824219 236.054688 39.605469 227.941406 40.707031 226.945312 C 40.734375 226.917969 40.785156 226.90625 40.820312 226.890625 C 42.128906 226.871094 45.839844 230.296875 47.371094 231.769531 " fill-opacity="1" fill-rule="nonzero"/></g></g></g><g clip-path="url(#37873aa7a1)"><g clip-path="url(#a4e8f9deda)"><g clip-path="url(#15dd184262)"><path fill="#0558ee" d="M 54.28125 231.246094 C 55.421875 232.753906 56.871094 235.265625 55.0625 235.109375 C 51.828125 234.832031 44.726562 228.359375 46.507812 226.488281 C 46.699219 226.285156 46.984375 226.238281 47.210938 226.203125 C 49.476562 226.242188 52.464844 228.84375 54.28125 231.246094 " fill-opacity="1" fill-rule="nonzero"/></g></g></g><g clip-path="url(#f80c41fd14)"><g clip-path="url(#2f8ca1481d)"><g clip-path="url(#f2750357c3)"><path fill="#0558ee" d="M 64.902344 230.976562 C 65.972656 233.878906 64.671875 235.902344 61.085938 234.167969 C 56.46875 231.925781 54.164062 226.828125 57.351562 225.898438 C 57.597656 225.828125 57.941406 225.796875 58.199219 225.777344 C 61.757812 225.90625 64.15625 228.957031 64.902344 230.976562 " fill-opacity="1" fill-rule="nonzero"/></g></g></g><g clip-path="url(#2f21e04a48)"><g clip-path="url(#b7833d5584)"><g clip-path="url(#2863cdc1f4)"><path fill="#0558ee" d="M 77.082031 231.019531 C 76.902344 234.773438 72.835938 236.296875 69.695312 232.589844 C 67.273438 229.738281 67.945312 225.886719 71.96875 225.707031 C 75.320312 225.90625 77.203125 228.5625 77.082031 231.019531 " fill-opacity="1" fill-rule="nonzero"/></g></g></g><g clip-path="url(#7b0ca50cf5)"><g clip-path="url(#8f29775e20)"><g clip-path="url(#335d649869)"><path fill="#0558ee" d="M 61.664062 240.175781 C 65.457031 242.316406 65.457031 242.316406 65.574219 242.441406 C 65.558594 242.460938 65.539062 242.484375 65.519531 242.503906 C 62.722656 242.457031 53.117188 237.570312 54.347656 236.816406 C 54.378906 236.796875 54.433594 236.792969 54.472656 236.78125 C 55.667969 236.792969 58.449219 238.359375 61.664062 240.175781 " fill-opacity="1" fill-rule="nonzero"/></g></g></g><g clip-path="url(#70b0b08206)"><g clip-path="url(#0a93b425d3)"><g clip-path="url(#1eee6e8312)"><path fill="#0558ee" d="M 66.992188 239.933594 C 69.640625 242.246094 68.988281 242.28125 68.773438 242.292969 C 66.558594 242.40625 58.589844 237.925781 59.878906 236.585938 C 60.015625 236.445312 60.269531 236.414062 60.453125 236.390625 C 62.839844 236.464844 66.0625 239.121094 66.992188 239.933594 " fill-opacity="1" fill-rule="nonzero"/></g></g></g><g clip-path="url(#1a085bbeb0)"><g clip-path="url(#9ece2c1c02)"><g clip-path="url(#408791ba69)"><path fill="#0558ee" d="M 74.003906 239.863281 C 74.320312 240.648438 75.109375 243.101562 72.089844 241.808594 C 68.578125 240.300781 66.480469 237.261719 68.347656 236.390625 C 68.632812 236.253906 68.96875 236.234375 69.214844 236.214844 C 71.550781 236.335938 73.335938 238.191406 74.003906 239.863281 " fill-opacity="1" fill-rule="nonzero"/></g></g></g><g clip-path="url(#19fe78bfc8)"><g clip-path="url(#78a021979c)"><g clip-path="url(#3dda6cf845)"><path fill="#0558ee" d="M 81.402344 239.976562 C 80.414062 242.617188 77.734375 243.207031 76.445312 240.167969 C 75.679688 238.367188 76.5 236.378906 78.941406 236.289062 C 81.277344 236.464844 82.027344 238.300781 81.402344 239.976562 " fill-opacity="1" fill-rule="nonzero"/></g></g></g><g clip-path="url(#f8d2256949)"><g clip-path="url(#cc228ac94e)"><g clip-path="url(#80efba4abf)"><path fill="#0558ee" d="M 88.425781 240.25 C 87.617188 240.960938 83.074219 244.007812 83.339844 241.296875 C 83.527344 239.402344 85.636719 236.625 88.519531 236.582031 C 90.671875 236.808594 90.195312 238.695312 88.425781 240.25 " fill-opacity="1" fill-rule="nonzero"/></g></g></g><g clip-path="url(#244e9108ee)"><g clip-path="url(#d9c4e4b41f)"><g clip-path="url(#bb8a6d1a9e)"><path fill="#0558ee" d="M 94.328125 240.65625 C 92.003906 241.914062 88.25 243.140625 88.390625 242.449219 C 88.519531 241.816406 93.789062 237.042969 96.953125 237.0625 C 98.425781 237.292969 97.269531 238.65625 96.128906 239.519531 C 95.625 239.898438 95.019531 240.28125 94.328125 240.65625 " fill-opacity="1" fill-rule="nonzero"/></g></g></g><path fill="#0558ee" d="M 92.550781 184.890625 L 92.550781 187.871094 L 99.277344 187.871094 L 99.277344 207.640625 L 102.40625 207.640625 L 102.40625 187.871094 L 109.132812 187.871094 L 109.132812 184.890625 Z M 92.550781 184.890625 " fill-opacity="1" fill-rule="nonzero"/><path fill="#0558ee" d="M 117.667969 184.890625 L 117.667969 207.640625 L 120.769531 207.640625 L 120.769531 184.890625 Z M 117.667969 184.890625 " fill-opacity="1" fill-rule="nonzero"/><path fill="#0558ee" d="M 131.058594 184.890625 L 131.058594 207.640625 L 134.160156 207.640625 L 134.160156 190.328125 L 144.539062 207.640625 L 147.640625 207.640625 L 147.640625 184.890625 L 144.539062 184.890625 L 144.539062 202.203125 L 134.160156 184.890625 Z M 131.058594 184.890625 " fill-opacity="1" fill-rule="nonzero"/><path fill="#0558ee" d="M 157.992188 184.890625 L 157.992188 207.640625 L 161.09375 207.640625 L 161.09375 198.019531 L 171.472656 198.019531 L 171.472656 207.640625 L 174.574219 207.640625 L 174.574219 184.890625 L 171.472656 184.890625 L 171.472656 194.539062 L 161.09375 194.539062 L 161.09375 184.890625 Z M 157.992188 184.890625 " fill-opacity="1" fill-rule="nonzero"/><path fill="#0558ee" d="M 188.167969 184.890625 C 186.414062 184.890625 184.921875 186.382812 184.921875 188.136719 L 184.921875 204.394531 C 184.921875 206.148438 186.414062 207.640625 188.167969 207.640625 L 198.257812 207.640625 C 200.011719 207.640625 201.503906 206.148438 201.503906 204.394531 L 201.503906 188.136719 C 201.503906 186.382812 200.011719 184.890625 198.257812 184.890625 Z M 189.394531 187.871094 L 197.027344 187.871094 C 197.789062 187.871094 198.402344 188.457031 198.402344 189.21875 L 198.402344 203.3125 C 198.402344 204.074219 197.789062 204.65625 197.027344 204.65625 L 189.394531 204.65625 C 188.636719 204.65625 188.023438 204.074219 188.023438 203.3125 L 188.023438 189.21875 C 188.023438 188.457031 188.636719 187.871094 189.394531 187.871094 Z M 189.394531 187.871094 " fill-opacity="1" fill-rule="nonzero"/><path fill="#0558ee" d="M 215.09375 184.890625 C 213.28125 184.890625 211.847656 186.324219 211.847656 188.136719 L 211.847656 204.394531 C 211.847656 206.207031 213.28125 207.640625 215.09375 207.640625 L 225.183594 207.640625 C 226.996094 207.640625 228.429688 206.207031 228.429688 204.394531 L 228.429688 202.171875 L 225.328125 202.171875 L 225.328125 203.3125 C 225.328125 204.074219 224.714844 204.65625 223.953125 204.65625 L 216.320312 204.65625 C 215.5625 204.65625 214.949219 204.074219 214.949219 203.3125 L 214.949219 189.21875 C 214.949219 188.457031 215.5625 187.871094 216.320312 187.871094 L 223.953125 187.871094 C 224.714844 187.871094 225.328125 188.457031 225.328125 189.21875 L 225.328125 190.359375 L 228.429688 190.359375 L 228.429688 188.136719 C 228.429688 186.324219 226.996094 184.890625 225.183594 184.890625 Z M 215.09375 184.890625 " fill-opacity="1" fill-rule="nonzero"/><path fill="#0558ee" d="M 237.667969 207.640625 L 240.914062 207.640625 L 240.914062 204.394531 L 237.667969 204.394531 Z M 237.667969 207.640625 " fill-opacity="1" fill-rule="nonzero"/><path fill="#0558ee" d="M 253.867188 184.890625 C 252.113281 184.890625 250.621094 186.382812 250.621094 188.136719 L 250.621094 204.394531 C 250.621094 206.148438 252.113281 207.640625 253.867188 207.640625 L 263.957031 207.640625 C 265.710938 207.640625 267.203125 206.148438 267.203125 204.394531 L 267.203125 188.136719 C 267.203125 186.382812 265.710938 184.890625 263.957031 184.890625 Z M 255.09375 187.871094 L 262.726562 187.871094 C 263.488281 187.871094 264.101562 188.457031 264.101562 189.21875 L 264.101562 203.3125 C 264.101562 204.074219 263.488281 204.65625 262.726562 204.65625 L 255.09375 204.65625 C 254.335938 204.65625 253.722656 204.074219 253.722656 203.3125 L 253.722656 189.21875 C 253.722656 188.457031 254.335938 187.871094 255.09375 187.871094 Z M 255.09375 187.871094 " fill-opacity="1" fill-rule="nonzero"/><path fill="#0558ee" d="M 277.550781 184.890625 L 277.550781 207.640625 L 280.652344 207.640625 L 280.652344 199.773438 L 286.96875 199.773438 L 292.144531 207.640625 L 295.886719 207.640625 L 290.738281 199.773438 L 290.886719 199.773438 C 292.699219 199.773438 294.132812 198.3125 294.132812 196.5 L 294.132812 188.136719 C 294.132812 186.324219 292.699219 184.890625 290.886719 184.890625 Z M 280.652344 196.761719 L 280.652344 187.871094 L 289.65625 187.871094 C 290.417969 187.871094 291.03125 188.457031 291.03125 189.21875 L 291.03125 195.445312 C 291.03125 196.207031 290.417969 196.761719 289.65625 196.761719 Z M 280.652344 196.761719 " fill-opacity="1" fill-rule="nonzero"/><path fill="#0558ee" d="M 307.523438 184.890625 C 305.710938 184.890625 304.277344 186.324219 304.277344 188.136719 L 304.277344 204.394531 C 304.277344 206.207031 305.710938 207.640625 307.523438 207.640625 L 317.613281 207.640625 C 319.425781 207.640625 320.859375 206.207031 320.859375 204.394531 L 320.859375 195.445312 L 312.671875 195.445312 L 312.671875 198.457031 L 317.757812 198.457031 L 317.757812 203.3125 C 317.757812 204.074219 317.144531 204.65625 316.382812 204.65625 L 308.75 204.65625 C 307.992188 204.65625 307.378906 204.074219 307.378906 203.3125 L 307.378906 189.21875 C 307.378906 188.457031 307.992188 187.871094 308.75 187.871094 L 316.382812 187.871094 C 317.144531 187.871094 317.757812 188.457031 317.757812 189.21875 L 317.757812 190.125 L 320.859375 190.125 L 320.859375 188.136719 C 320.859375 186.324219 319.425781 184.890625 317.613281 184.890625 Z M 307.523438 184.890625 " fill-opacity="1" fill-rule="nonzero"/><path fill="#737373" d="M 103.214844 222.359375 C 103.214844 224.296875 102.6875 225.78125 101.636719 226.8125 C 100.582031 227.835938 99.066406 228.34375 97.089844 228.34375 L 93.839844 228.34375 L 93.839844 216.609375 L 97.433594 216.609375 C 99.265625 216.609375 100.6875 217.117188 101.699219 218.125 C 102.707031 219.136719 103.214844 220.546875 103.214844 222.359375 Z M 101.761719 222.40625 C 101.761719 220.875 101.375 219.726562 100.605469 218.953125 C 99.84375 218.183594 98.703125 217.796875 97.183594 217.796875 L 95.214844 217.796875 L 95.214844 227.15625 L 96.871094 227.15625 C 98.496094 227.15625 99.714844 226.761719 100.527344 225.96875 C 101.347656 225.167969 101.761719 223.980469 101.761719 222.40625 Z M 101.761719 222.40625 " fill-opacity="1" fill-rule="nonzero"/><path fill="#737373" d="M 107.886719 216.609375 L 109.261719 216.609375 L 109.261719 228.34375 L 107.886719 228.34375 Z M 107.886719 216.609375 " fill-opacity="1" fill-rule="nonzero"/><path fill="#737373" d="M 121.085938 228.34375 L 114.539062 228.34375 L 114.539062 216.609375 L 121.085938 216.609375 L 121.085938 217.828125 L 115.914062 217.828125 L 115.914062 221.609375 L 120.773438 221.609375 L 120.773438 222.8125 L 115.914062 222.8125 L 115.914062 227.125 L 121.085938 227.125 Z M 118.882812 212.875 C 118.683594 212.875 118.492188 212.835938 118.304688 212.75 C 118.117188 212.667969 117.929688 212.578125 117.742188 212.484375 C 117.5625 212.382812 117.390625 212.292969 117.226562 212.21875 C 117.058594 212.136719 116.898438 212.09375 116.742188 212.09375 C 116.53125 212.09375 116.371094 212.164062 116.257812 212.296875 C 116.140625 212.421875 116.046875 212.621094 115.976562 212.890625 L 115.242188 212.890625 C 115.3125 212.320312 115.484375 211.882812 115.757812 211.578125 C 116.027344 211.277344 116.367188 211.125 116.773438 211.125 C 116.96875 211.125 117.164062 211.167969 117.351562 211.25 C 117.546875 211.335938 117.734375 211.421875 117.914062 211.515625 C 118.089844 211.609375 118.261719 211.699219 118.429688 211.78125 C 118.59375 211.867188 118.75 211.90625 118.898438 211.90625 C 119.117188 211.90625 119.277344 211.839844 119.382812 211.703125 C 119.496094 211.570312 119.585938 211.371094 119.648438 211.109375 L 120.382812 211.109375 C 120.320312 211.671875 120.152344 212.109375 119.882812 212.421875 C 119.621094 212.726562 119.289062 212.875 118.882812 212.875 Z M 120.242188 215.671875 L 119.492188 215.671875 C 118.96875 215.320312 118.40625 214.871094 117.804688 214.328125 C 117.230469 214.851562 116.664062 215.296875 116.101562 215.671875 L 115.351562 215.671875 L 115.351562 215.484375 L 115.773438 215 C 116.375 214.34375 116.820312 213.808594 117.101562 213.390625 L 118.507812 213.390625 C 118.859375 213.890625 119.4375 214.589844 120.242188 215.484375 Z M 120.242188 215.671875 " fill-opacity="1" fill-rule="nonzero"/><path fill="#737373" d="M 134.917969 228.34375 L 133.355469 228.34375 L 126.949219 218.5 L 126.886719 218.5 C 126.96875 219.65625 127.011719 220.714844 127.011719 221.671875 L 127.011719 228.34375 L 125.746094 228.34375 L 125.746094 216.609375 L 127.292969 216.609375 L 133.683594 226.421875 L 133.746094 226.421875 C 133.734375 226.277344 133.707031 225.8125 133.667969 225.03125 C 133.636719 224.242188 133.625 223.679688 133.636719 223.34375 L 133.636719 216.609375 L 134.917969 216.609375 Z M 134.917969 228.34375 " fill-opacity="1" fill-rule="nonzero"/><path fill="#737373" d="M 155.773438 222.359375 C 155.773438 224.296875 155.246094 225.78125 154.195312 226.8125 C 153.152344 227.835938 151.640625 228.34375 149.664062 228.34375 L 146.539062 228.34375 L 146.539062 223.140625 L 145.304688 223.140625 L 145.304688 221.9375 L 146.539062 221.9375 L 146.539062 216.609375 L 150.023438 216.609375 C 151.824219 216.609375 153.230469 217.117188 154.242188 218.125 C 155.261719 219.125 155.773438 220.539062 155.773438 222.359375 Z M 154.335938 222.40625 C 154.335938 219.335938 152.808594 217.796875 149.757812 217.796875 L 147.914062 217.796875 L 147.914062 221.9375 L 150.945312 221.9375 L 150.945312 223.140625 L 147.914062 223.140625 L 147.914062 227.15625 L 149.429688 227.15625 C 152.699219 227.15625 154.335938 225.574219 154.335938 222.40625 Z M 154.335938 222.40625 " fill-opacity="1" fill-rule="nonzero"/><path fill="#737373" d="M 167.851562 228.34375 L 166.398438 224.609375 L 161.695312 224.609375 L 160.242188 228.34375 L 158.867188 228.34375 L 163.507812 216.5625 L 164.648438 216.5625 L 169.273438 228.34375 Z M 165.976562 223.390625 L 164.601562 219.75 C 164.421875 219.292969 164.242188 218.726562 164.054688 218.046875 C 163.9375 218.570312 163.773438 219.136719 163.554688 219.75 L 162.179688 223.390625 Z M 164.679688 215.671875 L 163.789062 215.671875 C 163.445312 215.390625 163.03125 214.996094 162.554688 214.484375 C 162.074219 213.964844 161.730469 213.539062 161.523438 213.203125 L 161.523438 213.03125 L 163.148438 213.03125 C 163.324219 213.398438 163.5625 213.824219 163.867188 214.3125 C 164.167969 214.792969 164.4375 215.179688 164.679688 215.46875 Z M 164.679688 215.671875 " fill-opacity="1" fill-rule="nonzero"/><path fill="#737373" d="M 182.117188 228.34375 L 180.554688 228.34375 L 174.148438 218.5 L 174.085938 218.5 C 174.167969 219.65625 174.210938 220.714844 174.210938 221.671875 L 174.210938 228.34375 L 172.945312 228.34375 L 172.945312 216.609375 L 174.492188 216.609375 L 180.882812 226.421875 L 180.945312 226.421875 C 180.933594 226.277344 180.90625 225.8125 180.867188 225.03125 C 180.835938 224.242188 180.824219 223.679688 180.835938 223.34375 L 180.835938 216.609375 L 182.117188 216.609375 Z M 182.117188 228.34375 " fill-opacity="1" fill-rule="nonzero"/><path fill="#737373" d="M 198.769531 217.65625 C 197.476562 217.65625 196.457031 218.089844 195.707031 218.953125 C 194.964844 219.808594 194.597656 220.984375 194.597656 222.484375 C 194.597656 224.015625 194.957031 225.203125 195.675781 226.046875 C 196.394531 226.882812 197.417969 227.296875 198.753906 227.296875 C 199.566406 227.296875 200.496094 227.148438 201.550781 226.84375 L 201.550781 228.046875 C 200.738281 228.347656 199.730469 228.5 198.535156 228.5 C 196.816406 228.5 195.480469 227.980469 194.535156 226.9375 C 193.597656 225.886719 193.128906 224.390625 193.128906 222.453125 C 193.128906 221.246094 193.351562 220.1875 193.800781 219.28125 C 194.257812 218.375 194.914062 217.679688 195.769531 217.1875 C 196.621094 216.6875 197.628906 216.4375 198.785156 216.4375 C 200.011719 216.4375 201.085938 216.664062 202.003906 217.109375 L 201.425781 218.28125 C 200.539062 217.867188 199.652344 217.65625 198.769531 217.65625 Z M 198.769531 217.65625 " fill-opacity="1" fill-rule="nonzero"/><path fill="#737373" d="M 216.359375 222.453125 C 216.359375 224.339844 215.882812 225.820312 214.9375 226.890625 C 213.988281 227.964844 212.664062 228.5 210.96875 228.5 C 209.25 228.5 207.914062 227.976562 206.96875 226.921875 C 206.03125 225.859375 205.5625 224.367188 205.5625 222.4375 C 205.5625 220.53125 206.03125 219.054688 206.96875 218 C 207.914062 216.949219 209.253906 216.421875 210.984375 216.421875 C 212.671875 216.421875 213.988281 216.960938 214.9375 218.03125 C 215.882812 219.105469 216.359375 220.578125 216.359375 222.453125 Z M 207.015625 222.453125 C 207.015625 224.046875 207.351562 225.257812 208.03125 226.078125 C 208.707031 226.902344 209.6875 227.3125 210.96875 227.3125 C 212.269531 227.3125 213.253906 226.90625 213.921875 226.09375 C 214.585938 225.273438 214.921875 224.058594 214.921875 222.453125 C 214.921875 220.882812 214.585938 219.6875 213.921875 218.875 C 213.265625 218.054688 212.285156 217.640625 210.984375 217.640625 C 209.691406 217.640625 208.707031 218.054688 208.03125 218.875 C 207.351562 219.699219 207.015625 220.890625 207.015625 222.453125 Z M 208.15625 215.484375 C 208.832031 214.757812 209.304688 214.21875 209.578125 213.875 C 209.847656 213.53125 210.046875 213.25 210.171875 213.03125 L 211.5 213.03125 C 211.625 213.261719 211.832031 213.554688 212.125 213.90625 C 212.414062 214.261719 212.894531 214.789062 213.5625 215.484375 L 213.5625 215.671875 L 212.609375 215.671875 C 212.140625 215.371094 211.546875 214.871094 210.828125 214.171875 C 210.097656 214.890625 209.515625 215.390625 209.078125 215.671875 L 208.15625 215.671875 Z M 208.15625 215.484375 " fill-opacity="1" fill-rule="nonzero"/><path fill="#737373" d="M 230.210938 228.34375 L 228.648438 228.34375 L 222.242188 218.5 L 222.179688 218.5 C 222.261719 219.65625 222.304688 220.714844 222.304688 221.671875 L 222.304688 228.34375 L 221.039062 228.34375 L 221.039062 216.609375 L 222.585938 216.609375 L 228.976562 226.421875 L 229.039062 226.421875 C 229.027344 226.277344 229 225.8125 228.960938 225.03125 C 228.929688 224.242188 228.917969 223.679688 228.929688 223.34375 L 228.929688 216.609375 L 230.210938 216.609375 Z M 230.210938 228.34375 " fill-opacity="1" fill-rule="nonzero"/><path fill="#737373" d="M 240.667969 222.203125 L 244.652344 222.203125 L 244.652344 227.90625 C 244.027344 228.105469 243.390625 228.25 242.746094 228.34375 C 242.109375 228.445312 241.371094 228.5 240.527344 228.5 C 238.746094 228.5 237.359375 227.976562 236.371094 226.921875 C 235.378906 225.859375 234.886719 224.382812 234.886719 222.484375 C 234.886719 221.257812 235.128906 220.183594 235.621094 219.265625 C 236.109375 218.351562 236.8125 217.652344 237.730469 217.171875 C 238.65625 216.683594 239.738281 216.4375 240.980469 216.4375 C 242.230469 216.4375 243.394531 216.667969 244.480469 217.125 L 243.949219 218.328125 C 242.886719 217.882812 241.863281 217.65625 240.886719 217.65625 C 239.457031 217.65625 238.34375 218.085938 237.542969 218.9375 C 236.738281 219.792969 236.339844 220.976562 236.339844 222.484375 C 236.339844 224.070312 236.722656 225.273438 237.496094 226.09375 C 238.265625 226.90625 239.402344 227.3125 240.902344 227.3125 C 241.714844 227.3125 242.511719 227.21875 243.292969 227.03125 L 243.292969 223.421875 L 240.667969 223.421875 Z M 240.667969 222.203125 " fill-opacity="1" fill-rule="nonzero"/><path fill="#737373" d="M 265.039062 228.34375 L 263.476562 228.34375 L 257.070312 218.5 L 257.007812 218.5 C 257.089844 219.65625 257.132812 220.714844 257.132812 221.671875 L 257.132812 228.34375 L 255.867188 228.34375 L 255.867188 216.609375 L 257.414062 216.609375 L 263.804688 226.421875 L 263.867188 226.421875 C 263.855469 226.277344 263.828125 225.8125 263.789062 225.03125 C 263.757812 224.242188 263.746094 223.679688 263.757812 223.34375 L 263.757812 216.609375 L 265.039062 216.609375 Z M 265.039062 228.34375 " fill-opacity="1" fill-rule="nonzero"/><path fill="#737373" d="M 275.496094 222.203125 L 279.480469 222.203125 L 279.480469 227.90625 C 278.855469 228.105469 278.21875 228.25 277.574219 228.34375 C 276.9375 228.445312 276.199219 228.5 275.355469 228.5 C 273.574219 228.5 272.1875 227.976562 271.199219 226.921875 C 270.207031 225.859375 269.714844 224.382812 269.714844 222.484375 C 269.714844 221.257812 269.957031 220.183594 270.449219 219.265625 C 270.9375 218.351562 271.640625 217.652344 272.558594 217.171875 C 273.484375 216.683594 274.566406 216.4375 275.808594 216.4375 C 277.058594 216.4375 278.222656 216.667969 279.308594 217.125 L 278.777344 218.328125 C 277.714844 217.882812 276.691406 217.65625 275.714844 217.65625 C 274.285156 217.65625 273.171875 218.085938 272.371094 218.9375 C 271.566406 219.792969 271.167969 220.976562 271.167969 222.484375 C 271.167969 224.070312 271.550781 225.273438 272.324219 226.09375 C 273.09375 226.90625 274.230469 227.3125 275.730469 227.3125 C 276.542969 227.3125 277.339844 227.21875 278.121094 227.03125 L 278.121094 223.421875 L 275.496094 223.421875 Z M 275.496094 222.203125 " fill-opacity="1" fill-rule="nonzero"/><path fill="#737373" d="M 293.261719 228.34375 L 291.902344 228.34375 L 291.902344 222.828125 L 285.730469 222.828125 L 285.730469 228.34375 L 284.355469 228.34375 L 284.355469 216.609375 L 285.730469 216.609375 L 285.730469 221.609375 L 291.902344 221.609375 L 291.902344 216.609375 L 293.261719 216.609375 Z M 293.261719 228.34375 " fill-opacity="1" fill-rule="nonzero"/><path fill="#737373" d="M 305.09375 228.34375 L 298.546875 228.34375 L 298.546875 216.609375 L 305.09375 216.609375 L 305.09375 217.828125 L 299.921875 217.828125 L 299.921875 221.609375 L 304.78125 221.609375 L 304.78125 222.8125 L 299.921875 222.8125 L 299.921875 227.125 L 305.09375 227.125 Z M 301 230.28125 C 301 229.976562 301.078125 229.753906 301.234375 229.609375 C 301.390625 229.460938 301.582031 229.390625 301.8125 229.390625 C 302.019531 229.390625 302.203125 229.460938 302.359375 229.609375 C 302.515625 229.753906 302.59375 229.976562 302.59375 230.28125 C 302.59375 230.582031 302.515625 230.804688 302.359375 230.953125 C 302.203125 231.097656 302.019531 231.171875 301.8125 231.171875 C 301.582031 231.171875 301.390625 231.097656 301.234375 230.953125 C 301.078125 230.804688 301 230.582031 301 230.28125 Z M 299.109375 215.484375 C 299.785156 214.757812 300.257812 214.21875 300.53125 213.875 C 300.800781 213.53125 301 213.25 301.125 213.03125 L 302.453125 213.03125 C 302.578125 213.261719 302.785156 213.554688 303.078125 213.90625 C 303.367188 214.261719 303.847656 214.789062 304.515625 215.484375 L 304.515625 215.671875 L 303.5625 215.671875 C 303.09375 215.371094 302.5 214.871094 301.78125 214.171875 C 301.050781 214.890625 300.46875 215.390625 300.03125 215.671875 L 299.109375 215.671875 Z M 299.109375 215.484375 " fill-opacity="1" fill-rule="nonzero"/><g fill="#ffffff" fill-opacity="1"><g transform="translate(122.733108, 256.064637)"><g><path d="M 8.75 -0.84375 C 8.320312 -0.507812 7.769531 -0.25 7.09375 -0.0625 C 6.425781 0.125 5.597656 0.21875 4.609375 0.21875 C 3.628906 0.21875 2.585938 0.128906 1.484375 -0.046875 L 1.484375 -11.4375 C 2.597656 -11.625 3.566406 -11.71875 4.390625 -11.71875 C 5.210938 -11.71875 5.882812 -11.640625 6.40625 -11.484375 C 6.9375 -11.328125 7.367188 -11.113281 7.703125 -10.84375 C 8.367188 -10.332031 8.703125 -9.664062 8.703125 -8.84375 C 8.703125 -8.03125 8.40625 -7.359375 7.8125 -6.828125 C 8.507812 -6.609375 9.050781 -6.191406 9.4375 -5.578125 C 9.789062 -5.035156 9.96875 -4.429688 9.96875 -3.765625 C 9.96875 -3.097656 9.867188 -2.523438 9.671875 -2.046875 C 9.484375 -1.578125 9.175781 -1.175781 8.75 -0.84375 Z M 3.78125 -7.15625 C 4.019531 -7.113281 4.320312 -7.09375 4.6875 -7.09375 C 5.050781 -7.09375 5.347656 -7.140625 5.578125 -7.234375 C 5.816406 -7.328125 6 -7.445312 6.125 -7.59375 C 6.332031 -7.820312 6.4375 -8.148438 6.4375 -8.578125 C 6.4375 -9.453125 5.914062 -9.890625 4.875 -9.890625 C 4.4375 -9.890625 4.070312 -9.875 3.78125 -9.84375 Z M 5.0625 -5.296875 C 4.570312 -5.296875 4.144531 -5.265625 3.78125 -5.203125 L 3.78125 -1.8125 C 4.175781 -1.707031 4.597656 -1.65625 5.046875 -1.65625 C 5.492188 -1.65625 5.882812 -1.707031 6.21875 -1.8125 C 6.550781 -1.914062 6.835938 -2.0625 7.078125 -2.25 C 7.535156 -2.625 7.765625 -3.109375 7.765625 -3.703125 C 7.765625 -4.765625 6.863281 -5.296875 5.0625 -5.296875 Z M 5.0625 -5.296875 "/></g></g></g><g fill="#ffffff" fill-opacity="1"><g transform="translate(135.55404, 256.064637)"><g><path d="M 8.03125 -11.546875 C 8.394531 -11.515625 8.691406 -11.5 8.921875 -11.5 L 9.640625 -11.5 C 9.890625 -11.5 10.144531 -11.519531 10.40625 -11.5625 L 10.40625 -4.421875 C 10.40625 -3.003906 9.976562 -1.863281 9.125 -1 C 8.3125 -0.1875 7.289062 0.21875 6.0625 0.21875 C 4.71875 0.21875 3.628906 -0.128906 2.796875 -0.828125 C 1.867188 -1.609375 1.40625 -2.738281 1.40625 -4.21875 L 1.40625 -11.546875 C 1.882812 -11.515625 2.332031 -11.5 2.75 -11.5 C 3.175781 -11.5 3.53125 -11.519531 3.8125 -11.5625 L 3.8125 -4.109375 C 3.8125 -3.378906 4.035156 -2.8125 4.484375 -2.40625 C 4.890625 -2.039062 5.40625 -1.859375 6.03125 -1.859375 C 6.957031 -1.859375 7.570312 -2.332031 7.875 -3.28125 C 7.976562 -3.613281 8.03125 -4.03125 8.03125 -4.53125 Z M 8.03125 -11.546875 "/></g></g></g><g fill="#ffffff" fill-opacity="1"><g transform="translate(149.852545, 256.064637)"><g><path d="M 8.75 -0.84375 C 8.320312 -0.507812 7.769531 -0.25 7.09375 -0.0625 C 6.425781 0.125 5.597656 0.21875 4.609375 0.21875 C 3.628906 0.21875 2.585938 0.128906 1.484375 -0.046875 L 1.484375 -11.4375 C 2.597656 -11.625 3.566406 -11.71875 4.390625 -11.71875 C 5.210938 -11.71875 5.882812 -11.640625 6.40625 -11.484375 C 6.9375 -11.328125 7.367188 -11.113281 7.703125 -10.84375 C 8.367188 -10.332031 8.703125 -9.664062 8.703125 -8.84375 C 8.703125 -8.03125 8.40625 -7.359375 7.8125 -6.828125 C 8.507812 -6.609375 9.050781 -6.191406 9.4375 -5.578125 C 9.789062 -5.035156 9.96875 -4.429688 9.96875 -3.765625 C 9.96875 -3.097656 9.867188 -2.523438 9.671875 -2.046875 C 9.484375 -1.578125 9.175781 -1.175781 8.75 -0.84375 Z M 3.78125 -7.15625 C 4.019531 -7.113281 4.320312 -7.09375 4.6875 -7.09375 C 5.050781 -7.09375 5.347656 -7.140625 5.578125 -7.234375 C 5.816406 -7.328125 6 -7.445312 6.125 -7.59375 C 6.332031 -7.820312 6.4375 -8.148438 6.4375 -8.578125 C 6.4375 -9.453125 5.914062 -9.890625 4.875 -9.890625 C 4.4375 -9.890625 4.070312 -9.875 3.78125 -9.84375 Z M 5.0625 -5.296875 C 4.570312 -5.296875 4.144531 -5.265625 3.78125 -5.203125 L 3.78125 -1.8125 C 4.175781 -1.707031 4.597656 -1.65625 5.046875 -1.65625 C 5.492188 -1.65625 5.882812 -1.707031 6.21875 -1.8125 C 6.550781 -1.914062 6.835938 -2.0625 7.078125 -2.25 C 7.535156 -2.625 7.765625 -3.109375 7.765625 -3.703125 C 7.765625 -4.765625 6.863281 -5.296875 5.0625 -5.296875 Z M 5.0625 -5.296875 "/></g></g></g><g fill="#ffffff" fill-opacity="1"><g transform="translate(162.673477, 256.064637)"><g><path d="M 8.75 -0.84375 C 8.320312 -0.507812 7.769531 -0.25 7.09375 -0.0625 C 6.425781 0.125 5.597656 0.21875 4.609375 0.21875 C 3.628906 0.21875 2.585938 0.128906 1.484375 -0.046875 L 1.484375 -11.4375 C 2.597656 -11.625 3.566406 -11.71875 4.390625 -11.71875 C 5.210938 -11.71875 5.882812 -11.640625 6.40625 -11.484375 C 6.9375 -11.328125 7.367188 -11.113281 7.703125 -10.84375 C 8.367188 -10.332031 8.703125 -9.664062 8.703125 -8.84375 C 8.703125 -8.03125 8.40625 -7.359375 7.8125 -6.828125 C 8.507812 -6.609375 9.050781 -6.191406 9.4375 -5.578125 C 9.789062 -5.035156 9.96875 -4.429688 9.96875 -3.765625 C 9.96875 -3.097656 9.867188 -2.523438 9.671875 -2.046875 C 9.484375 -1.578125 9.175781 -1.175781 8.75 -0.84375 Z M 3.78125 -7.15625 C 4.019531 -7.113281 4.320312 -7.09375 4.6875 -7.09375 C 5.050781 -7.09375 5.347656 -7.140625 5.578125 -7.234375 C 5.816406 -7.328125 6 -7.445312 6.125 -7.59375 C 6.332031 -7.820312 6.4375 -8.148438 6.4375 -8.578125 C 6.4375 -9.453125 5.914062 -9.890625 4.875 -9.890625 C 4.4375 -9.890625 4.070312 -9.875 3.78125 -9.84375 Z M 5.0625 -5.296875 C 4.570312 -5.296875 4.144531 -5.265625 3.78125 -5.203125 L 3.78125 -1.8125 C 4.175781 -1.707031 4.597656 -1.65625 5.046875 -1.65625 C 5.492188 -1.65625 5.882812 -1.707031 6.21875 -1.8125 C 6.550781 -1.914062 6.835938 -2.0625 7.078125 -2.25 C 7.535156 -2.625 7.765625 -3.109375 7.765625 -3.703125 C 7.765625 -4.765625 6.863281 -5.296875 5.0625 -5.296875 Z M 5.0625 -5.296875 "/></g></g></g><g fill="#ffffff" fill-opacity="1"><g transform="translate(175.494409, 256.064637)"><g><path d="M 3.171875 0 C 2.328125 0 1.765625 0.015625 1.484375 0.046875 L 1.484375 -11.546875 C 1.617188 -11.515625 1.90625 -11.5 2.34375 -11.5 C 2.78125 -11.5 3.285156 -11.507812 3.859375 -11.53125 L 3.859375 -2.078125 L 5.65625 -2.078125 C 6.175781 -2.078125 6.585938 -2.09375 6.890625 -2.125 C 6.859375 -0.78125 6.84375 -0.0820312 6.84375 -0.03125 L 6.84375 0.0625 C 6.269531 0.0195312 5.320312 0 4 0 Z M 3.171875 0 "/></g></g></g><g fill="#ffffff" fill-opacity="1"><g transform="translate(185.360194, 256.064637)"><g><path d="M 7.265625 -2.078125 C 7.628906 -2.078125 7.878906 -2.109375 8.015625 -2.171875 L 8.046875 -2.171875 L 7.96875 0 L 1.484375 0 L 1.484375 -11.5625 C 1.640625 -11.550781 1.8125 -11.539062 2 -11.53125 L 2.609375 -11.515625 C 3.015625 -11.503906 3.453125 -11.5 3.921875 -11.5 C 5.242188 -11.5 6.550781 -11.519531 7.84375 -11.5625 C 7.78125 -11.0625 7.75 -10.382812 7.75 -9.53125 C 7.75 -9.4375 7.753906 -9.367188 7.765625 -9.328125 L 7.75 -9.296875 C 7.445312 -9.390625 7.019531 -9.4375 6.46875 -9.4375 L 3.75 -9.4375 L 3.75 -7.21875 L 5.796875 -7.21875 C 6.429688 -7.21875 6.8125 -7.238281 6.9375 -7.28125 L 6.953125 -5.140625 C 6.679688 -5.171875 6.328125 -5.1875 5.890625 -5.1875 L 3.75 -5.1875 L 3.75 -2.078125 Z M 7.265625 -2.078125 "/></g></g></g><g fill="#ffffff" fill-opacity="1"><g transform="translate(196.703552, 256.064637)"><g/></g></g><g fill="#ffffff" fill-opacity="1"><g transform="translate(205.048559, 256.064637)"><g><path d="M 5.640625 0.046875 C 5.359375 0.015625 4.644531 0 3.5 0 L 3.21875 0 L 3.21875 -9.5625 L 1.515625 -9.5625 C 1.003906 -9.5625 0.703125 -9.535156 0.609375 -9.484375 C 0.515625 -9.429688 0.441406 -9.382812 0.390625 -9.34375 L 0.375 -9.359375 L 0.375 -11.5625 L 0.390625 -11.59375 C 0.585938 -11.53125 1.101562 -11.5 1.9375 -11.5 L 7.359375 -11.5 C 7.859375 -11.5 8.15625 -11.523438 8.25 -11.578125 C 8.34375 -11.628906 8.414062 -11.675781 8.46875 -11.71875 L 8.5 -11.703125 L 8.5 -9.484375 L 8.46875 -9.46875 C 8.28125 -9.53125 7.769531 -9.5625 6.9375 -9.5625 L 5.640625 -9.5625 Z M 5.640625 0.046875 "/></g></g></g><g fill="#ffffff" fill-opacity="1"><g transform="translate(216.391917, 256.064637)"><g><path d="M 7.265625 -2.078125 C 7.628906 -2.078125 7.878906 -2.109375 8.015625 -2.171875 L 8.046875 -2.171875 L 7.96875 0 L 1.484375 0 L 1.484375 -11.5625 C 1.640625 -11.550781 1.8125 -11.539062 2 -11.53125 L 2.609375 -11.515625 C 3.015625 -11.503906 3.453125 -11.5 3.921875 -11.5 C 5.242188 -11.5 6.550781 -11.519531 7.84375 -11.5625 C 7.78125 -11.0625 7.75 -10.382812 7.75 -9.53125 C 7.75 -9.4375 7.753906 -9.367188 7.765625 -9.328125 L 7.75 -9.296875 C 7.445312 -9.390625 7.019531 -9.4375 6.46875 -9.4375 L 3.75 -9.4375 L 3.75 -7.21875 L 5.796875 -7.21875 C 6.429688 -7.21875 6.8125 -7.238281 6.9375 -7.28125 L 6.953125 -5.140625 C 6.679688 -5.171875 6.328125 -5.1875 5.890625 -5.1875 L 3.75 -5.1875 L 3.75 -2.078125 Z M 7.265625 -2.078125 "/></g></g></g><g fill="#ffffff" fill-opacity="1"><g transform="translate(227.735276, 256.064637)"><g><path d="M 6.640625 -11.71875 C 7.710938 -11.71875 8.628906 -11.53125 9.390625 -11.15625 L 9.390625 -8.5 L 9.375 -8.484375 C 9.050781 -8.984375 8.375 -9.3125 7.34375 -9.46875 C 7.03125 -9.519531 6.640625 -9.546875 6.171875 -9.546875 C 5.710938 -9.546875 5.253906 -9.457031 4.796875 -9.28125 C 4.347656 -9.113281 3.984375 -8.867188 3.703125 -8.546875 C 3.140625 -7.910156 2.859375 -7.015625 2.859375 -5.859375 C 2.859375 -4.503906 3.210938 -3.492188 3.921875 -2.828125 C 4.515625 -2.273438 5.296875 -2 6.265625 -2 C 7.359375 -2 8.242188 -2.234375 8.921875 -2.703125 C 9.171875 -2.867188 9.378906 -3.070312 9.546875 -3.3125 L 9.578125 -3.296875 L 9.578125 -0.875 C 8.691406 -0.144531 7.503906 0.21875 6.015625 0.21875 C 4.253906 0.21875 2.878906 -0.335938 1.890625 -1.453125 C 0.929688 -2.523438 0.453125 -3.941406 0.453125 -5.703125 C 0.453125 -7.554688 0.972656 -9.019531 2.015625 -10.09375 C 3.078125 -11.175781 4.617188 -11.71875 6.640625 -11.71875 Z M 6.640625 -11.71875 "/></g></g></g><g fill="#ffffff" fill-opacity="1"><g transform="translate(240.47844, 256.064637)"><g><path d="M 3.828125 0.046875 C 3.265625 0.015625 2.601562 0 1.84375 0 L 1.578125 0 L 1.578125 -11.546875 C 1.929688 -11.515625 2.179688 -11.5 2.328125 -11.5 L 2.6875 -11.5 C 3.144531 -11.5 3.523438 -11.519531 3.828125 -11.5625 L 3.828125 -6.953125 L 7.890625 -6.953125 L 7.890625 -11.546875 C 8.359375 -11.515625 8.816406 -11.5 9.265625 -11.5 C 9.722656 -11.5 10.007812 -11.519531 10.125 -11.5625 L 10.125 0.046875 C 9.851562 0.015625 9.304688 0 8.484375 0 L 7.890625 0 L 7.890625 -4.890625 L 3.828125 -4.890625 Z M 3.828125 0.046875 "/></g></g></g></svg>