<svg xmlns="http://www.w3.org/2000/svg" xmlns:xlink="http://www.w3.org/1999/xlink" width="500" zoomAndPan="magnify" viewBox="0 0 375 374.999991" height="500" preserveAspectRatio="xMidYMid meet" version="1.0"><defs><g/><clipPath id="f7d436b67a"><path d="M 55 136 L 67 136 L 67 141 L 55 141 Z M 55 136 " clip-rule="nonzero"/></clipPath><clipPath id="c13c2ee0d2"><path d="M 1.882812 177.042969 L 92.046875 112.300781 L 153.726562 198.199219 L 63.5625 262.941406 Z M 1.882812 177.042969 " clip-rule="nonzero"/></clipPath><clipPath id="2a5facc5e5"><path d="M 1.882812 177.042969 L 92.046875 112.300781 L 153.726562 198.199219 L 63.5625 262.941406 Z M 1.882812 177.042969 " clip-rule="nonzero"/></clipPath><clipPath id="fcffaf3d8b"><path d="M 61 135 L 71 135 L 71 141 L 61 141 Z M 61 135 " clip-rule="nonzero"/></clipPath><clipPath id="9490499612"><path d="M 1.882812 177.042969 L 92.046875 112.300781 L 153.726562 198.199219 L 63.5625 262.941406 Z M 1.882812 177.042969 " clip-rule="nonzero"/></clipPath><clipPath id="7c734caa19"><path d="M 1.882812 177.042969 L 92.046875 112.300781 L 153.726562 198.199219 L 63.5625 262.941406 Z M 1.882812 177.042969 " clip-rule="nonzero"/></clipPath><clipPath id="1e9484d813"><path d="M 69 135 L 76 135 L 76 141 L 69 141 Z M 69 135 " clip-rule="nonzero"/></clipPath><clipPath id="f95db65adb"><path d="M 1.882812 177.042969 L 92.046875 112.300781 L 153.726562 198.199219 L 63.5625 262.941406 Z M 1.882812 177.042969 " clip-rule="nonzero"/></clipPath><clipPath id="0675df1d9b"><path d="M 1.882812 177.042969 L 92.046875 112.300781 L 153.726562 198.199219 L 63.5625 262.941406 Z M 1.882812 177.042969 " clip-rule="nonzero"/></clipPath><clipPath id="ec0c64cb68"><path d="M 77 135 L 84 135 L 84 141 L 77 141 Z M 77 135 " clip-rule="nonzero"/></clipPath><clipPath id="b0ab8e551d"><path d="M 1.882812 177.042969 L 92.046875 112.300781 L 153.726562 198.199219 L 63.5625 262.941406 Z M 1.882812 177.042969 " clip-rule="nonzero"/></clipPath><clipPath id="bec81c7d48"><path d="M 1.882812 177.042969 L 92.046875 112.300781 L 153.726562 198.199219 L 63.5625 262.941406 Z M 1.882812 177.042969 " clip-rule="nonzero"/></clipPath><clipPath id="41173cac11"><path d="M 85 135 L 92 135 L 92 141 L 85 141 Z M 85 135 " clip-rule="nonzero"/></clipPath><clipPath id="bc865cf562"><path d="M 1.882812 177.042969 L 92.046875 112.300781 L 153.726562 198.199219 L 63.5625 262.941406 Z M 1.882812 177.042969 " clip-rule="nonzero"/></clipPath><clipPath id="5d09a8450b"><path d="M 1.882812 177.042969 L 92.046875 112.300781 L 153.726562 198.199219 L 63.5625 262.941406 Z M 1.882812 177.042969 " clip-rule="nonzero"/></clipPath><clipPath id="d274db202e"><path d="M 90 136 L 100 136 L 100 141 L 90 141 Z M 90 136 " clip-rule="nonzero"/></clipPath><clipPath id="dbf80dd42a"><path d="M 1.882812 177.042969 L 92.046875 112.300781 L 153.726562 198.199219 L 63.5625 262.941406 Z M 1.882812 177.042969 " clip-rule="nonzero"/></clipPath><clipPath id="6ec2a7872f"><path d="M 1.882812 177.042969 L 92.046875 112.300781 L 153.726562 198.199219 L 63.5625 262.941406 Z M 1.882812 177.042969 " clip-rule="nonzero"/></clipPath><clipPath id="a8aaaf1453"><path d="M 93 136 L 106 136 L 106 142 L 93 142 Z M 93 136 " clip-rule="nonzero"/></clipPath><clipPath id="b97806360d"><path d="M 1.882812 177.042969 L 92.046875 112.300781 L 153.726562 198.199219 L 63.5625 262.941406 Z M 1.882812 177.042969 " clip-rule="nonzero"/></clipPath><clipPath id="0960b63035"><path d="M 1.882812 177.042969 L 92.046875 112.300781 L 153.726562 198.199219 L 63.5625 262.941406 Z M 1.882812 177.042969 " clip-rule="nonzero"/></clipPath><clipPath id="c6ae4a5470"><path d="M 40 142 L 51 142 L 51 152 L 40 152 Z M 40 142 " clip-rule="nonzero"/></clipPath><clipPath id="2dedc2cec4"><path d="M 1.882812 177.042969 L 92.046875 112.300781 L 153.726562 198.199219 L 63.5625 262.941406 Z M 1.882812 177.042969 " clip-rule="nonzero"/></clipPath><clipPath id="6dcafd41ec"><path d="M 1.882812 177.042969 L 92.046875 112.300781 L 153.726562 198.199219 L 63.5625 262.941406 Z M 1.882812 177.042969 " clip-rule="nonzero"/></clipPath><clipPath id="26ea6de858"><path d="M 46 142 L 57 142 L 57 151 L 46 151 Z M 46 142 " clip-rule="nonzero"/></clipPath><clipPath id="413cfc0c1d"><path d="M 1.882812 177.042969 L 92.046875 112.300781 L 153.726562 198.199219 L 63.5625 262.941406 Z M 1.882812 177.042969 " clip-rule="nonzero"/></clipPath><clipPath id="f10533f47b"><path d="M 1.882812 177.042969 L 92.046875 112.300781 L 153.726562 198.199219 L 63.5625 262.941406 Z M 1.882812 177.042969 " clip-rule="nonzero"/></clipPath><clipPath id="4693513ce3"><path d="M 56 141 L 67 141 L 67 150 L 56 150 Z M 56 141 " clip-rule="nonzero"/></clipPath><clipPath id="55069e0727"><path d="M 1.882812 177.042969 L 92.046875 112.300781 L 153.726562 198.199219 L 63.5625 262.941406 Z M 1.882812 177.042969 " clip-rule="nonzero"/></clipPath><clipPath id="90407ea39d"><path d="M 1.882812 177.042969 L 92.046875 112.300781 L 153.726562 198.199219 L 63.5625 262.941406 Z M 1.882812 177.042969 " clip-rule="nonzero"/></clipPath><clipPath id="64ef10bdef"><path d="M 69 141 L 79 141 L 79 150 L 69 150 Z M 69 141 " clip-rule="nonzero"/></clipPath><clipPath id="0a7d788371"><path d="M 1.882812 177.042969 L 92.046875 112.300781 L 153.726562 198.199219 L 63.5625 262.941406 Z M 1.882812 177.042969 " clip-rule="nonzero"/></clipPath><clipPath id="6ca66b8b94"><path d="M 1.882812 177.042969 L 92.046875 112.300781 L 153.726562 198.199219 L 63.5625 262.941406 Z M 1.882812 177.042969 " clip-rule="nonzero"/></clipPath><clipPath id="afccccf7c5"><path d="M 82 142 L 92 142 L 92 151 L 82 151 Z M 82 142 " clip-rule="nonzero"/></clipPath><clipPath id="1df220a6de"><path d="M 1.882812 177.042969 L 92.046875 112.300781 L 153.726562 198.199219 L 63.5625 262.941406 Z M 1.882812 177.042969 " clip-rule="nonzero"/></clipPath><clipPath id="7ba0e7df12"><path d="M 1.882812 177.042969 L 92.046875 112.300781 L 153.726562 198.199219 L 63.5625 262.941406 Z M 1.882812 177.042969 " clip-rule="nonzero"/></clipPath><clipPath id="932b599a02"><path d="M 94 142 L 104 142 L 104 151 L 94 151 Z M 94 142 " clip-rule="nonzero"/></clipPath><clipPath id="054baf32d3"><path d="M 1.882812 177.042969 L 92.046875 112.300781 L 153.726562 198.199219 L 63.5625 262.941406 Z M 1.882812 177.042969 " clip-rule="nonzero"/></clipPath><clipPath id="7e402627d1"><path d="M 1.882812 177.042969 L 92.046875 112.300781 L 153.726562 198.199219 L 63.5625 262.941406 Z M 1.882812 177.042969 " clip-rule="nonzero"/></clipPath><clipPath id="c62792804c"><path d="M 103 143 L 114 143 L 114 152 L 103 152 Z M 103 143 " clip-rule="nonzero"/></clipPath><clipPath id="3cf6aa9042"><path d="M 1.882812 177.042969 L 92.046875 112.300781 L 153.726562 198.199219 L 63.5625 262.941406 Z M 1.882812 177.042969 " clip-rule="nonzero"/></clipPath><clipPath id="0c6864ca43"><path d="M 1.882812 177.042969 L 92.046875 112.300781 L 153.726562 198.199219 L 63.5625 262.941406 Z M 1.882812 177.042969 " clip-rule="nonzero"/></clipPath><clipPath id="0d8752a3d3"><path d="M 109 143 L 120 143 L 120 153 L 109 153 Z M 109 143 " clip-rule="nonzero"/></clipPath><clipPath id="12f14a129c"><path d="M 1.882812 177.042969 L 92.046875 112.300781 L 153.726562 198.199219 L 63.5625 262.941406 Z M 1.882812 177.042969 " clip-rule="nonzero"/></clipPath><clipPath id="c7b309d676"><path d="M 1.882812 177.042969 L 92.046875 112.300781 L 153.726562 198.199219 L 63.5625 262.941406 Z M 1.882812 177.042969 " clip-rule="nonzero"/></clipPath><clipPath id="0148b8c516"><path d="M 30 153 L 39 153 L 39 165 L 30 165 Z M 30 153 " clip-rule="nonzero"/></clipPath><clipPath id="c4c30c2a6b"><path d="M 1.882812 177.042969 L 92.046875 112.300781 L 153.726562 198.199219 L 63.5625 262.941406 Z M 1.882812 177.042969 " clip-rule="nonzero"/></clipPath><clipPath id="db512eae68"><path d="M 1.882812 177.042969 L 92.046875 112.300781 L 153.726562 198.199219 L 63.5625 262.941406 Z M 1.882812 177.042969 " clip-rule="nonzero"/></clipPath><clipPath id="9d73f9f1c3"><path d="M 34 152 L 43 152 L 43 164 L 34 164 Z M 34 152 " clip-rule="nonzero"/></clipPath><clipPath id="b6c0a8dd24"><path d="M 1.882812 177.042969 L 92.046875 112.300781 L 153.726562 198.199219 L 63.5625 262.941406 Z M 1.882812 177.042969 " clip-rule="nonzero"/></clipPath><clipPath id="bcaddc164a"><path d="M 1.882812 177.042969 L 92.046875 112.300781 L 153.726562 198.199219 L 63.5625 262.941406 Z M 1.882812 177.042969 " clip-rule="nonzero"/></clipPath><clipPath id="e0066ff0ea"><path d="M 43 151 L 54 151 L 54 163 L 43 163 Z M 43 151 " clip-rule="nonzero"/></clipPath><clipPath id="9b84b58ecb"><path d="M 1.882812 177.042969 L 92.046875 112.300781 L 153.726562 198.199219 L 63.5625 262.941406 Z M 1.882812 177.042969 " clip-rule="nonzero"/></clipPath><clipPath id="2e951c2dd4"><path d="M 1.882812 177.042969 L 92.046875 112.300781 L 153.726562 198.199219 L 63.5625 262.941406 Z M 1.882812 177.042969 " clip-rule="nonzero"/></clipPath><clipPath id="87b4a9c95d"><path d="M 57 151 L 70 151 L 70 163 L 57 163 Z M 57 151 " clip-rule="nonzero"/></clipPath><clipPath id="9b04b01edd"><path d="M 1.882812 177.042969 L 92.046875 112.300781 L 153.726562 198.199219 L 63.5625 262.941406 Z M 1.882812 177.042969 " clip-rule="nonzero"/></clipPath><clipPath id="2b2839a3de"><path d="M 1.882812 177.042969 L 92.046875 112.300781 L 153.726562 198.199219 L 63.5625 262.941406 Z M 1.882812 177.042969 " clip-rule="nonzero"/></clipPath><clipPath id="ed53e81ebc"><path d="M 74 151 L 86 151 L 86 163 L 74 163 Z M 74 151 " clip-rule="nonzero"/></clipPath><clipPath id="2437e0af97"><path d="M 1.882812 177.042969 L 92.046875 112.300781 L 153.726562 198.199219 L 63.5625 262.941406 Z M 1.882812 177.042969 " clip-rule="nonzero"/></clipPath><clipPath id="a07b9e9c57"><path d="M 1.882812 177.042969 L 92.046875 112.300781 L 153.726562 198.199219 L 63.5625 262.941406 Z M 1.882812 177.042969 " clip-rule="nonzero"/></clipPath><clipPath id="45ecf5e0c8"><path d="M 91 152 L 103 152 L 103 164 L 91 164 Z M 91 152 " clip-rule="nonzero"/></clipPath><clipPath id="2a21bc5eb8"><path d="M 1.882812 177.042969 L 92.046875 112.300781 L 153.726562 198.199219 L 63.5625 262.941406 Z M 1.882812 177.042969 " clip-rule="nonzero"/></clipPath><clipPath id="25824c3ba0"><path d="M 1.882812 177.042969 L 92.046875 112.300781 L 153.726562 198.199219 L 63.5625 262.941406 Z M 1.882812 177.042969 " clip-rule="nonzero"/></clipPath><clipPath id="c1a934aa0e"><path d="M 105 152 L 116 152 L 116 164 L 105 164 Z M 105 152 " clip-rule="nonzero"/></clipPath><clipPath id="4ed85fa39f"><path d="M 1.882812 177.042969 L 92.046875 112.300781 L 153.726562 198.199219 L 63.5625 262.941406 Z M 1.882812 177.042969 " clip-rule="nonzero"/></clipPath><clipPath id="e21c207af9"><path d="M 1.882812 177.042969 L 92.046875 112.300781 L 153.726562 198.199219 L 63.5625 262.941406 Z M 1.882812 177.042969 " clip-rule="nonzero"/></clipPath><clipPath id="9237e7ac04"><path d="M 117 153 L 126 153 L 126 166 L 117 166 Z M 117 153 " clip-rule="nonzero"/></clipPath><clipPath id="419b37b0ca"><path d="M 1.882812 177.042969 L 92.046875 112.300781 L 153.726562 198.199219 L 63.5625 262.941406 Z M 1.882812 177.042969 " clip-rule="nonzero"/></clipPath><clipPath id="b9d4a5b742"><path d="M 1.882812 177.042969 L 92.046875 112.300781 L 153.726562 198.199219 L 63.5625 262.941406 Z M 1.882812 177.042969 " clip-rule="nonzero"/></clipPath><clipPath id="5d0293b6fb"><path d="M 122 154 L 130 154 L 130 167 L 122 167 Z M 122 154 " clip-rule="nonzero"/></clipPath><clipPath id="de7e3e7e56"><path d="M 1.882812 177.042969 L 92.046875 112.300781 L 153.726562 198.199219 L 63.5625 262.941406 Z M 1.882812 177.042969 " clip-rule="nonzero"/></clipPath><clipPath id="dfc8e906e1"><path d="M 1.882812 177.042969 L 92.046875 112.300781 L 153.726562 198.199219 L 63.5625 262.941406 Z M 1.882812 177.042969 " clip-rule="nonzero"/></clipPath><clipPath id="e97ffe60cc"><path d="M 26 165 L 33 165 L 33 179 L 26 179 Z M 26 165 " clip-rule="nonzero"/></clipPath><clipPath id="c8a4332dbe"><path d="M 1.882812 177.042969 L 92.046875 112.300781 L 153.726562 198.199219 L 63.5625 262.941406 Z M 1.882812 177.042969 " clip-rule="nonzero"/></clipPath><clipPath id="f052a850db"><path d="M 1.882812 177.042969 L 92.046875 112.300781 L 153.726562 198.199219 L 63.5625 262.941406 Z M 1.882812 177.042969 " clip-rule="nonzero"/></clipPath><clipPath id="b12c659ca9"><path d="M 33 164 L 43 164 L 43 178 L 33 178 Z M 33 164 " clip-rule="nonzero"/></clipPath><clipPath id="8bb35a48ed"><path d="M 1.882812 177.042969 L 92.046875 112.300781 L 153.726562 198.199219 L 63.5625 262.941406 Z M 1.882812 177.042969 " clip-rule="nonzero"/></clipPath><clipPath id="8fc2cfaf07"><path d="M 1.882812 177.042969 L 92.046875 112.300781 L 153.726562 198.199219 L 63.5625 262.941406 Z M 1.882812 177.042969 " clip-rule="nonzero"/></clipPath><clipPath id="07ac1dd55f"><path d="M 46 163 L 59 163 L 59 177 L 46 177 Z M 46 163 " clip-rule="nonzero"/></clipPath><clipPath id="d4280e1120"><path d="M 1.882812 177.042969 L 92.046875 112.300781 L 153.726562 198.199219 L 63.5625 262.941406 Z M 1.882812 177.042969 " clip-rule="nonzero"/></clipPath><clipPath id="1196aafbda"><path d="M 1.882812 177.042969 L 92.046875 112.300781 L 153.726562 198.199219 L 63.5625 262.941406 Z M 1.882812 177.042969 " clip-rule="nonzero"/></clipPath><clipPath id="cb67fb0920"><path d="M 64 163 L 78 163 L 78 177 L 64 177 Z M 64 163 " clip-rule="nonzero"/></clipPath><clipPath id="8bd779401b"><path d="M 1.882812 177.042969 L 92.046875 112.300781 L 153.726562 198.199219 L 63.5625 262.941406 Z M 1.882812 177.042969 " clip-rule="nonzero"/></clipPath><clipPath id="e83f36d8ff"><path d="M 1.882812 177.042969 L 92.046875 112.300781 L 153.726562 198.199219 L 63.5625 262.941406 Z M 1.882812 177.042969 " clip-rule="nonzero"/></clipPath><clipPath id="95151543df"><path d="M 101 164 L 113 164 L 113 178 L 101 178 Z M 101 164 " clip-rule="nonzero"/></clipPath><clipPath id="b632041cc1"><path d="M 1.882812 177.042969 L 92.046875 112.300781 L 153.726562 198.199219 L 63.5625 262.941406 Z M 1.882812 177.042969 " clip-rule="nonzero"/></clipPath><clipPath id="319bc99fdd"><path d="M 1.882812 177.042969 L 92.046875 112.300781 L 153.726562 198.199219 L 63.5625 262.941406 Z M 1.882812 177.042969 " clip-rule="nonzero"/></clipPath><clipPath id="7400eefb97"><path d="M 24 181 L 26 181 L 26 196 L 24 196 Z M 24 181 " clip-rule="nonzero"/></clipPath><clipPath id="d998de776b"><path d="M 1.882812 177.042969 L 92.046875 112.300781 L 153.726562 198.199219 L 63.5625 262.941406 Z M 1.882812 177.042969 " clip-rule="nonzero"/></clipPath><clipPath id="ee718564c4"><path d="M 1.882812 177.042969 L 92.046875 112.300781 L 153.726562 198.199219 L 63.5625 262.941406 Z M 1.882812 177.042969 " clip-rule="nonzero"/></clipPath><clipPath id="35f179a390"><path d="M 27 180 L 34 180 L 34 195 L 27 195 Z M 27 180 " clip-rule="nonzero"/></clipPath><clipPath id="b1fe9768ae"><path d="M 1.882812 177.042969 L 92.046875 112.300781 L 153.726562 198.199219 L 63.5625 262.941406 Z M 1.882812 177.042969 " clip-rule="nonzero"/></clipPath><clipPath id="bb0d420b02"><path d="M 1.882812 177.042969 L 92.046875 112.300781 L 153.726562 198.199219 L 63.5625 262.941406 Z M 1.882812 177.042969 " clip-rule="nonzero"/></clipPath><clipPath id="b506f5b82f"><path d="M 37 179 L 48 179 L 48 194 L 37 194 Z M 37 179 " clip-rule="nonzero"/></clipPath><clipPath id="371e0cfcb2"><path d="M 1.882812 177.042969 L 92.046875 112.300781 L 153.726562 198.199219 L 63.5625 262.941406 Z M 1.882812 177.042969 " clip-rule="nonzero"/></clipPath><clipPath id="9aad9096bc"><path d="M 1.882812 177.042969 L 92.046875 112.300781 L 153.726562 198.199219 L 63.5625 262.941406 Z M 1.882812 177.042969 " clip-rule="nonzero"/></clipPath><clipPath id="8aae34e596"><path d="M 53 179 L 67 179 L 67 194 L 53 194 Z M 53 179 " clip-rule="nonzero"/></clipPath><clipPath id="229618c9af"><path d="M 1.882812 177.042969 L 92.046875 112.300781 L 153.726562 198.199219 L 63.5625 262.941406 Z M 1.882812 177.042969 " clip-rule="nonzero"/></clipPath><clipPath id="470a7cfe10"><path d="M 1.882812 177.042969 L 92.046875 112.300781 L 153.726562 198.199219 L 63.5625 262.941406 Z M 1.882812 177.042969 " clip-rule="nonzero"/></clipPath><clipPath id="7fb34b23ff"><path d="M 72 179 L 87 179 L 87 194 L 72 194 Z M 72 179 " clip-rule="nonzero"/></clipPath><clipPath id="7775acf42c"><path d="M 1.882812 177.042969 L 92.046875 112.300781 L 153.726562 198.199219 L 63.5625 262.941406 Z M 1.882812 177.042969 " clip-rule="nonzero"/></clipPath><clipPath id="c7b8a86d11"><path d="M 1.882812 177.042969 L 92.046875 112.300781 L 153.726562 198.199219 L 63.5625 262.941406 Z M 1.882812 177.042969 " clip-rule="nonzero"/></clipPath><clipPath id="f982a72505"><path d="M 26 198 L 32 198 L 32 212 L 26 212 Z M 26 198 " clip-rule="nonzero"/></clipPath><clipPath id="b57f762095"><path d="M 1.882812 177.042969 L 92.046875 112.300781 L 153.726562 198.199219 L 63.5625 262.941406 Z M 1.882812 177.042969 " clip-rule="nonzero"/></clipPath><clipPath id="934bca050e"><path d="M 1.882812 177.042969 L 92.046875 112.300781 L 153.726562 198.199219 L 63.5625 262.941406 Z M 1.882812 177.042969 " clip-rule="nonzero"/></clipPath><clipPath id="3f45ccf86e"><path d="M 33 197 L 42 197 L 42 211 L 33 211 Z M 33 197 " clip-rule="nonzero"/></clipPath><clipPath id="d816669577"><path d="M 1.882812 177.042969 L 92.046875 112.300781 L 153.726562 198.199219 L 63.5625 262.941406 Z M 1.882812 177.042969 " clip-rule="nonzero"/></clipPath><clipPath id="de4c17af0b"><path d="M 1.882812 177.042969 L 92.046875 112.300781 L 153.726562 198.199219 L 63.5625 262.941406 Z M 1.882812 177.042969 " clip-rule="nonzero"/></clipPath><clipPath id="3a54f3d8eb"><path d="M 46 197 L 58 197 L 58 211 L 46 211 Z M 46 197 " clip-rule="nonzero"/></clipPath><clipPath id="2d34b1b022"><path d="M 1.882812 177.042969 L 92.046875 112.300781 L 153.726562 198.199219 L 63.5625 262.941406 Z M 1.882812 177.042969 " clip-rule="nonzero"/></clipPath><clipPath id="ff74f11db7"><path d="M 1.882812 177.042969 L 92.046875 112.300781 L 153.726562 198.199219 L 63.5625 262.941406 Z M 1.882812 177.042969 " clip-rule="nonzero"/></clipPath><clipPath id="f497ee6c25"><path d="M 63 197 L 77 197 L 77 211 L 63 211 Z M 63 197 " clip-rule="nonzero"/></clipPath><clipPath id="30d4d0b780"><path d="M 1.882812 177.042969 L 92.046875 112.300781 L 153.726562 198.199219 L 63.5625 262.941406 Z M 1.882812 177.042969 " clip-rule="nonzero"/></clipPath><clipPath id="41f147afba"><path d="M 1.882812 177.042969 L 92.046875 112.300781 L 153.726562 198.199219 L 63.5625 262.941406 Z M 1.882812 177.042969 " clip-rule="nonzero"/></clipPath><clipPath id="5e0908e0f1"><path d="M 30 214 L 39 214 L 39 226 L 30 226 Z M 30 214 " clip-rule="nonzero"/></clipPath><clipPath id="0a5d498c19"><path d="M 1.882812 177.042969 L 92.046875 112.300781 L 153.726562 198.199219 L 63.5625 262.941406 Z M 1.882812 177.042969 " clip-rule="nonzero"/></clipPath><clipPath id="7c2e7d7e7e"><path d="M 1.882812 177.042969 L 92.046875 112.300781 L 153.726562 198.199219 L 63.5625 262.941406 Z M 1.882812 177.042969 " clip-rule="nonzero"/></clipPath><clipPath id="bd40fde4dd"><path d="M 34 213 L 43 213 L 43 225 L 34 225 Z M 34 213 " clip-rule="nonzero"/></clipPath><clipPath id="31c7572fc2"><path d="M 1.882812 177.042969 L 92.046875 112.300781 L 153.726562 198.199219 L 63.5625 262.941406 Z M 1.882812 177.042969 " clip-rule="nonzero"/></clipPath><clipPath id="2b67063c7b"><path d="M 1.882812 177.042969 L 92.046875 112.300781 L 153.726562 198.199219 L 63.5625 262.941406 Z M 1.882812 177.042969 " clip-rule="nonzero"/></clipPath><clipPath id="8b86bf61d5"><path d="M 43 213 L 54 213 L 54 225 L 43 225 Z M 43 213 " clip-rule="nonzero"/></clipPath><clipPath id="7e0c762f1e"><path d="M 1.882812 177.042969 L 92.046875 112.300781 L 153.726562 198.199219 L 63.5625 262.941406 Z M 1.882812 177.042969 " clip-rule="nonzero"/></clipPath><clipPath id="5699c1ff6d"><path d="M 1.882812 177.042969 L 92.046875 112.300781 L 153.726562 198.199219 L 63.5625 262.941406 Z M 1.882812 177.042969 " clip-rule="nonzero"/></clipPath><clipPath id="3574696663"><path d="M 40 226 L 51 226 L 51 236 L 40 236 Z M 40 226 " clip-rule="nonzero"/></clipPath><clipPath id="bccb2b4271"><path d="M 1.882812 177.042969 L 92.046875 112.300781 L 153.726562 198.199219 L 63.5625 262.941406 Z M 1.882812 177.042969 " clip-rule="nonzero"/></clipPath><clipPath id="1f7e03e201"><path d="M 1.882812 177.042969 L 92.046875 112.300781 L 153.726562 198.199219 L 63.5625 262.941406 Z M 1.882812 177.042969 " clip-rule="nonzero"/></clipPath><clipPath id="810b20370d"><path d="M 46 226 L 56 226 L 56 236 L 46 236 Z M 46 226 " clip-rule="nonzero"/></clipPath><clipPath id="4d7153bacc"><path d="M 1.882812 177.042969 L 92.046875 112.300781 L 153.726562 198.199219 L 63.5625 262.941406 Z M 1.882812 177.042969 " clip-rule="nonzero"/></clipPath><clipPath id="0fa20cb1e3"><path d="M 1.882812 177.042969 L 92.046875 112.300781 L 153.726562 198.199219 L 63.5625 262.941406 Z M 1.882812 177.042969 " clip-rule="nonzero"/></clipPath><clipPath id="7ecc9a83a1"><path d="M 55 225 L 66 225 L 66 235 L 55 235 Z M 55 225 " clip-rule="nonzero"/></clipPath><clipPath id="7cf0061e84"><path d="M 1.882812 177.042969 L 92.046875 112.300781 L 153.726562 198.199219 L 63.5625 262.941406 Z M 1.882812 177.042969 " clip-rule="nonzero"/></clipPath><clipPath id="46e3b37ce8"><path d="M 1.882812 177.042969 L 92.046875 112.300781 L 153.726562 198.199219 L 63.5625 262.941406 Z M 1.882812 177.042969 " clip-rule="nonzero"/></clipPath><clipPath id="7389b8294f"><path d="M 68 225 L 78 225 L 78 235 L 68 235 Z M 68 225 " clip-rule="nonzero"/></clipPath><clipPath id="d4220bcc73"><path d="M 1.882812 177.042969 L 92.046875 112.300781 L 153.726562 198.199219 L 63.5625 262.941406 Z M 1.882812 177.042969 " clip-rule="nonzero"/></clipPath><clipPath id="f9f1813e46"><path d="M 1.882812 177.042969 L 92.046875 112.300781 L 153.726562 198.199219 L 63.5625 262.941406 Z M 1.882812 177.042969 " clip-rule="nonzero"/></clipPath><clipPath id="a6439e7e32"><path d="M 54 236 L 66 236 L 66 243 L 54 243 Z M 54 236 " clip-rule="nonzero"/></clipPath><clipPath id="8ade9bf056"><path d="M 1.882812 177.042969 L 92.046875 112.300781 L 153.726562 198.199219 L 63.5625 262.941406 Z M 1.882812 177.042969 " clip-rule="nonzero"/></clipPath><clipPath id="653e3e87f8"><path d="M 1.882812 177.042969 L 92.046875 112.300781 L 153.726562 198.199219 L 63.5625 262.941406 Z M 1.882812 177.042969 " clip-rule="nonzero"/></clipPath><clipPath id="ca5b6c069c"><path d="M 59 236 L 70 236 L 70 243 L 59 243 Z M 59 236 " clip-rule="nonzero"/></clipPath><clipPath id="02a80e2bbd"><path d="M 1.882812 177.042969 L 92.046875 112.300781 L 153.726562 198.199219 L 63.5625 262.941406 Z M 1.882812 177.042969 " clip-rule="nonzero"/></clipPath><clipPath id="eacc89cba6"><path d="M 1.882812 177.042969 L 92.046875 112.300781 L 153.726562 198.199219 L 63.5625 262.941406 Z M 1.882812 177.042969 " clip-rule="nonzero"/></clipPath><clipPath id="e0fb804c1f"><path d="M 67 236 L 75 236 L 75 243 L 67 243 Z M 67 236 " clip-rule="nonzero"/></clipPath><clipPath id="e283f2221c"><path d="M 1.882812 177.042969 L 92.046875 112.300781 L 153.726562 198.199219 L 63.5625 262.941406 Z M 1.882812 177.042969 " clip-rule="nonzero"/></clipPath><clipPath id="971a4b63a2"><path d="M 1.882812 177.042969 L 92.046875 112.300781 L 153.726562 198.199219 L 63.5625 262.941406 Z M 1.882812 177.042969 " clip-rule="nonzero"/></clipPath><clipPath id="bd2b819e13"><path d="M 76 236 L 82 236 L 82 243 L 76 243 Z M 76 236 " clip-rule="nonzero"/></clipPath><clipPath id="5af28cebfb"><path d="M 1.882812 177.042969 L 92.046875 112.300781 L 153.726562 198.199219 L 63.5625 262.941406 Z M 1.882812 177.042969 " clip-rule="nonzero"/></clipPath><clipPath id="3b80d8aec1"><path d="M 1.882812 177.042969 L 92.046875 112.300781 L 153.726562 198.199219 L 63.5625 262.941406 Z M 1.882812 177.042969 " clip-rule="nonzero"/></clipPath><clipPath id="5769af9a3d"><path d="M 83 236 L 90 236 L 90 243 L 83 243 Z M 83 236 " clip-rule="nonzero"/></clipPath><clipPath id="76b6fb050f"><path d="M 1.882812 177.042969 L 92.046875 112.300781 L 153.726562 198.199219 L 63.5625 262.941406 Z M 1.882812 177.042969 " clip-rule="nonzero"/></clipPath><clipPath id="597cfcf9f1"><path d="M 1.882812 177.042969 L 92.046875 112.300781 L 153.726562 198.199219 L 63.5625 262.941406 Z M 1.882812 177.042969 " clip-rule="nonzero"/></clipPath><clipPath id="adbe0bc5d5"><path d="M 88 237 L 98 237 L 98 243 L 88 243 Z M 88 237 " clip-rule="nonzero"/></clipPath><clipPath id="674207069f"><path d="M 1.882812 177.042969 L 92.046875 112.300781 L 153.726562 198.199219 L 63.5625 262.941406 Z M 1.882812 177.042969 " clip-rule="nonzero"/></clipPath><clipPath id="bec5c4de45"><path d="M 1.882812 177.042969 L 92.046875 112.300781 L 153.726562 198.199219 L 63.5625 262.941406 Z M 1.882812 177.042969 " clip-rule="nonzero"/></clipPath></defs><rect x="-37.5" width="450" fill="#ffffff" y="-37.499999" height="449.999989" fill-opacity="1"/><rect x="-37.5" width="450" fill="#ffffff" y="-37.499999" height="449.999989" fill-opacity="1"/><g clip-path="url(#f7d436b67a)"><g clip-path="url(#c13c2ee0d2)"><g clip-path="url(#2a5facc5e5)"><path fill="#0558ee" d="M 61.992188 138.089844 C 56.265625 140.660156 55.925781 140.8125 55.570312 140.652344 C 55.976562 139.460938 64.03125 136.449219 66.945312 136.007812 C 66.828125 136.101562 66.828125 136.101562 66.238281 136.324219 C 65.066406 136.765625 63.894531 137.230469 61.992188 138.089844 " fill-opacity="1" fill-rule="nonzero"/></g></g></g><g clip-path="url(#fcffaf3d8b)"><g clip-path="url(#9490499612)"><g clip-path="url(#7c734caa19)"><path fill="#0558ee" d="M 67.726562 137.824219 C 63.257812 140.53125 60.882812 140.675781 61.132812 139.847656 C 61.578125 138.378906 67.726562 135.992188 70.273438 135.789062 C 70.335938 135.792969 70.417969 135.796875 70.480469 135.808594 C 70.492188 135.832031 70.507812 135.863281 70.519531 135.886719 C 70.289062 136.273438 67.832031 137.761719 67.726562 137.824219 " fill-opacity="1" fill-rule="nonzero"/></g></g></g><g clip-path="url(#1e9484d813)"><g clip-path="url(#f95db65adb)"><g clip-path="url(#0675df1d9b)"><path fill="#0558ee" d="M 75.285156 137.75 C 73.359375 140.257812 69.324219 140.691406 69.128906 139.296875 C 68.914062 137.765625 72.945312 135.789062 75.144531 135.691406 C 76.800781 135.753906 75.347656 137.671875 75.285156 137.75 " fill-opacity="1" fill-rule="nonzero"/></g></g></g><g clip-path="url(#ec0c64cb68)"><g clip-path="url(#b0ab8e551d)"><g clip-path="url(#bec81c7d48)"><path fill="#0558ee" d="M 83.25 137.875 C 83.648438 139.921875 80.464844 140.839844 78.664062 139.65625 C 76.773438 138.410156 78.144531 136.183594 79.984375 135.789062 C 80.210938 135.738281 80.402344 135.738281 80.554688 135.734375 C 81.980469 135.816406 83.066406 136.910156 83.25 137.875 " fill-opacity="1" fill-rule="nonzero"/></g></g></g><g clip-path="url(#41173cac11)"><g clip-path="url(#bc865cf562)"><g clip-path="url(#5d09a8450b)"><path fill="#0558ee" d="M 90.816406 138.167969 C 92.203125 139.457031 91.769531 140.402344 90.496094 140.476562 C 87.425781 140.660156 84.261719 137.003906 85.269531 136.050781 C 85.429688 135.898438 85.6875 135.894531 85.878906 135.894531 C 87.175781 136 89.519531 136.960938 90.816406 138.167969 " fill-opacity="1" fill-rule="nonzero"/></g></g></g><g clip-path="url(#d274db202e)"><g clip-path="url(#dbf80dd42a)"><g clip-path="url(#6ec2a7872f)"><path fill="#0558ee" d="M 97.179688 138.605469 C 99.289062 139.8125 99.847656 140.757812 99.148438 140.941406 C 98.675781 141.066406 97.402344 140.824219 95.375 139.738281 C 93.664062 138.820312 90.300781 136.519531 90.320312 136.207031 C 90.378906 136.164062 90.410156 136.160156 90.570312 136.164062 C 91.789062 136.304688 94.894531 137.300781 97.179688 138.605469 " fill-opacity="1" fill-rule="nonzero"/></g></g></g><g clip-path="url(#a8aaaf1453)"><g clip-path="url(#b97806360d)"><g clip-path="url(#0960b63035)"><path fill="#0558ee" d="M 101.40625 139.144531 C 103.328125 140.042969 105.34375 141.234375 105.25 141.585938 C 105.144531 141.621094 104.925781 141.699219 103.214844 140.933594 C 103.136719 140.894531 94.097656 136.597656 93.984375 136.523438 L 94.054688 136.515625 C 94.691406 136.632812 98.019531 137.554688 101.40625 139.144531 " fill-opacity="1" fill-rule="nonzero"/></g></g></g><g clip-path="url(#c6ae4a5470)"><g clip-path="url(#2dedc2cec4)"><g clip-path="url(#6dcafd41ec)"><path fill="#0558ee" d="M 46.773438 146.789062 C 43.253906 149.839844 41.285156 151.257812 40.917969 151.003906 C 40.765625 149.695312 48.703125 143.429688 50.914062 142.773438 L 50.996094 142.769531 C 51.015625 142.921875 51.035156 143.09375 46.773438 146.789062 " fill-opacity="1" fill-rule="nonzero"/></g></g></g><g clip-path="url(#26ea6de858)"><g clip-path="url(#413cfc0c1d)"><g clip-path="url(#f10533f47b)"><path fill="#0558ee" d="M 54.113281 146.230469 C 50.648438 149.804688 46.722656 151.328125 46.675781 149.664062 C 46.613281 147.414062 52.949219 142.617188 55.84375 142.242188 C 57.933594 142.265625 54.152344 146.191406 54.113281 146.230469 " fill-opacity="1" fill-rule="nonzero"/></g></g></g><g clip-path="url(#4693513ce3)"><g clip-path="url(#55069e0727)"><g clip-path="url(#90407ea39d)"><path fill="#0558ee" d="M 65.398438 145.945312 C 62.960938 149.832031 57.304688 151.113281 56.585938 148.652344 C 55.882812 146.257812 60.582031 142.164062 64.324219 141.917969 C 67.222656 142.003906 66.082031 144.855469 65.398438 145.945312 " fill-opacity="1" fill-rule="nonzero"/></g></g></g><g clip-path="url(#64ef10bdef)"><g clip-path="url(#0a7d788371)"><g clip-path="url(#6ca66b8b94)"><path fill="#0558ee" d="M 78.339844 145.992188 C 77.523438 150.132812 71.324219 151.039062 69.648438 148.175781 C 68.203125 145.710938 71.324219 141.992188 74.949219 141.859375 C 77.824219 142.011719 78.660156 144.367188 78.339844 145.992188 " fill-opacity="1" fill-rule="nonzero"/></g></g></g><g clip-path="url(#afccccf7c5)"><g clip-path="url(#1df220a6de)"><g clip-path="url(#7ba0e7df12)"><path fill="#0558ee" d="M 91.285156 146.339844 C 92.105469 149.742188 87.84375 151.113281 84.789062 149.246094 C 81.414062 147.183594 81.953125 142.972656 84.882812 142.1875 C 85.289062 142.078125 85.660156 142.074219 85.960938 142.070312 C 88.945312 142.296875 90.902344 144.75 91.285156 146.339844 " fill-opacity="1" fill-rule="nonzero"/></g></g></g><g clip-path="url(#932b599a02)"><g clip-path="url(#054baf32d3)"><g clip-path="url(#7e402627d1)"><path fill="#0558ee" d="M 102.910156 146.945312 C 104.511719 149.472656 103.25 151.253906 100.367188 150.546875 C 96.015625 149.476562 92.933594 143.945312 95.144531 142.710938 C 95.511719 142.507812 95.863281 142.507812 96.238281 142.507812 C 98.792969 142.78125 101.691406 145.023438 102.910156 146.945312 " fill-opacity="1" fill-rule="nonzero"/></g></g></g><g clip-path="url(#c62792804c)"><g clip-path="url(#3cf6aa9042)"><g clip-path="url(#0c6864ca43)"><path fill="#0558ee" d="M 111.878906 147.769531 C 113.9375 149.976562 114.222656 151.699219 112.5 151.53125 C 109.003906 151.195312 102.792969 144.144531 104.117188 143.230469 C 104.261719 143.132812 104.488281 143.136719 104.671875 143.144531 C 106.707031 143.472656 110.039062 145.800781 111.878906 147.769531 " fill-opacity="1" fill-rule="nonzero"/></g></g></g><g clip-path="url(#0d8752a3d3)"><g clip-path="url(#12f14a129c)"><g clip-path="url(#c7b309d676)"><path fill="#0558ee" d="M 116.417969 148.660156 C 118.035156 150.144531 119.734375 151.980469 119.640625 152.496094 C 118.617188 153.105469 109.8125 144.046875 109.789062 143.914062 C 109.824219 143.910156 109.871094 143.898438 109.910156 143.890625 C 110.773438 144.183594 113.667969 146.136719 116.417969 148.660156 " fill-opacity="1" fill-rule="nonzero"/></g></g></g><g clip-path="url(#0148b8c516)"><g clip-path="url(#c4c30c2a6b)"><g clip-path="url(#db512eae68)"><path fill="#0558ee" d="M 34.519531 158.835938 C 31.179688 163.847656 30.738281 164.203125 30.574219 164.335938 L 30.523438 164.292969 C 30.566406 164.136719 30.617188 163.992188 30.898438 163.46875 L 30.914062 163.441406 C 33.816406 158.539062 33.816406 158.539062 35.554688 156.253906 L 37.398438 153.964844 C 37.765625 153.535156 37.859375 153.453125 37.96875 153.363281 L 38.003906 153.402344 C 37.925781 153.597656 37.792969 153.925781 34.519531 158.835938 " fill-opacity="1" fill-rule="nonzero"/></g></g></g><g clip-path="url(#9d73f9f1c3)"><g clip-path="url(#b6c0a8dd24)"><g clip-path="url(#bcaddc164a)"><path fill="#0558ee" d="M 41.148438 157.984375 C 38.644531 162.023438 35.1875 164.582031 34.652344 162.789062 C 33.9375 160.394531 39.308594 153.101562 42.210938 152.523438 C 43.902344 152.519531 42.457031 155.871094 41.148438 157.984375 " fill-opacity="1" fill-rule="nonzero"/></g></g></g><g clip-path="url(#e0066ff0ea)"><g clip-path="url(#9b84b58ecb)"><g clip-path="url(#2e951c2dd4)"><path fill="#0558ee" d="M 53.246094 157.429688 C 51.003906 162.019531 45.015625 164.378906 43.960938 161.089844 C 43.011719 158.125 47.230469 152.335938 51.53125 151.917969 C 54.542969 151.984375 54.347656 155.183594 53.246094 157.429688 " fill-opacity="1" fill-rule="nonzero"/></g></g></g><g clip-path="url(#87b4a9c95d)"><g clip-path="url(#9b04b01edd)"><g clip-path="url(#2b2839a3de)"><path fill="#0558ee" d="M 69.183594 157.277344 C 67.835938 162.117188 60.597656 164.132812 58.429688 160.269531 C 56.691406 157.171875 60.066406 151.914062 65.175781 151.644531 C 69.191406 151.820312 69.765625 155.191406 69.183594 157.277344 " fill-opacity="1" fill-rule="nonzero"/></g></g></g><g clip-path="url(#ed53e81ebc)"><g clip-path="url(#2437e0af97)"><g clip-path="url(#a07b9e9c57)"><path fill="#0558ee" d="M 85.988281 157.535156 C 85.789062 162.21875 79.390625 164.226562 75.917969 160.695312 C 72.859375 157.585938 74.90625 151.90625 80.332031 151.757812 C 84.390625 152.023438 86.082031 155.296875 85.988281 157.535156 " fill-opacity="1" fill-rule="nonzero"/></g></g></g><g clip-path="url(#45ecf5e0c8)"><g clip-path="url(#2a21bc5eb8)"><g clip-path="url(#25824c3ba0)"><path fill="#0558ee" d="M 101.945312 158.15625 C 102.746094 162.335938 98.289062 164.484375 94.253906 161.863281 C 89.660156 158.878906 90.34375 152.9375 94.285156 152.269531 C 94.570312 152.21875 94.960938 152.214844 95.253906 152.210938 C 99.148438 152.570312 101.511719 155.902344 101.945312 158.15625 " fill-opacity="1" fill-rule="nonzero"/></g></g></g><g clip-path="url(#c1a934aa0e)"><g clip-path="url(#4ed85fa39f)"><g clip-path="url(#e21c207af9)"><path fill="#0558ee" d="M 115.359375 159.078125 C 116.753906 162.589844 114.8125 164.820312 111.511719 163.496094 C 106.472656 161.472656 104.234375 154.234375 107.289062 153.09375 C 107.675781 152.953125 108.070312 152.957031 108.390625 152.960938 C 111.660156 153.394531 114.480469 156.867188 115.359375 159.078125 " fill-opacity="1" fill-rule="nonzero"/></g></g></g><g clip-path="url(#9237e7ac04)"><g clip-path="url(#419b37b0ca)"><g clip-path="url(#b9d4a5b742)"><path fill="#0558ee" d="M 124.277344 160.210938 C 125.992188 163.332031 125.925781 165.5 124.128906 164.945312 C 120.789062 163.910156 115.445312 154.789062 117.707031 153.976562 C 117.832031 153.929688 118.019531 153.941406 118.152344 153.945312 C 120.269531 154.4375 123.007812 157.902344 124.277344 160.210938 " fill-opacity="1" fill-rule="nonzero"/></g></g></g><g clip-path="url(#5d0293b6fb)"><g clip-path="url(#de7e3e7e56)"><g clip-path="url(#dfc8e906e1)"><path fill="#0558ee" d="M 129.410156 165.679688 C 129.550781 165.984375 129.578125 166.082031 129.605469 166.179688 L 129.554688 166.222656 C 128.785156 165.535156 122.804688 155.859375 122.484375 155.007812 L 122.519531 154.972656 C 122.636719 155.074219 122.683594 155.128906 122.980469 155.492188 L 124.820312 157.941406 C 127.941406 162.722656 127.941406 162.722656 129.226562 165.300781 L 129.308594 165.472656 C 129.339844 165.535156 129.382812 165.617188 129.410156 165.679688 " fill-opacity="1" fill-rule="nonzero"/></g></g></g><g clip-path="url(#e97ffe60cc)"><g clip-path="url(#c8a4332dbe)"><g clip-path="url(#f052a850db)"><path fill="#0558ee" d="M 31.136719 171.933594 C 29.667969 176.367188 27.539062 179.351562 26.914062 177.839844 C 26.039062 175.71875 29.167969 166.226562 31.542969 165.386719 C 32.835938 165.355469 31.980469 169.386719 31.136719 171.933594 " fill-opacity="1" fill-rule="nonzero"/></g></g></g><g clip-path="url(#b12c659ca9)"><g clip-path="url(#8bb35a48ed)"><g clip-path="url(#8fc2cfaf07)"><path fill="#0558ee" d="M 41.804688 171.121094 C 40.210938 176.339844 35.636719 179.167969 34.042969 175.929688 C 32.402344 172.597656 35.53125 165.097656 39.648438 164.511719 C 42.519531 164.554688 42.636719 168.402344 41.804688 171.121094 " fill-opacity="1" fill-rule="nonzero"/></g></g></g><g clip-path="url(#07ac1dd55f)"><g clip-path="url(#d4280e1120)"><g clip-path="url(#1196aafbda)"><path fill="#0558ee" d="M 58.207031 170.707031 C 56.839844 176.449219 49.535156 178.851562 47.042969 174.382812 C 44.9375 170.613281 48.082031 164.375 53.589844 163.976562 C 58.085938 164.125 58.808594 168.183594 58.207031 170.707031 " fill-opacity="1" fill-rule="nonzero"/></g></g></g><g clip-path="url(#cb67fb0920)"><g clip-path="url(#8bd779401b)"><g clip-path="url(#e83f36d8ff)"><path fill="#0558ee" d="M 77.019531 170.773438 C 76.226562 176.578125 68.578125 178.757812 65.160156 174.152344 C 62.375 170.398438 65.105469 164.128906 71.058594 163.882812 C 75.785156 164.148438 77.390625 168.074219 77.019531 170.773438 " fill-opacity="1" fill-rule="nonzero"/></g></g></g><g clip-path="url(#95151543df)"><g clip-path="url(#b632041cc1)"><g clip-path="url(#319bc99fdd)"><path fill="#0558ee" d="M 112.730469 172.160156 C 113.183594 177.378906 108.058594 179.652344 104.03125 176.015625 C 99.753906 172.160156 100.683594 165.230469 105.511719 164.949219 C 105.675781 164.941406 105.894531 164.953125 106.058594 164.953125 C 110.273438 165.425781 112.5 169.453125 112.730469 172.160156 " fill-opacity="1" fill-rule="nonzero"/></g></g></g><g clip-path="url(#7400eefb97)"><g clip-path="url(#d998de776b)"><g clip-path="url(#ee718564c4)"><path fill="#0558ee" d="M 25.710938 188.816406 C 25.648438 191.292969 25.398438 195.5 24.855469 195.546875 C 24.679688 195.382812 24.480469 194.871094 24.34375 192.316406 L 24.296875 188.839844 L 24.519531 184.613281 C 24.785156 181.84375 25.042969 181.566406 25.15625 181.449219 L 25.226562 181.445312 C 25.742188 181.929688 25.773438 186.308594 25.710938 188.816406 " fill-opacity="1" fill-rule="nonzero"/></g></g></g><g clip-path="url(#35f179a390)"><g clip-path="url(#b1fe9768ae)"><g clip-path="url(#bb0d420b02)"><path fill="#0558ee" d="M 33.546875 187.8125 C 33.25 192.804688 30.855469 195.925781 28.972656 193.773438 C 26.453125 190.898438 27.105469 181.148438 30.636719 180.363281 C 32.949219 180.378906 33.730469 184.730469 33.546875 187.8125 " fill-opacity="1" fill-rule="nonzero"/></g></g></g><g clip-path="url(#b506f5b82f)"><g clip-path="url(#371e0cfcb2)"><g clip-path="url(#9aad9096bc)"><path fill="#0558ee" d="M 47.855469 187.15625 C 47.3125 192.984375 41.816406 195.792969 38.8125 191.777344 C 35.855469 187.824219 37.601562 180.117188 42.679688 179.582031 C 46.726562 179.695312 48.144531 184.078125 47.855469 187.15625 " fill-opacity="1" fill-rule="nonzero"/></g></g></g><g clip-path="url(#8aae34e596)"><g clip-path="url(#229618c9af)"><g clip-path="url(#470a7cfe10)"><path fill="#0558ee" d="M 66.699219 186.972656 C 66.023438 193.152344 58.707031 195.554688 55.011719 190.8125 C 51.773438 186.648438 54.097656 179.589844 60.316406 179.226562 C 65.554688 179.480469 67.011719 184.113281 66.699219 186.972656 " fill-opacity="1" fill-rule="nonzero"/></g></g></g><g clip-path="url(#7fb34b23ff)"><g clip-path="url(#7775acf42c)"><g clip-path="url(#c7b8a86d11)"><path fill="#0558ee" d="M 86.5625 187.277344 C 85.855469 193.488281 78.261719 195.710938 74.441406 190.828125 C 71.117188 186.582031 73.511719 179.578125 79.902344 179.371094 C 85.371094 179.757812 86.890625 184.425781 86.5625 187.277344 " fill-opacity="1" fill-rule="nonzero"/></g></g></g><g clip-path="url(#f982a72505)"><g clip-path="url(#b57f762095)"><g clip-path="url(#934bca050e)"><path fill="#0558ee" d="M 31.296875 205.777344 C 32.21875 209.359375 32.175781 212.644531 30.644531 211.628906 C 28.304688 210.082031 25.023438 199.730469 27.355469 198.785156 C 28.832031 198.765625 30.550781 202.863281 31.296875 205.777344 " fill-opacity="1" fill-rule="nonzero"/></g></g></g><g clip-path="url(#3f45ccf86e)"><g clip-path="url(#d816669577)"><g clip-path="url(#de4c17af0b)"><path fill="#0558ee" d="M 41.8125 204.980469 C 42.515625 209.503906 40.183594 212.242188 37.277344 210.308594 C 33.082031 207.515625 31.945312 198.824219 35.660156 197.910156 C 35.78125 197.878906 35.949219 197.867188 36.070312 197.847656 C 39.277344 197.90625 41.359375 202.054688 41.8125 204.980469 " fill-opacity="1" fill-rule="nonzero"/></g></g></g><g clip-path="url(#3a54f3d8eb)"><g clip-path="url(#2d34b1b022)"><g clip-path="url(#ff74f11db7)"><path fill="#0558ee" d="M 57.976562 204.570312 C 58.125 209.933594 52.785156 212.296875 48.761719 208.65625 C 44.992188 205.242188 44.898438 197.746094 51.058594 197.269531 C 55.695312 197.4375 57.898438 201.640625 57.976562 204.570312 " fill-opacity="1" fill-rule="nonzero"/></g></g></g><g clip-path="url(#f497ee6c25)"><g clip-path="url(#30d4d0b780)"><g clip-path="url(#41f147afba)"><path fill="#0558ee" d="M 76.515625 204.636719 C 75.929688 210.640625 68.730469 212.433594 65.023438 207.5 C 61.984375 203.457031 63.964844 197.429688 69.84375 197.167969 C 74.921875 197.472656 76.800781 201.71875 76.515625 204.636719 " fill-opacity="1" fill-rule="nonzero"/></g></g></g><g clip-path="url(#5e0908e0f1)"><g clip-path="url(#0a5d498c19)"><g clip-path="url(#7c2e7d7e7e)"><path fill="#0558ee" d="M 35.328125 220.6875 C 37.3125 223.769531 38.234375 225.476562 38.0625 225.753906 C 36.910156 225.84375 30.046875 215.597656 30.648438 214.679688 C 31.386719 214.621094 34.675781 219.675781 35.328125 220.6875 " fill-opacity="1" fill-rule="nonzero"/></g></g></g><g clip-path="url(#bd40fde4dd)"><g clip-path="url(#31c7572fc2)"><g clip-path="url(#2b67063c7b)"><path fill="#0558ee" d="M 41.695312 219.871094 C 43.128906 222.71875 43.507812 225.371094 41.652344 224.882812 C 38.15625 223.960938 33.039062 215.4375 35.050781 213.894531 C 35.171875 213.800781 35.378906 213.746094 35.527344 213.710938 C 37.519531 213.722656 40.191406 216.894531 41.695312 219.871094 " fill-opacity="1" fill-rule="nonzero"/></g></g></g><g clip-path="url(#8b86bf61d5)"><g clip-path="url(#7e0c762f1e)"><g clip-path="url(#5699c1ff6d)"><path fill="#0558ee" d="M 53.316406 219.339844 C 54.402344 223.058594 52.390625 225.789062 48.582031 223.546875 C 43.667969 220.652344 41.832031 213.796875 45.777344 213.066406 C 45.914062 213.042969 46.101562 213.03125 46.238281 213.015625 C 49.875 213.113281 52.566406 216.773438 53.316406 219.339844 " fill-opacity="1" fill-rule="nonzero"/></g></g></g><g clip-path="url(#3574696663)"><g clip-path="url(#bccb2b4271)"><g clip-path="url(#1f7e03e201)"><path fill="#0558ee" d="M 47.371094 231.769531 C 49.925781 234.222656 51.003906 235.519531 50.574219 235.625 C 48.824219 236.054688 39.605469 227.941406 40.707031 226.945312 C 40.734375 226.917969 40.785156 226.90625 40.820312 226.890625 C 42.128906 226.871094 45.839844 230.296875 47.371094 231.769531 " fill-opacity="1" fill-rule="nonzero"/></g></g></g><g clip-path="url(#810b20370d)"><g clip-path="url(#4d7153bacc)"><g clip-path="url(#0fa20cb1e3)"><path fill="#0558ee" d="M 54.28125 231.246094 C 55.421875 232.753906 56.871094 235.265625 55.0625 235.109375 C 51.828125 234.832031 44.726562 228.359375 46.507812 226.488281 C 46.699219 226.285156 46.984375 226.238281 47.210938 226.203125 C 49.476562 226.242188 52.464844 228.84375 54.28125 231.246094 " fill-opacity="1" fill-rule="nonzero"/></g></g></g><g clip-path="url(#7ecc9a83a1)"><g clip-path="url(#7cf0061e84)"><g clip-path="url(#46e3b37ce8)"><path fill="#0558ee" d="M 64.902344 230.976562 C 65.972656 233.878906 64.671875 235.902344 61.085938 234.167969 C 56.46875 231.925781 54.164062 226.828125 57.351562 225.898438 C 57.597656 225.828125 57.941406 225.796875 58.199219 225.777344 C 61.757812 225.90625 64.15625 228.957031 64.902344 230.976562 " fill-opacity="1" fill-rule="nonzero"/></g></g></g><g clip-path="url(#7389b8294f)"><g clip-path="url(#d4220bcc73)"><g clip-path="url(#f9f1813e46)"><path fill="#0558ee" d="M 77.082031 231.019531 C 76.902344 234.773438 72.835938 236.296875 69.695312 232.589844 C 67.273438 229.738281 67.945312 225.886719 71.96875 225.707031 C 75.320312 225.90625 77.203125 228.5625 77.082031 231.019531 " fill-opacity="1" fill-rule="nonzero"/></g></g></g><g clip-path="url(#a6439e7e32)"><g clip-path="url(#8ade9bf056)"><g clip-path="url(#653e3e87f8)"><path fill="#0558ee" d="M 61.664062 240.175781 C 65.457031 242.316406 65.457031 242.316406 65.574219 242.441406 C 65.558594 242.460938 65.539062 242.484375 65.519531 242.503906 C 62.722656 242.457031 53.117188 237.570312 54.347656 236.816406 C 54.378906 236.796875 54.433594 236.792969 54.472656 236.78125 C 55.667969 236.792969 58.449219 238.359375 61.664062 240.175781 " fill-opacity="1" fill-rule="nonzero"/></g></g></g><g clip-path="url(#ca5b6c069c)"><g clip-path="url(#02a80e2bbd)"><g clip-path="url(#eacc89cba6)"><path fill="#0558ee" d="M 66.992188 239.933594 C 69.640625 242.246094 68.988281 242.28125 68.773438 242.292969 C 66.558594 242.40625 58.589844 237.925781 59.878906 236.585938 C 60.015625 236.445312 60.269531 236.414062 60.453125 236.390625 C 62.839844 236.464844 66.0625 239.121094 66.992188 239.933594 " fill-opacity="1" fill-rule="nonzero"/></g></g></g><g clip-path="url(#e0fb804c1f)"><g clip-path="url(#e283f2221c)"><g clip-path="url(#971a4b63a2)"><path fill="#0558ee" d="M 74.003906 239.863281 C 74.320312 240.648438 75.109375 243.101562 72.089844 241.808594 C 68.578125 240.300781 66.480469 237.261719 68.347656 236.390625 C 68.632812 236.253906 68.96875 236.234375 69.214844 236.214844 C 71.550781 236.335938 73.335938 238.191406 74.003906 239.863281 " fill-opacity="1" fill-rule="nonzero"/></g></g></g><g clip-path="url(#bd2b819e13)"><g clip-path="url(#5af28cebfb)"><g clip-path="url(#3b80d8aec1)"><path fill="#0558ee" d="M 81.402344 239.976562 C 80.414062 242.617188 77.734375 243.207031 76.445312 240.167969 C 75.679688 238.367188 76.5 236.378906 78.941406 236.289062 C 81.277344 236.464844 82.027344 238.300781 81.402344 239.976562 " fill-opacity="1" fill-rule="nonzero"/></g></g></g><g clip-path="url(#5769af9a3d)"><g clip-path="url(#76b6fb050f)"><g clip-path="url(#597cfcf9f1)"><path fill="#0558ee" d="M 88.425781 240.25 C 87.617188 240.960938 83.074219 244.007812 83.339844 241.296875 C 83.527344 239.402344 85.636719 236.625 88.519531 236.582031 C 90.671875 236.808594 90.195312 238.695312 88.425781 240.25 " fill-opacity="1" fill-rule="nonzero"/></g></g></g><g clip-path="url(#adbe0bc5d5)"><g clip-path="url(#674207069f)"><g clip-path="url(#bec5c4de45)"><path fill="#0558ee" d="M 94.328125 240.65625 C 92.003906 241.914062 88.25 243.140625 88.390625 242.449219 C 88.519531 241.816406 93.789062 237.042969 96.953125 237.0625 C 98.425781 237.292969 97.269531 238.65625 96.128906 239.519531 C 95.625 239.898438 95.019531 240.28125 94.328125 240.65625 " fill-opacity="1" fill-rule="nonzero"/></g></g></g><g fill="#0558ee" fill-opacity="1"><g transform="translate(92.228509, 207.641998)"><g><path d="M 0.320312 -22.75 L 0.320312 -19.769531 L 7.046875 -19.769531 L 7.046875 0 L 10.175781 0 L 10.175781 -19.769531 L 16.902344 -19.769531 L 16.902344 -22.75 Z M 0.320312 -22.75 "/></g></g></g><g fill="#0558ee" fill-opacity="1"><g transform="translate(115.562112, 207.641998)"><g><path d="M 2.105469 -22.75 L 2.105469 0 L 5.207031 0 L 5.207031 -22.75 Z M 2.105469 -22.75 "/></g></g></g><g fill="#0558ee" fill-opacity="1"><g transform="translate(128.954714, 207.641998)"><g><path d="M 2.105469 -22.75 L 2.105469 0 L 5.207031 0 L 5.207031 -17.3125 L 15.585938 0 L 18.6875 0 L 18.6875 -22.75 L 15.585938 -22.75 L 15.585938 -5.4375 L 5.207031 -22.75 Z M 2.105469 -22.75 "/></g></g></g><g fill="#0558ee" fill-opacity="1"><g transform="translate(155.884611, 207.641998)"><g><path d="M 2.105469 -22.75 L 2.105469 0 L 5.207031 0 L 5.207031 -9.621094 L 15.585938 -9.621094 L 15.585938 0 L 18.6875 0 L 18.6875 -22.75 L 15.585938 -22.75 L 15.585938 -13.101562 L 5.207031 -13.101562 L 5.207031 -22.75 Z M 2.105469 -22.75 "/></g></g></g><g fill="#0558ee" fill-opacity="1"><g transform="translate(182.814509, 207.641998)"><g><path d="M 5.351562 -22.75 C 3.597656 -22.75 2.105469 -21.257812 2.105469 -19.503906 L 2.105469 -3.246094 C 2.105469 -1.492188 3.597656 0 5.351562 0 L 15.441406 0 C 17.195312 0 18.6875 -1.492188 18.6875 -3.246094 L 18.6875 -19.503906 C 18.6875 -21.257812 17.195312 -22.75 15.441406 -22.75 Z M 6.578125 -19.769531 L 14.210938 -19.769531 C 14.972656 -19.769531 15.585938 -19.183594 15.585938 -18.421875 L 15.585938 -4.328125 C 15.585938 -3.566406 14.972656 -2.984375 14.210938 -2.984375 L 6.578125 -2.984375 C 5.820312 -2.984375 5.207031 -3.566406 5.207031 -4.328125 L 5.207031 -18.421875 C 5.207031 -19.183594 5.820312 -19.769531 6.578125 -19.769531 Z M 6.578125 -19.769531 "/></g></g></g><g fill="#0558ee" fill-opacity="1"><g transform="translate(209.744401, 207.641998)"><g><path d="M 5.351562 -22.75 C 3.539062 -22.75 2.105469 -21.316406 2.105469 -19.503906 L 2.105469 -3.246094 C 2.105469 -1.433594 3.539062 0 5.351562 0 L 15.441406 0 C 17.253906 0 18.6875 -1.433594 18.6875 -3.246094 L 18.6875 -5.46875 L 15.585938 -5.46875 L 15.585938 -4.328125 C 15.585938 -3.566406 14.972656 -2.984375 14.210938 -2.984375 L 6.578125 -2.984375 C 5.820312 -2.984375 5.207031 -3.566406 5.207031 -4.328125 L 5.207031 -18.421875 C 5.207031 -19.183594 5.820312 -19.769531 6.578125 -19.769531 L 14.210938 -19.769531 C 14.972656 -19.769531 15.585938 -19.183594 15.585938 -18.421875 L 15.585938 -17.28125 L 18.6875 -17.28125 L 18.6875 -19.503906 C 18.6875 -21.316406 17.253906 -22.75 15.441406 -22.75 Z M 5.351562 -22.75 "/></g></g></g><g fill="#0558ee" fill-opacity="1"><g transform="translate(236.206481, 207.641998)"><g><path d="M 1.460938 0 L 4.707031 0 L 4.707031 -3.246094 L 1.460938 -3.246094 Z M 1.460938 0 "/></g></g></g><g fill="#0558ee" fill-opacity="1"><g transform="translate(248.517279, 207.641998)"><g><path d="M 5.351562 -22.75 C 3.597656 -22.75 2.105469 -21.257812 2.105469 -19.503906 L 2.105469 -3.246094 C 2.105469 -1.492188 3.597656 0 5.351562 0 L 15.441406 0 C 17.195312 0 18.6875 -1.492188 18.6875 -3.246094 L 18.6875 -19.503906 C 18.6875 -21.257812 17.195312 -22.75 15.441406 -22.75 Z M 6.578125 -19.769531 L 14.210938 -19.769531 C 14.972656 -19.769531 15.585938 -19.183594 15.585938 -18.421875 L 15.585938 -4.328125 C 15.585938 -3.566406 14.972656 -2.984375 14.210938 -2.984375 L 6.578125 -2.984375 C 5.820312 -2.984375 5.207031 -3.566406 5.207031 -4.328125 L 5.207031 -18.421875 C 5.207031 -19.183594 5.820312 -19.769531 6.578125 -19.769531 Z M 6.578125 -19.769531 "/></g></g></g><g fill="#0558ee" fill-opacity="1"><g transform="translate(275.447171, 207.641998)"><g><path d="M 2.105469 -22.75 L 2.105469 0 L 5.207031 0 L 5.207031 -7.867188 L 11.523438 -7.867188 L 16.699219 0 L 20.441406 0 L 15.292969 -7.867188 L 15.441406 -7.867188 C 17.253906 -7.867188 18.6875 -9.328125 18.6875 -11.140625 L 18.6875 -19.503906 C 18.6875 -21.316406 17.253906 -22.75 15.441406 -22.75 Z M 5.207031 -10.878906 L 5.207031 -19.769531 L 14.210938 -19.769531 C 14.972656 -19.769531 15.585938 -19.183594 15.585938 -18.421875 L 15.585938 -12.195312 C 15.585938 -11.433594 14.972656 -10.878906 14.210938 -10.878906 Z M 5.207031 -10.878906 "/></g></g></g><g fill="#0558ee" fill-opacity="1"><g transform="translate(302.172396, 207.641998)"><g><path d="M 5.351562 -22.75 C 3.539062 -22.75 2.105469 -21.316406 2.105469 -19.503906 L 2.105469 -3.246094 C 2.105469 -1.433594 3.539062 0 5.351562 0 L 15.441406 0 C 17.253906 0 18.6875 -1.433594 18.6875 -3.246094 L 18.6875 -12.195312 L 10.5 -12.195312 L 10.5 -9.183594 L 15.585938 -9.183594 L 15.585938 -4.328125 C 15.585938 -3.566406 14.972656 -2.984375 14.210938 -2.984375 L 6.578125 -2.984375 C 5.820312 -2.984375 5.207031 -3.566406 5.207031 -4.328125 L 5.207031 -18.421875 C 5.207031 -19.183594 5.820312 -19.769531 6.578125 -19.769531 L 14.210938 -19.769531 C 14.972656 -19.769531 15.585938 -19.183594 15.585938 -18.421875 L 15.585938 -17.515625 L 18.6875 -17.515625 L 18.6875 -19.503906 C 18.6875 -21.316406 17.253906 -22.75 15.441406 -22.75 Z M 5.351562 -22.75 "/></g></g></g><g fill="#737373" fill-opacity="1"><g transform="translate(92.228509, 228.343154)"><g><path d="M 10.984375 -5.984375 C 10.984375 -4.046875 10.457031 -2.5625 9.40625 -1.53125 C 8.351562 -0.507812 6.835938 0 4.859375 0 L 1.609375 0 L 1.609375 -11.734375 L 5.203125 -11.734375 C 7.035156 -11.734375 8.457031 -11.226562 9.46875 -10.21875 C 10.476562 -9.207031 10.984375 -7.796875 10.984375 -5.984375 Z M 9.53125 -5.9375 C 9.53125 -7.46875 9.144531 -8.617188 8.375 -9.390625 C 7.613281 -10.160156 6.472656 -10.546875 4.953125 -10.546875 L 2.984375 -10.546875 L 2.984375 -1.1875 L 4.640625 -1.1875 C 6.265625 -1.1875 7.484375 -1.582031 8.296875 -2.375 C 9.117188 -3.175781 9.53125 -4.363281 9.53125 -5.9375 Z M 9.53125 -5.9375 "/></g></g></g><g fill="#737373" fill-opacity="1"><g transform="translate(106.276319, 228.343154)"><g><path d="M 1.609375 0 L 1.609375 -11.734375 L 2.984375 -11.734375 L 2.984375 0 Z M 1.609375 0 "/></g></g></g><g fill="#737373" fill-opacity="1"><g transform="translate(112.927562, 228.343154)"><g><path d="M 8.15625 0 L 1.609375 0 L 1.609375 -11.734375 L 8.15625 -11.734375 L 8.15625 -10.515625 L 2.984375 -10.515625 L 2.984375 -6.734375 L 7.84375 -6.734375 L 7.84375 -5.53125 L 2.984375 -5.53125 L 2.984375 -1.21875 L 8.15625 -1.21875 Z M 5.953125 -15.46875 C 5.753906 -15.46875 5.5625 -15.507812 5.375 -15.59375 C 5.1875 -15.675781 5 -15.765625 4.8125 -15.859375 C 4.632812 -15.960938 4.460938 -16.050781 4.296875 -16.125 C 4.128906 -16.207031 3.96875 -16.25 3.8125 -16.25 C 3.601562 -16.25 3.441406 -16.179688 3.328125 -16.046875 C 3.210938 -15.921875 3.117188 -15.722656 3.046875 -15.453125 L 2.3125 -15.453125 C 2.382812 -16.023438 2.554688 -16.460938 2.828125 -16.765625 C 3.097656 -17.066406 3.4375 -17.21875 3.84375 -17.21875 C 4.039062 -17.21875 4.234375 -17.175781 4.421875 -17.09375 C 4.617188 -17.007812 4.804688 -16.921875 4.984375 -16.828125 C 5.160156 -16.734375 5.332031 -16.644531 5.5 -16.5625 C 5.664062 -16.476562 5.820312 -16.4375 5.96875 -16.4375 C 6.1875 -16.4375 6.347656 -16.503906 6.453125 -16.640625 C 6.566406 -16.773438 6.65625 -16.972656 6.71875 -17.234375 L 7.453125 -17.234375 C 7.390625 -16.671875 7.222656 -16.234375 6.953125 -15.921875 C 6.691406 -15.617188 6.359375 -15.46875 5.953125 -15.46875 Z M 7.3125 -12.671875 L 6.5625 -12.671875 C 6.039062 -13.023438 5.476562 -13.472656 4.875 -14.015625 C 4.300781 -13.492188 3.734375 -13.046875 3.171875 -12.671875 L 2.421875 -12.671875 L 2.421875 -12.859375 L 2.84375 -13.34375 C 3.445312 -14 3.890625 -14.535156 4.171875 -14.953125 L 5.578125 -14.953125 C 5.929688 -14.453125 6.507812 -13.753906 7.3125 -12.859375 Z M 7.3125 -12.671875 "/></g></g></g><g fill="#737373" fill-opacity="1"><g transform="translate(124.135476, 228.343154)"><g><path d="M 10.78125 0 L 9.21875 0 L 2.8125 -9.84375 L 2.75 -9.84375 C 2.832031 -8.6875 2.875 -7.628906 2.875 -6.671875 L 2.875 0 L 1.609375 0 L 1.609375 -11.734375 L 3.15625 -11.734375 L 9.546875 -1.921875 L 9.609375 -1.921875 C 9.597656 -2.066406 9.570312 -2.53125 9.53125 -3.3125 C 9.5 -4.101562 9.488281 -4.664062 9.5 -5 L 9.5 -11.734375 L 10.78125 -11.734375 Z M 10.78125 0 "/></g></g></g><g fill="#737373" fill-opacity="1"><g transform="translate(138.592424, 228.343154)"><g/></g></g><g fill="#737373" fill-opacity="1"><g transform="translate(144.930796, 228.343154)"><g><path d="M 10.84375 -5.984375 C 10.84375 -4.046875 10.316406 -2.5625 9.265625 -1.53125 C 8.222656 -0.507812 6.710938 0 4.734375 0 L 1.609375 0 L 1.609375 -5.203125 L 0.375 -5.203125 L 0.375 -6.40625 L 1.609375 -6.40625 L 1.609375 -11.734375 L 5.09375 -11.734375 C 6.894531 -11.734375 8.300781 -11.226562 9.3125 -10.21875 C 10.332031 -9.21875 10.84375 -7.804688 10.84375 -5.984375 Z M 9.40625 -5.9375 C 9.40625 -9.007812 7.878906 -10.546875 4.828125 -10.546875 L 2.984375 -10.546875 L 2.984375 -6.40625 L 6.015625 -6.40625 L 6.015625 -5.203125 L 2.984375 -5.203125 L 2.984375 -1.1875 L 4.5 -1.1875 C 7.769531 -1.1875 9.40625 -2.769531 9.40625 -5.9375 Z M 9.40625 -5.9375 "/></g></g></g><g fill="#737373" fill-opacity="1"><g transform="translate(158.866295, 228.343154)"><g><path d="M 8.984375 0 L 7.53125 -3.734375 L 2.828125 -3.734375 L 1.375 0 L 0 0 L 4.640625 -11.78125 L 5.78125 -11.78125 L 10.40625 0 Z M 7.109375 -4.953125 L 5.734375 -8.59375 C 5.554688 -9.050781 5.375 -9.617188 5.1875 -10.296875 C 5.070312 -9.773438 4.90625 -9.207031 4.6875 -8.59375 L 3.3125 -4.953125 Z M 5.8125 -12.671875 L 4.921875 -12.671875 C 4.578125 -12.953125 4.164062 -13.347656 3.6875 -13.859375 C 3.207031 -14.378906 2.863281 -14.804688 2.65625 -15.140625 L 2.65625 -15.3125 L 4.28125 -15.3125 C 4.457031 -14.945312 4.695312 -14.519531 5 -14.03125 C 5.300781 -13.550781 5.570312 -13.164062 5.8125 -12.875 Z M 5.8125 -12.671875 "/></g></g></g><g fill="#737373" fill-opacity="1"><g transform="translate(171.333711, 228.343154)"><g><path d="M 10.78125 0 L 9.21875 0 L 2.8125 -9.84375 L 2.75 -9.84375 C 2.832031 -8.6875 2.875 -7.628906 2.875 -6.671875 L 2.875 0 L 1.609375 0 L 1.609375 -11.734375 L 3.15625 -11.734375 L 9.546875 -1.921875 L 9.609375 -1.921875 C 9.597656 -2.066406 9.570312 -2.53125 9.53125 -3.3125 C 9.5 -4.101562 9.488281 -4.664062 9.5 -5 L 9.5 -11.734375 L 10.78125 -11.734375 Z M 10.78125 0 "/></g></g></g><g fill="#737373" fill-opacity="1"><g transform="translate(185.790659, 228.343154)"><g/></g></g><g fill="#737373" fill-opacity="1"><g transform="translate(192.129026, 228.343154)"><g><path d="M 6.640625 -10.6875 C 5.347656 -10.6875 4.328125 -10.253906 3.578125 -9.390625 C 2.835938 -8.535156 2.46875 -7.359375 2.46875 -5.859375 C 2.46875 -4.328125 2.828125 -3.140625 3.546875 -2.296875 C 4.265625 -1.460938 5.289062 -1.046875 6.625 -1.046875 C 7.4375 -1.046875 8.367188 -1.195312 9.421875 -1.5 L 9.421875 -0.296875 C 8.609375 0.00390625 7.601562 0.15625 6.40625 0.15625 C 4.6875 0.15625 3.351562 -0.363281 2.40625 -1.40625 C 1.46875 -2.457031 1 -3.953125 1 -5.890625 C 1 -7.097656 1.222656 -8.15625 1.671875 -9.0625 C 2.128906 -9.96875 2.785156 -10.664062 3.640625 -11.15625 C 4.492188 -11.65625 5.5 -11.90625 6.65625 -11.90625 C 7.882812 -11.90625 8.957031 -11.679688 9.875 -11.234375 L 9.296875 -10.0625 C 8.410156 -10.476562 7.523438 -10.6875 6.640625 -10.6875 Z M 6.640625 -10.6875 "/></g></g></g><g fill="#737373" fill-opacity="1"><g transform="translate(204.564347, 228.343154)"><g><path d="M 11.796875 -5.890625 C 11.796875 -4.003906 11.320312 -2.523438 10.375 -1.453125 C 9.425781 -0.378906 8.101562 0.15625 6.40625 0.15625 C 4.6875 0.15625 3.351562 -0.367188 2.40625 -1.421875 C 1.46875 -2.484375 1 -3.976562 1 -5.90625 C 1 -7.8125 1.46875 -9.289062 2.40625 -10.34375 C 3.351562 -11.394531 4.691406 -11.921875 6.421875 -11.921875 C 8.109375 -11.921875 9.425781 -11.382812 10.375 -10.3125 C 11.320312 -9.238281 11.796875 -7.765625 11.796875 -5.890625 Z M 2.453125 -5.890625 C 2.453125 -4.296875 2.789062 -3.085938 3.46875 -2.265625 C 4.144531 -1.441406 5.125 -1.03125 6.40625 -1.03125 C 7.707031 -1.03125 8.691406 -1.4375 9.359375 -2.25 C 10.023438 -3.070312 10.359375 -4.285156 10.359375 -5.890625 C 10.359375 -7.460938 10.023438 -8.65625 9.359375 -9.46875 C 8.703125 -10.289062 7.722656 -10.703125 6.421875 -10.703125 C 5.128906 -10.703125 4.144531 -10.289062 3.46875 -9.46875 C 2.789062 -8.644531 2.453125 -7.453125 2.453125 -5.890625 Z M 3.59375 -12.859375 C 4.269531 -13.585938 4.742188 -14.125 5.015625 -14.46875 C 5.285156 -14.8125 5.484375 -15.09375 5.609375 -15.3125 L 6.9375 -15.3125 C 7.0625 -15.082031 7.269531 -14.789062 7.5625 -14.4375 C 7.851562 -14.082031 8.332031 -13.554688 9 -12.859375 L 9 -12.671875 L 8.046875 -12.671875 C 7.578125 -12.972656 6.984375 -13.472656 6.265625 -14.171875 C 5.535156 -13.453125 4.953125 -12.953125 4.515625 -12.671875 L 3.59375 -12.671875 Z M 3.59375 -12.859375 "/></g></g></g><g fill="#737373" fill-opacity="1"><g transform="translate(219.430428, 228.343154)"><g><path d="M 10.78125 0 L 9.21875 0 L 2.8125 -9.84375 L 2.75 -9.84375 C 2.832031 -8.6875 2.875 -7.628906 2.875 -6.671875 L 2.875 0 L 1.609375 0 L 1.609375 -11.734375 L 3.15625 -11.734375 L 9.546875 -1.921875 L 9.609375 -1.921875 C 9.597656 -2.066406 9.570312 -2.53125 9.53125 -3.3125 C 9.5 -4.101562 9.488281 -4.664062 9.5 -5 L 9.5 -11.734375 L 10.78125 -11.734375 Z M 10.78125 0 "/></g></g></g><g fill="#737373" fill-opacity="1"><g transform="translate(233.887382, 228.343154)"><g><path d="M 6.78125 -6.140625 L 10.765625 -6.140625 L 10.765625 -0.4375 C 10.140625 -0.238281 9.503906 -0.09375 8.859375 0 C 8.222656 0.101562 7.484375 0.15625 6.640625 0.15625 C 4.859375 0.15625 3.472656 -0.367188 2.484375 -1.421875 C 1.492188 -2.484375 1 -3.960938 1 -5.859375 C 1 -7.085938 1.242188 -8.160156 1.734375 -9.078125 C 2.222656 -9.992188 2.925781 -10.691406 3.84375 -11.171875 C 4.769531 -11.660156 5.851562 -11.90625 7.09375 -11.90625 C 8.34375 -11.90625 9.507812 -11.675781 10.59375 -11.21875 L 10.0625 -10.015625 C 9 -10.460938 7.976562 -10.6875 7 -10.6875 C 5.570312 -10.6875 4.457031 -10.257812 3.65625 -9.40625 C 2.851562 -8.550781 2.453125 -7.367188 2.453125 -5.859375 C 2.453125 -4.273438 2.835938 -3.070312 3.609375 -2.25 C 4.378906 -1.4375 5.515625 -1.03125 7.015625 -1.03125 C 7.828125 -1.03125 8.625 -1.125 9.40625 -1.3125 L 9.40625 -4.921875 L 6.78125 -4.921875 Z M 6.78125 -6.140625 "/></g></g></g><g fill="#737373" fill-opacity="1"><g transform="translate(247.919142, 228.343154)"><g/></g></g><g fill="#737373" fill-opacity="1"><g transform="translate(254.257509, 228.343154)"><g><path d="M 10.78125 0 L 9.21875 0 L 2.8125 -9.84375 L 2.75 -9.84375 C 2.832031 -8.6875 2.875 -7.628906 2.875 -6.671875 L 2.875 0 L 1.609375 0 L 1.609375 -11.734375 L 3.15625 -11.734375 L 9.546875 -1.921875 L 9.609375 -1.921875 C 9.597656 -2.066406 9.570312 -2.53125 9.53125 -3.3125 C 9.5 -4.101562 9.488281 -4.664062 9.5 -5 L 9.5 -11.734375 L 10.78125 -11.734375 Z M 10.78125 0 "/></g></g></g><g fill="#737373" fill-opacity="1"><g transform="translate(268.714452, 228.343154)"><g><path d="M 6.78125 -6.140625 L 10.765625 -6.140625 L 10.765625 -0.4375 C 10.140625 -0.238281 9.503906 -0.09375 8.859375 0 C 8.222656 0.101562 7.484375 0.15625 6.640625 0.15625 C 4.859375 0.15625 3.472656 -0.367188 2.484375 -1.421875 C 1.492188 -2.484375 1 -3.960938 1 -5.859375 C 1 -7.085938 1.242188 -8.160156 1.734375 -9.078125 C 2.222656 -9.992188 2.925781 -10.691406 3.84375 -11.171875 C 4.769531 -11.660156 5.851562 -11.90625 7.09375 -11.90625 C 8.34375 -11.90625 9.507812 -11.675781 10.59375 -11.21875 L 10.0625 -10.015625 C 9 -10.460938 7.976562 -10.6875 7 -10.6875 C 5.570312 -10.6875 4.457031 -10.257812 3.65625 -9.40625 C 2.851562 -8.550781 2.453125 -7.367188 2.453125 -5.859375 C 2.453125 -4.273438 2.835938 -3.070312 3.609375 -2.25 C 4.378906 -1.4375 5.515625 -1.03125 7.015625 -1.03125 C 7.828125 -1.03125 8.625 -1.125 9.40625 -1.3125 L 9.40625 -4.921875 L 6.78125 -4.921875 Z M 6.78125 -6.140625 "/></g></g></g><g fill="#737373" fill-opacity="1"><g transform="translate(282.746212, 228.343154)"><g><path d="M 10.515625 0 L 9.15625 0 L 9.15625 -5.515625 L 2.984375 -5.515625 L 2.984375 0 L 1.609375 0 L 1.609375 -11.734375 L 2.984375 -11.734375 L 2.984375 -6.734375 L 9.15625 -6.734375 L 9.15625 -11.734375 L 10.515625 -11.734375 Z M 10.515625 0 "/></g></g></g><g fill="#737373" fill-opacity="1"><g transform="translate(296.938418, 228.343154)"><g><path d="M 8.15625 0 L 1.609375 0 L 1.609375 -11.734375 L 8.15625 -11.734375 L 8.15625 -10.515625 L 2.984375 -10.515625 L 2.984375 -6.734375 L 7.84375 -6.734375 L 7.84375 -5.53125 L 2.984375 -5.53125 L 2.984375 -1.21875 L 8.15625 -1.21875 Z M 4.0625 1.9375 C 4.0625 1.632812 4.140625 1.410156 4.296875 1.265625 C 4.453125 1.117188 4.644531 1.046875 4.875 1.046875 C 5.082031 1.046875 5.265625 1.117188 5.421875 1.265625 C 5.578125 1.410156 5.65625 1.632812 5.65625 1.9375 C 5.65625 2.238281 5.578125 2.460938 5.421875 2.609375 C 5.265625 2.753906 5.082031 2.828125 4.875 2.828125 C 4.644531 2.828125 4.453125 2.753906 4.296875 2.609375 C 4.140625 2.460938 4.0625 2.238281 4.0625 1.9375 Z M 2.171875 -12.859375 C 2.847656 -13.585938 3.320312 -14.125 3.59375 -14.46875 C 3.863281 -14.8125 4.0625 -15.09375 4.1875 -15.3125 L 5.515625 -15.3125 C 5.640625 -15.082031 5.847656 -14.789062 6.140625 -14.4375 C 6.429688 -14.082031 6.910156 -13.554688 7.578125 -12.859375 L 7.578125 -12.671875 L 6.625 -12.671875 C 6.15625 -12.972656 5.5625 -13.472656 4.84375 -14.171875 C 4.113281 -13.453125 3.53125 -12.953125 3.09375 -12.671875 L 2.171875 -12.671875 Z M 2.171875 -12.859375 "/></g></g></g></svg>